AnekTamil-CondensedMedium.ufo
<glyph name="dollar" format="2">
  <advance width="622"/>
  <unicode hex="0024"/>
  <anchor x="298" y="0" name="bottom"/>
  <anchor x="298" y="1278" name="top"/>
  <outline>
    <contour>
      <point x="380" y="1200" type="line"/>
      <point x="380" y="1444" type="line"/>
      <point x="228" y="1444" type="line"/>
      <point x="228" y="1200" type="line"/>
    </contour>
    <contour>
      <point x="380" y="-175" type="line"/>
      <point x="380" y="25" type="line"/>
      <point x="228" y="25" type="line"/>
      <point x="228" y="-175" type="line"/>
    </contour>
    <component base="S"/>
  </outline>
</glyph>
<glyph name="B" format="2">
  <advance width="757"/>
  <unicode hex="0042"/>
  <anchor x="384" y="0" name="bottom"/>
  <anchor x="384" y="1278" name="top"/>
  <outline>
    <contour>
      <point x="228" y="0" type="line"/>
      <point x="404" y="0" type="line" smooth="yes"/>
      <point x="615" y="0"/>
      <point x="701" y="114"/>
      <point x="701" y="329" type="curve" smooth="yes"/>
      <point x="701" y="400" type="line" smooth="yes"/>
      <point x="701" y="557"/>
      <point x="657" y="651"/>
      <point x="515" y="675" type="curve"/>
      <point x="515" y="684" type="line"/>
      <point x="644" y="704"/>
      <point x="691" y="789"/>
      <point x="691" y="926" type="curve" smooth="yes"/>
      <point x="691" y="974" type="line" smooth="yes"/>
      <point x="691" y="1169"/>
      <point x="602" y="1278"/>
      <point x="387" y="1278" type="curve" smooth="yes"/>
      <point x="221" y="1278" type="line"/>
      <point x="221" y="1125" type="line"/>
      <point x="376" y="1125" type="line" smooth="yes"/>
      <point x="479" y="1125"/>
      <point x="514" y="1063"/>
      <point x="514" y="949" type="curve" smooth="yes"/>
      <point x="514" y="896" type="line" smooth="yes"/>
      <point x="514" y="790"/>
      <point x="480" y="727"/>
      <point x="369" y="727" type="curve" smooth="yes"/>
      <point x="227" y="727" type="line"/>
      <point x="227" y="581" type="line"/>
      <point x="368" y="581" type="line" smooth="yes"/>
      <point x="489" y="581"/>
      <point x="524" y="518"/>
      <point x="524" y="405" type="curve" smooth="yes"/>
      <point x="524" y="330" type="line" smooth="yes"/>
      <point x="524" y="217"/>
      <point x="489" y="154"/>
      <point x="384" y="154" type="curve" smooth="yes"/>
      <point x="228" y="154" type="line"/>
    </contour>
    <contour>
      <point x="98" y="0" type="line"/>
      <point x="275" y="0" type="line"/>
      <point x="275" y="1278" type="line"/>
      <point x="98" y="1278" type="line"/>
    </contour>
  </outline>
</glyph>
<glyph name="d" format="2">
  <advance width="741"/>
  <unicode hex="0064"/>
  <anchor x="370" y="0" name="bottom"/>
  <anchor x="370" y="499" name="center"/>
  <anchor x="370" y="1329" name="top"/>
  <anchor x="763" y="1329" name="topright"/>
  <outline>
    <contour>
      <point x="290" y="-14" type="curve" smooth="yes"/>
      <point x="405" y="-14"/>
      <point x="457" y="52"/>
      <point x="477" y="145" type="curve"/>
      <point x="514" y="145" type="line"/>
      <point x="485" y="265" type="line"/>
      <point x="470" y="188"/>
      <point x="430" y="132"/>
      <point x="357" y="132" type="curve" smooth="yes"/>
      <point x="275" y="132"/>
      <point x="244" y="194"/>
      <point x="244" y="313" type="curve" smooth="yes"/>
      <point x="244" y="685" type="line" smooth="yes"/>
      <point x="244" y="807"/>
      <point x="277" y="870"/>
      <point x="358" y="870" type="curve" smooth="yes"/>
      <point x="441" y="870"/>
      <point x="482" y="802"/>
      <point x="483" y="697" type="curve"/>
      <point x="525" y="853" type="line"/>
      <point x="474" y="853" type="line"/>
      <point x="452" y="945"/>
      <point x="401" y="1012"/>
      <point x="289" y="1012" type="curve" smooth="yes"/>
      <point x="134" y="1012"/>
      <point x="70" y="895"/>
      <point x="70" y="672" type="curve" smooth="yes"/>
      <point x="70" y="323" type="line" smooth="yes"/>
      <point x="70" y="102"/>
      <point x="134" y="-14"/>
    </contour>
    <contour>
      <point x="480" y="0" type="line"/>
      <point x="653" y="0" type="line"/>
      <point x="653" y="1329" type="line"/>
      <point x="480" y="1329" type="line"/>
      <point x="480" y="1066" type="line"/>
      <point x="484" y="810" type="line"/>
      <point x="483" y="788" type="line"/>
      <point x="483" y="172" type="line"/>
      <point x="487" y="172" type="line"/>
    </contour>
  </outline>
</glyph>
<glyph name="k" format="2">
  <advance width="697"/>
  <unicode hex="006B"/>
  <anchor x="359" y="0" name="bottom"/>
  <anchor x="349" y="1329" name="top"/>
  <outline>
    <contour>
      <point x="500" y="0" type="line"/>
      <point x="681" y="0" type="line"/>
      <point x="443" y="555" type="line"/>
      <point x="443" y="510" type="line"/>
      <point x="670" y="998" type="line"/>
      <point x="492" y="998" type="line"/>
      <point x="309" y="605" type="line"/>
      <point x="249" y="605" type="line"/>
      <point x="249" y="455" type="line"/>
      <point x="304" y="455" type="line"/>
    </contour>
    <contour>
      <point x="88" y="0" type="line"/>
      <point x="262" y="0" type="line"/>
      <point x="262" y="1329" type="line"/>
      <point x="88" y="1329" type="line"/>
    </contour>
  </outline>
</glyph>
<glyph name="plusminus" format="2">
  <advance width="694"/>
  <unicode hex="00B1"/>
  <outline>
    <contour>
      <point x="69" y="193" type="line"/>
      <point x="625" y="193" type="line"/>
      <point x="625" y="333" type="line"/>
      <point x="69" y="333" type="line"/>
    </contour>
    <contour>
      <point x="422" y="442" type="line"/>
      <point x="422" y="1006" type="line"/>
      <point x="272" y="1006" type="line"/>
      <point x="272" y="442" type="line"/>
    </contour>
    <contour>
      <point x="69" y="653" type="line"/>
      <point x="625" y="653" type="line"/>
      <point x="625" y="795" type="line"/>
      <point x="69" y="795" type="line"/>
    </contour>
  </outline>
</glyph>
<glyph name="Anusvara.tm" format="2">
  <unicode hex="0B82"/>
  <note>
Anusvara.tm
</note>
  <outline>
    <contour>
      <point x="208" y="1840" type="curve" smooth="yes"/>
      <point x="67" y="1840"/>
      <point x="3" y="1755"/>
      <point x="3" y="1608" type="curve" smooth="yes"/>
      <point x="3" y="1500" type="line"/>
      <point x="3" y="1352"/>
      <point x="67" y="1267"/>
      <point x="208" y="1267" type="curve" smooth="yes"/>
      <point x="350" y="1267"/>
      <point x="410" y="1351"/>
      <point x="410" y="1500" type="curve" smooth="yes"/>
      <point x="410" y="1608" type="line"/>
      <point x="410" y="1755"/>
      <point x="350" y="1840"/>
    </contour>
    <contour>
      <point x="208" y="1721" type="curve" smooth="yes"/>
      <point x="256" y="1721"/>
      <point x="274" y="1688"/>
      <point x="274" y="1610" type="curve" smooth="yes"/>
      <point x="274" y="1497" type="line"/>
      <point x="274" y="1421"/>
      <point x="256" y="1386"/>
      <point x="208" y="1386" type="curve" smooth="yes"/>
      <point x="160" y="1386"/>
      <point x="139" y="1421"/>
      <point x="139" y="1497" type="curve" smooth="yes"/>
      <point x="139" y="1610" type="line"/>
      <point x="139" y="1688"/>
      <point x="160" y="1721"/>
    </contour>
  </outline>
</glyph>
<glyph name="Aaytam.tm" format="2">
  <advance width="1150"/>
  <unicode hex="0B83"/>
  <note>
Aaytam.tm
</note>
  <outline>
    <contour>
      <point x="299" y="670" type="curve" smooth="yes"/>
      <point x="142" y="670"/>
      <point x="68" y="570"/>
      <point x="68" y="398" type="curve" smooth="yes"/>
      <point x="68" y="251" type="line"/>
      <point x="68" y="79"/>
      <point x="142" y="-22"/>
      <point x="299" y="-22" type="curve" smooth="yes"/>
      <point x="458" y="-22"/>
      <point x="528" y="77"/>
      <point x="528" y="246" type="curve" smooth="yes"/>
      <point x="528" y="403" type="line"/>
      <point x="528" y="572"/>
      <point x="458" y="670"/>
    </contour>
    <contour>
      <point x="299" y="542" type="curve" smooth="yes"/>
      <point x="358" y="542"/>
      <point x="382" y="499"/>
      <point x="382" y="409" type="curve" smooth="yes"/>
      <point x="382" y="239" type="line"/>
      <point x="382" y="149"/>
      <point x="358" y="107"/>
      <point x="299" y="107" type="curve" smooth="yes"/>
      <point x="240" y="107"/>
      <point x="214" y="149"/>
      <point x="214" y="239" type="curve" smooth="yes"/>
      <point x="214" y="409" type="line"/>
      <point x="214" y="499"/>
      <point x="240" y="542"/>
    </contour>
    <contour>
      <point x="854" y="670" type="curve" smooth="yes"/>
      <point x="697" y="670"/>
      <point x="623" y="570"/>
      <point x="623" y="398" type="curve" smooth="yes"/>
      <point x="623" y="251" type="line"/>
      <point x="623" y="79"/>
      <point x="697" y="-22"/>
      <point x="854" y="-22" type="curve" smooth="yes"/>
      <point x="1013" y="-22"/>
      <point x="1082" y="77"/>
      <point x="1082" y="246" type="curve" smooth="yes"/>
      <point x="1082" y="403" type="line"/>
      <point x="1082" y="572"/>
      <point x="1013" y="670"/>
    </contour>
    <contour>
      <point x="854" y="542" type="curve" smooth="yes"/>
      <point x="913" y="542"/>
      <point x="937" y="499"/>
      <point x="937" y="409" type="curve" smooth="yes"/>
      <point x="937" y="239" type="line"/>
      <point x="937" y="149"/>
      <point x="913" y="107"/>
      <point x="854" y="107" type="curve" smooth="yes"/>
      <point x="795" y="107"/>
      <point x="769" y="149"/>
      <point x="769" y="239" type="curve" smooth="yes"/>
      <point x="769" y="409" type="line"/>
      <point x="769" y="499"/>
      <point x="795" y="542"/>
    </contour>
    <contour>
      <point x="578" y="1367" type="curve" smooth="yes"/>
      <point x="421" y="1367"/>
      <point x="347" y="1267"/>
      <point x="347" y="1095" type="curve" smooth="yes"/>
      <point x="347" y="948" type="line"/>
      <point x="347" y="776"/>
      <point x="421" y="676"/>
      <point x="578" y="676" type="curve" smooth="yes"/>
      <point x="737" y="676"/>
      <point x="807" y="774"/>
      <point x="807" y="943" type="curve" smooth="yes"/>
      <point x="807" y="1100" type="line"/>
      <point x="807" y="1269"/>
      <point x="737" y="1367"/>
    </contour>
    <contour>
      <point x="578" y="1238" type="curve" smooth="yes"/>
      <point x="636" y="1238"/>
      <point x="661" y="1196"/>
      <point x="661" y="1106" type="curve" smooth="yes"/>
      <point x="661" y="937" type="line"/>
      <point x="661" y="847"/>
      <point x="636" y="804"/>
      <point x="578" y="804" type="curve" smooth="yes"/>
      <point x="519" y="804"/>
      <point x="493" y="847"/>
      <point x="493" y="937" type="curve" smooth="yes"/>
      <point x="493" y="1106" type="line"/>
      <point x="493" y="1196"/>
      <point x="519" y="1238"/>
    </contour>
  </outline>
</glyph>
<glyph name="VowelAa.tm" format="2">
  <advance width="1908"/>
  <unicode hex="0B86"/>
  <note>
vowelAa.tm
</note>
  <outline>
    <contour>
      <point x="1661" y="611" type="curve" smooth="yes"/>
      <point x="1558" y="611"/>
      <point x="1502" y="547"/>
      <point x="1486" y="463" type="curve"/>
      <point x="1461" y="463" type="line"/>
      <point x="1461" y="319" type="line"/>
      <point x="1474" y="319" type="line"/>
      <point x="1484" y="404"/>
      <point x="1524" y="461"/>
      <point x="1590" y="461" type="curve" smooth="yes"/>
      <point x="1667" y="461"/>
      <point x="1691" y="405"/>
      <point x="1691" y="289" type="curve" smooth="yes"/>
      <point x="1691" y="69" type="line" smooth="yes"/>
      <point x="1691" y="-139"/>
      <point x="1629" y="-216"/>
      <point x="1453" y="-216" type="curve" smooth="yes"/>
      <point x="1342" y="-216"/>
      <point x="1246" y="-185"/>
      <point x="1165" y="-140" type="curve"/>
      <point x="1185" y="-289" type="line"/>
      <point x="1261" y="-328"/>
      <point x="1359" y="-358"/>
      <point x="1471" y="-358" type="curve" smooth="yes"/>
      <point x="1751" y="-358"/>
      <point x="1855" y="-230"/>
      <point x="1855" y="64" type="curve" smooth="yes"/>
      <point x="1855" y="324" type="line" smooth="yes"/>
      <point x="1855" y="516"/>
      <point x="1802" y="611"/>
    </contour>
    <component base="VowelA.tm"/>
  </outline>
</glyph>
<glyph name="VowelI.tm" format="2">
  <advance width="1625"/>
  <unicode hex="0B87"/>
  <note>
vowelI.tm
</note>
  <outline>
    <contour>
      <point x="815" y="1195" type="curve" smooth="yes"/>
      <point x="550" y="1195"/>
      <point x="408" y="1042"/>
      <point x="408" y="759" type="curve" smooth="yes"/>
      <point x="408" y="491" type="line" smooth="yes"/>
      <point x="408" y="318"/>
      <point x="481" y="219"/>
      <point x="642" y="219" type="curve" smooth="yes"/>
      <point x="805" y="219"/>
      <point x="876" y="316"/>
      <point x="876" y="486" type="curve" smooth="yes"/>
      <point x="876" y="695" type="line" smooth="yes"/>
      <point x="876" y="851"/>
      <point x="826" y="932"/>
      <point x="711" y="932" type="curve" smooth="yes"/>
      <point x="622" y="932"/>
      <point x="570" y="874"/>
      <point x="554" y="803" type="curve"/>
      <point x="541" y="803" type="line"/>
      <point x="549" y="699" type="line"/>
      <point x="561" y="762"/>
      <point x="597" y="799"/>
      <point x="647" y="799" type="curve" smooth="yes"/>
      <point x="704" y="799"/>
      <point x="729" y="757"/>
      <point x="729" y="676" type="curve" smooth="yes"/>
      <point x="729" y="480" type="line" smooth="yes"/>
      <point x="729" y="388"/>
      <point x="704" y="346"/>
      <point x="642" y="346" type="curve" smooth="yes"/>
      <point x="582" y="346"/>
      <point x="555" y="388"/>
      <point x="555" y="480" type="curve" smooth="yes"/>
      <point x="555" y="803" type="line"/>
      <point x="548" y="803" type="line"/>
      <point x="556" y="965"/>
      <point x="636" y="1064"/>
      <point x="810" y="1064" type="curve" smooth="yes"/>
      <point x="989" y="1064"/>
      <point x="1053" y="954"/>
      <point x="1053" y="747" type="curve" smooth="yes"/>
      <point x="1053" y="608" type="line" smooth="yes"/>
      <point x="1053" y="244"/>
      <point x="942" y="63"/>
      <point x="652" y="63" type="curve" smooth="yes"/>
      <point x="400" y="63"/>
      <point x="255" y="203"/>
      <point x="255" y="454" type="curve" smooth="yes"/>
      <point x="255" y="497" type="line"/>
      <point x="255" y="520"/>
      <point x="255" y="540"/>
      <point x="255" y="563" type="curve"/>
      <point x="441" y="563" type="line"/>
      <point x="442" y="689" type="line"/>
      <point x="94" y="689" type="line"/>
      <point x="94" y="652"/>
      <point x="94" y="612"/>
      <point x="94" y="563" type="curve" smooth="yes"/>
      <point x="94" y="493" type="line" smooth="yes"/>
      <point x="94" y="110"/>
      <point x="306" y="-79"/>
      <point x="659" y="-79" type="curve" smooth="yes"/>
      <point x="814" y="-79"/>
      <point x="931" y="-41"/>
      <point x="1005" y="33" type="curve"/>
      <point x="1037" y="62" type="line"/>
      <point x="1158" y="166"/>
      <point x="1210" y="351"/>
      <point x="1210" y="612" type="curve" smooth="yes"/>
      <point x="1210" y="743" type="line" smooth="yes"/>
      <point x="1210" y="1033"/>
      <point x="1099" y="1195"/>
    </contour>
    <contour>
      <point x="1536" y="690" type="curve"/>
      <point x="805" y="690" type="line"/>
      <point x="805" y="563" type="line"/>
      <point x="1375" y="563" type="line"/>
      <point x="1375" y="526"/>
      <point x="1375" y="487"/>
      <point x="1375" y="449" type="curve"/>
      <point x="1375" y="297" type="line" smooth="yes"/>
      <point x="1375" y="142"/>
      <point x="1318" y="66"/>
      <point x="1192" y="66" type="curve" smooth="yes"/>
      <point x="1125" y="66"/>
      <point x="1076" y="86"/>
      <point x="1033" y="125" type="curve"/>
      <point x="936" y="33" type="line"/>
      <point x="1007" y="-40"/>
      <point x="1099" y="-75"/>
      <point x="1216" y="-75" type="curve" smooth="yes"/>
      <point x="1435" y="-75"/>
      <point x="1536" y="49"/>
      <point x="1536" y="294" type="curve" smooth="yes"/>
      <point x="1536" y="504" type="line"/>
      <point x="1536" y="566"/>
      <point x="1536" y="629"/>
    </contour>
    <contour>
      <point x="820" y="1531" type="curve" smooth="yes"/>
      <point x="388" y="1531"/>
      <point x="118" y="1297"/>
      <point x="118" y="900" type="curve" smooth="yes"/>
      <point x="118" y="885" type="line" smooth="yes"/>
      <point x="118" y="841"/>
      <point x="125" y="800"/>
      <point x="140" y="769" type="curve"/>
      <point x="302" y="733" type="line"/>
      <point x="284" y="772"/>
      <point x="279" y="811"/>
      <point x="279" y="854" type="curve" smooth="yes"/>
      <point x="279" y="882" type="line" smooth="yes"/>
      <point x="279" y="1209"/>
      <point x="488" y="1386"/>
      <point x="819" y="1386" type="curve" smooth="yes"/>
      <point x="1152" y="1386"/>
      <point x="1333" y="1215"/>
      <point x="1333" y="887" type="curve" smooth="yes"/>
      <point x="1333" y="844"/>
      <point x="1333" y="802"/>
      <point x="1333" y="761" type="curve"/>
      <point x="1495" y="761" type="line"/>
      <point x="1495" y="804"/>
      <point x="1495" y="847"/>
      <point x="1495" y="893" type="curve" smooth="yes"/>
      <point x="1495" y="1305"/>
      <point x="1254" y="1531"/>
    </contour>
  </outline>
</glyph>
<glyph name="VowelIi.tm" format="2">
  <advance width="1044"/>
  <unicode hex="0B88"/>
  <note>
vowelIi.tm
</note>
  <outline>
    <contour>
      <point x="614" y="0" type="line"/>
      <point x="778" y="0" type="line"/>
      <point x="778" y="1127" type="line"/>
      <point x="614" y="1127" type="line"/>
    </contour>
    <contour>
      <point x="445" y="436" type="curve" smooth="yes"/>
      <point x="503" y="436"/>
      <point x="522" y="479"/>
      <point x="522" y="571" type="curve" smooth="yes"/>
      <point x="522" y="614" type="line" smooth="yes"/>
      <point x="522" y="704"/>
      <point x="501" y="746"/>
      <point x="445" y="746" type="curve" smooth="yes"/>
      <point x="389" y="746"/>
      <point x="368" y="704"/>
      <point x="368" y="614" type="curve" smooth="yes"/>
      <point x="368" y="571" type="line" smooth="yes"/>
      <point x="368" y="479"/>
      <point x="388" y="436"/>
    </contour>
    <contour>
      <point x="932" y="436" type="curve" smooth="yes"/>
      <point x="990" y="436"/>
      <point x="1009" y="479"/>
      <point x="1009" y="571" type="curve" smooth="yes"/>
      <point x="1009" y="614" type="line" smooth="yes"/>
      <point x="1009" y="704"/>
      <point x="988" y="746"/>
      <point x="932" y="746" type="curve" smooth="yes"/>
      <point x="876" y="746"/>
      <point x="855" y="704"/>
      <point x="855" y="614" type="curve" smooth="yes"/>
      <point x="855" y="571" type="line" smooth="yes"/>
      <point x="855" y="479"/>
      <point x="874" y="436"/>
    </contour>
    <contour>
      <point x="797" y="1173" type="line"/>
      <point x="112" y="1173" type="line"/>
      <point x="112" y="0" type="line"/>
      <point x="277" y="0" type="line"/>
      <point x="277" y="1030" type="line"/>
      <point x="797" y="1030" type="line"/>
    </contour>
    <component base="RaBeak_Nonexporting" xOffset="573"/>
  </outline>
</glyph>
<glyph name="VowelE.tm" format="2">
  <advance width="1077"/>
  <unicode hex="0B8E"/>
  <note>
vowelE.tm
</note>
  <outline>
    <contour>
      <point x="605" y="1030" type="line"/>
      <point x="1087" y="1030" type="line"/>
      <point x="1075" y="1173" type="line"/>
      <point x="605" y="1173" type="line"/>
    </contour>
    <contour>
      <point x="770" y="1126" type="line"/>
      <point x="770" y="0" type="line"/>
      <point x="935" y="0" type="line"/>
      <point x="935" y="1126" type="line"/>
    </contour>
    <component base="VowelE_NonExporting" xOffset="1"/>
  </outline>
</glyph>
<glyph name="VowelAi.tm" format="2">
  <advance width="1367"/>
  <unicode hex="0B90"/>
  <note>
vowelAi.tm
</note>
  <outline>
    <contour>
      <point x="476" y="1204" type="curve" smooth="yes"/>
      <point x="225" y="1204"/>
      <point x="87" y="1055"/>
      <point x="87" y="778" type="curve" smooth="yes"/>
      <point x="87" y="640" type="line" smooth="yes"/>
      <point x="87" y="456"/>
      <point x="162" y="357"/>
      <point x="337" y="357" type="curve" smooth="yes"/>
      <point x="514" y="357"/>
      <point x="584" y="456"/>
      <point x="584" y="640" type="curve" smooth="yes"/>
      <point x="584" y="698" type="line" smooth="yes"/>
      <point x="584" y="854"/>
      <point x="530" y="935"/>
      <point x="406" y="935" type="curve" smooth="yes"/>
      <point x="316" y="935"/>
      <point x="259" y="877"/>
      <point x="242" y="802" type="curve"/>
      <point x="231" y="802" type="line"/>
      <point x="237" y="699" type="line"/>
      <point x="249" y="765"/>
      <point x="291" y="804"/>
      <point x="341" y="804" type="curve" smooth="yes"/>
      <point x="403" y="804"/>
      <point x="431" y="762"/>
      <point x="431" y="681" type="curve" smooth="yes"/>
      <point x="431" y="631" type="line" smooth="yes"/>
      <point x="431" y="537"/>
      <point x="411" y="485"/>
      <point x="337" y="485" type="curve" smooth="yes"/>
      <point x="264" y="485"/>
      <point x="244" y="537"/>
      <point x="244" y="631" type="curve" smooth="yes"/>
      <point x="244" y="802" type="line"/>
      <point x="236" y="802" type="line"/>
      <point x="236" y="961"/>
      <point x="322" y="1066"/>
      <point x="488" y="1066" type="curve" smooth="yes"/>
      <point x="664" y="1066"/>
      <point x="728" y="959"/>
      <point x="728" y="756" type="curve" smooth="yes"/>
      <point x="728" y="441" type="line"/>
      <point x="887" y="441" type="line"/>
      <point x="887" y="883" type="line" smooth="yes"/>
      <point x="887" y="1002"/>
      <point x="925" y="1055"/>
      <point x="1006" y="1055" type="curve" smooth="yes"/>
      <point x="1082" y="1055"/>
      <point x="1117" y="1004"/>
      <point x="1117" y="891" type="curve" smooth="yes"/>
      <point x="1117" y="630" type="line" smooth="yes"/>
      <point x="1117" y="444"/>
      <point x="1068" y="368"/>
      <point x="902" y="346" type="curve" smooth="yes"/>
      <point x="455" y="288" type="line" smooth="yes"/>
      <point x="225" y="258"/>
      <point x="127" y="178"/>
      <point x="127" y="-38" type="curve" smooth="yes"/>
      <point x="127" y="-65" type="line" smooth="yes"/>
      <point x="127" y="-272"/>
      <point x="238" y="-386"/>
      <point x="452" y="-386" type="curve" smooth="yes"/>
      <point x="636" y="-386"/>
      <point x="723" y="-305"/>
      <point x="739" y="-158" type="curve"/>
      <point x="744" y="-158" type="line"/>
      <point x="759" y="-304"/>
      <point x="837" y="-384"/>
      <point x="999" y="-384" type="curve" smooth="yes"/>
      <point x="1172" y="-384"/>
      <point x="1254" y="-283"/>
      <point x="1254" y="-67" type="curve" smooth="yes"/>
      <point x="1254" y="6"/>
      <point x="1254" y="76"/>
      <point x="1254" y="148" type="curve"/>
      <point x="1092" y="162" type="line"/>
      <point x="1092" y="83"/>
      <point x="1092" y="4"/>
      <point x="1092" y="-77" type="curve" smooth="yes"/>
      <point x="1092" y="-187"/>
      <point x="1052" y="-240"/>
      <point x="964" y="-240" type="curve" smooth="yes"/>
      <point x="871" y="-240"/>
      <point x="824" y="-184"/>
      <point x="824" y="-62" type="curve" smooth="yes"/>
      <point x="824" y="74" type="line"/>
      <point x="663" y="74" type="line"/>
      <point x="663" y="-31" type="line" smooth="yes"/>
      <point x="663" y="-177"/>
      <point x="606" y="-242"/>
      <point x="476" y="-242" type="curve" smooth="yes"/>
      <point x="348" y="-242"/>
      <point x="287" y="-179"/>
      <point x="287" y="-61" type="curve" smooth="yes"/>
      <point x="287" y="-37" type="line" smooth="yes"/>
      <point x="287" y="79"/>
      <point x="335" y="136"/>
      <point x="461" y="151" type="curve" smooth="yes"/>
      <point x="910" y="205" type="line" smooth="yes"/>
      <point x="1195" y="239"/>
      <point x="1276" y="343"/>
      <point x="1276" y="631" type="curve" smooth="yes"/>
      <point x="1276" y="878" type="line" smooth="yes"/>
      <point x="1276" y="1095"/>
      <point x="1207" y="1199"/>
      <point x="1039" y="1199" type="curve" smooth="yes"/>
      <point x="884" y="1199"/>
      <point x="812" y="1108"/>
      <point x="800" y="949" type="curve"/>
      <point x="795" y="949" type="line"/>
      <point x="770" y="1102"/>
      <point x="673" y="1204"/>
    </contour>
  </outline>
</glyph>
<glyph name="VowelO.tm" format="2">
  <advance width="1294"/>
  <unicode hex="0B92"/>
  <note>
vowelO.tm
</note>
  <outline>
    <contour>
      <point x="650" y="1257" type="curve" smooth="yes"/>
      <point x="285" y="1257"/>
      <point x="77" y="1055"/>
      <point x="77" y="680" type="curve" smooth="yes"/>
      <point x="77" y="431" type="line" smooth="yes"/>
      <point x="77" y="248"/>
      <point x="155" y="142"/>
      <point x="334" y="142" type="curve" smooth="yes"/>
      <point x="508" y="142"/>
      <point x="579" y="246"/>
      <point x="579" y="426" type="curve" smooth="yes"/>
      <point x="579" y="630" type="line" smooth="yes"/>
      <point x="579" y="793"/>
      <point x="524" y="878"/>
      <point x="401" y="878" type="curve" smooth="yes"/>
      <point x="305" y="878"/>
      <point x="249" y="821"/>
      <point x="230" y="739" type="curve"/>
      <point x="220" y="739" type="line"/>
      <point x="224" y="632" type="line"/>
      <point x="237" y="699"/>
      <point x="279" y="737"/>
      <point x="334" y="737" type="curve" smooth="yes"/>
      <point x="399" y="737"/>
      <point x="426" y="693"/>
      <point x="426" y="608" type="curve" smooth="yes"/>
      <point x="426" y="412" type="line" smooth="yes"/>
      <point x="426" y="316"/>
      <point x="399" y="271"/>
      <point x="330" y="271" type="curve" smooth="yes"/>
      <point x="260" y="271"/>
      <point x="231" y="316"/>
      <point x="231" y="412" type="curve"/>
      <point x="231" y="739" type="line"/>
      <point x="225" y="739" type="line"/>
      <point x="231" y="980"/>
      <point x="376" y="1116"/>
      <point x="645" y="1116" type="curve" smooth="yes"/>
      <point x="940" y="1116"/>
      <point x="1041" y="963"/>
      <point x="1041" y="702" type="curve" smooth="yes"/>
      <point x="1041" y="449" type="line" smooth="yes"/>
      <point x="1041" y="363"/>
      <point x="1013" y="320"/>
      <point x="952" y="320" type="curve" smooth="yes"/>
      <point x="889" y="320"/>
      <point x="858" y="363"/>
      <point x="858" y="449" type="curve" smooth="yes"/>
      <point x="858" y="587"/>
      <point x="858" y="700"/>
      <point x="858" y="839" type="curve"/>
      <point x="710" y="839" type="line"/>
      <point x="710" y="705"/>
      <point x="710" y="586"/>
      <point x="710" y="452" type="curve" smooth="yes"/>
      <point x="710" y="308"/>
      <point x="771" y="216"/>
      <point x="922" y="216" type="curve" smooth="yes"/>
      <point x="969" y="216"/>
      <point x="1019" y="226"/>
      <point x="1063" y="244" type="curve"/>
      <point x="1157" y="273"/>
      <point x="1199" y="342"/>
      <point x="1199" y="500" type="curve" smooth="yes"/>
      <point x="1199" y="702" type="line" smooth="yes"/>
      <point x="1199" y="1048"/>
      <point x="1029" y="1257"/>
    </contour>
    <contour>
      <point x="1219" y="285" type="line"/>
      <point x="1041" y="285" type="line"/>
      <point x="918" y="218" type="line"/>
      <point x="918" y="211" type="line"/>
      <point x="836" y="192"/>
      <point x="804" y="145"/>
      <point x="801" y="50" type="curve" smooth="yes"/>
      <point x="799" y="-65" type="line" smooth="yes"/>
      <point x="796" y="-188"/>
      <point x="755" y="-244"/>
      <point x="662" y="-244" type="curve" smooth="yes"/>
      <point x="567" y="-244"/>
      <point x="517" y="-187"/>
      <point x="517" y="-64" type="curve" smooth="yes"/>
      <point x="517" y="-13"/>
      <point x="517" y="38"/>
      <point x="517" y="89" type="curve"/>
      <point x="361" y="69" type="line"/>
      <point x="361" y="28"/>
      <point x="361" y="-9"/>
      <point x="361" y="-51" type="curve" smooth="yes"/>
      <point x="361" y="-259"/>
      <point x="456" y="-377"/>
      <point x="662" y="-377" type="curve" smooth="yes"/>
      <point x="868" y="-377"/>
      <point x="949" y="-263"/>
      <point x="955" y="-60" type="curve" smooth="yes"/>
      <point x="957" y="43" type="line" smooth="yes"/>
      <point x="958" y="119"/>
      <point x="975" y="150"/>
      <point x="1050" y="150" type="curve" smooth="yes"/>
      <point x="1205" y="150" type="line"/>
    </contour>
  </outline>
</glyph>
<glyph name="Ka.tm" format="2">
  <advance width="1101"/>
  <unicode hex="0B95"/>
  <note>
Ka.tm
</note>
  <anchor x="587" y="1243" name="top"/>
  <outline>
    <contour>
      <point x="634" y="615" type="line"/>
      <point x="733" y="615" type="line" smooth="yes"/>
      <point x="827" y="615"/>
      <point x="860" y="583"/>
      <point x="860" y="469" type="curve" smooth="yes"/>
      <point x="860" y="270" type="line" smooth="yes"/>
      <point x="860" y="168"/>
      <point x="829" y="120"/>
      <point x="753" y="120" type="curve" smooth="yes"/>
      <point x="694" y="120"/>
      <point x="646" y="145"/>
      <point x="623" y="178" type="curve"/>
      <point x="620" y="165" type="line"/>
      <point x="640" y="13" type="line"/>
      <point x="672" y="-8"/>
      <point x="725" y="-22"/>
      <point x="792" y="-22" type="curve" smooth="yes"/>
      <point x="955" y="-22"/>
      <point x="1023" y="75"/>
      <point x="1023" y="261" type="curve" smooth="yes"/>
      <point x="1023" y="489" type="line" smooth="yes"/>
      <point x="1023" y="683"/>
      <point x="951" y="755"/>
      <point x="763" y="755" type="curve" smooth="yes"/>
      <point x="634" y="755" type="line"/>
    </contour>
    <component base="KaComponent_Nonexporting" xOffset="39"/>
    <component base="KaBeak_Nonexporting" xOffset="679"/>
  </outline>
</glyph>
<glyph name="Nga.tm" format="2">
  <advance width="1501"/>
  <unicode hex="0B99"/>
  <note>
Nga.tm
</note>
  <anchor x="824" y="1243" name="top"/>
  <outline>
    <contour>
      <point x="517" y="1130" type="line"/>
      <point x="517" y="0" type="line"/>
      <point x="682" y="0" type="line"/>
      <point x="682" y="1130" type="line"/>
    </contour>
    <contour>
      <point x="866" y="810" type="curve" smooth="yes"/>
      <point x="760" y="810"/>
      <point x="703" y="743"/>
      <point x="686" y="660" type="curve"/>
      <point x="674" y="660" type="line"/>
      <point x="674" y="533" type="line"/>
      <point x="678" y="533" type="line"/>
      <point x="691" y="610"/>
      <point x="734" y="656"/>
      <point x="794" y="656" type="curve" smooth="yes"/>
      <point x="865" y="656"/>
      <point x="895" y="606"/>
      <point x="895" y="507" type="curve" smooth="yes"/>
      <point x="895" y="326" type="line" smooth="yes"/>
      <point x="895" y="182"/>
      <point x="874" y="101"/>
      <point x="823" y="12" type="curve"/>
      <point x="823" y="0" type="line"/>
      <point x="1332" y="0" type="line"/>
      <point x="1332" y="141" type="line"/>
      <point x="984" y="141" type="line"/>
      <point x="990" y="90" type="line"/>
      <point x="1038" y="164"/>
      <point x="1054" y="225"/>
      <point x="1054" y="358" type="curve" smooth="yes"/>
      <point x="1054" y="550" type="line" smooth="yes"/>
      <point x="1054" y="723"/>
      <point x="997" y="810"/>
    </contour>
    <contour>
      <point x="1224" y="1173" type="line"/>
      <point x="1224" y="0" type="line"/>
      <point x="1389" y="0" type="line"/>
      <point x="1389" y="1173" type="line"/>
    </contour>
    <contour>
      <point x="805" y="1173" type="line"/>
      <point x="112" y="1173" type="line"/>
      <point x="112" y="0" type="line"/>
      <point x="277" y="0" type="line"/>
      <point x="277" y="1030" type="line"/>
      <point x="805" y="1030" type="line"/>
    </contour>
    <component base="RaBeak_Nonexporting" xOffset="582"/>
  </outline>
</glyph>
<glyph name="Ma.tm" format="2">
  <advance width="1162"/>
  <unicode hex="0BAE"/>
  <note>
Ma.tm
</note>
  <anchor x="593" y="1243" name="top"/>
  <outline>
    <contour>
      <point x="112" y="1173" type="line"/>
      <point x="112" y="0" type="line"/>
      <point x="691" y="0" type="line" smooth="yes"/>
      <point x="993" y="0"/>
      <point x="1069" y="112"/>
      <point x="1069" y="419" type="curve" smooth="yes"/>
      <point x="1069" y="826" type="line" smooth="yes"/>
      <point x="1069" y="1067"/>
      <point x="983" y="1173"/>
      <point x="732" y="1173" type="curve" smooth="yes"/>
      <point x="510" y="1173" type="line"/>
      <point x="510" y="41" type="line"/>
      <point x="675" y="41" type="line"/>
      <point x="675" y="1031" type="line"/>
      <point x="736" y="1031" type="line" smooth="yes"/>
      <point x="869" y="1031"/>
      <point x="903" y="975"/>
      <point x="903" y="828" type="curve" smooth="yes"/>
      <point x="903" y="414" type="line" smooth="yes"/>
      <point x="903" y="210"/>
      <point x="872" y="143"/>
      <point x="699" y="143" type="curve" smooth="yes"/>
      <point x="277" y="143" type="line"/>
      <point x="277" y="1173" type="line"/>
    </contour>
  </outline>
</glyph>
<glyph name="Ya.tm" format="2">
  <advance width="1230"/>
  <unicode hex="0BAF"/>
  <note>
Ya.tm
</note>
  <anchor x="568" y="1243" name="top"/>
  <outline>
    <contour>
      <point x="952" y="1173" type="line"/>
      <point x="952" y="146" type="line"/>
      <point x="749" y="146" type="line"/>
      <point x="749" y="0" type="line"/>
      <point x="1118" y="0" type="line"/>
      <point x="1118" y="1173" type="line"/>
    </contour>
    <contour>
      <point x="893" y="0" type="line"/>
      <point x="893" y="146" type="line"/>
      <point x="651" y="146" type="line"/>
      <point x="651" y="1173" type="line"/>
      <point x="485" y="1173" type="line"/>
      <point x="485" y="322" type="line" smooth="yes"/>
      <point x="485" y="194"/>
      <point x="452" y="124"/>
      <point x="373" y="124" type="curve" smooth="yes"/>
      <point x="307" y="124"/>
      <point x="277" y="167"/>
      <point x="277" y="260" type="curve" smooth="yes"/>
      <point x="277" y="1173" type="line"/>
      <point x="112" y="1173" type="line"/>
      <point x="112" y="249" type="line" smooth="yes"/>
      <point x="112" y="64"/>
      <point x="182" y="-22"/>
      <point x="325" y="-22" type="curve" smooth="yes"/>
      <point x="456" y="-22"/>
      <point x="518" y="62"/>
      <point x="530" y="175" type="curve"/>
      <point x="535" y="175" type="line"/>
      <point x="534" y="0" type="line"/>
    </contour>
  </outline>
</glyph>
<glyph name="Ra.tm" format="2">
  <advance width="823"/>
  <unicode hex="0BB0"/>
  <note>
Ra.tm
</note>
  <anchor x="397" y="1243" name="top"/>
  <outline>
    <contour>
      <point x="681" y="1127" type="line"/>
      <point x="516" y="1127" type="line"/>
      <point x="516" y="-77" type="line"/>
      <point x="62" y="-150" type="line"/>
      <point x="62" y="-286" type="line"/>
      <point x="681" y="-198" type="line"/>
    </contour>
    <contour>
      <point x="651" y="1173" type="line"/>
      <point x="112" y="1173" type="line"/>
      <point x="112" y="0" type="line"/>
      <point x="277" y="0" type="line"/>
      <point x="277" y="1030" type="line"/>
      <point x="651" y="1030" type="line"/>
    </contour>
    <component base="RaBeak_Nonexporting" xOffset="438"/>
  </outline>
</glyph>
<glyph name="La.tm" format="2">
  <advance width="1417"/>
  <unicode hex="0BB2"/>
  <note>
La.tm
</note>
  <anchor x="829" y="1243" name="top"/>
  <outline>
    <contour>
      <point x="528" y="1199" type="curve" smooth="yes"/>
      <point x="243" y="1199"/>
      <point x="92" y="1021"/>
      <point x="92" y="684" type="curve" smooth="yes"/>
      <point x="92" y="279" type="line" smooth="yes"/>
      <point x="92" y="89"/>
      <point x="176" y="-22"/>
      <point x="354" y="-22" type="curve" smooth="yes"/>
      <point x="533" y="-22"/>
      <point x="614" y="87"/>
      <point x="614" y="274" type="curve" smooth="yes"/>
      <point x="614" y="552" type="line" smooth="yes"/>
      <point x="614" y="722"/>
      <point x="556" y="810"/>
      <point x="430" y="810" type="curve" smooth="yes"/>
      <point x="327" y="810"/>
      <point x="268" y="740"/>
      <point x="252" y="656" type="curve"/>
      <point x="244" y="656" type="line"/>
      <point x="246" y="546" type="line"/>
      <point x="260" y="616"/>
      <point x="302" y="660"/>
      <point x="358" y="660" type="curve" smooth="yes"/>
      <point x="425" y="660"/>
      <point x="454" y="612"/>
      <point x="454" y="519" type="curve" smooth="yes"/>
      <point x="454" y="268" type="line" smooth="yes"/>
      <point x="454" y="165"/>
      <point x="425" y="116"/>
      <point x="354" y="116" type="curve" smooth="yes"/>
      <point x="283" y="116"/>
      <point x="253" y="165"/>
      <point x="253" y="268" type="curve"/>
      <point x="253" y="656" type="line"/>
      <point x="247" y="656" type="line"/>
      <point x="247" y="672"/>
      <point x="247" y="685"/>
      <point x="247" y="701" type="curve" smooth="yes"/>
      <point x="247" y="931"/>
      <point x="337" y="1050"/>
      <point x="523" y="1050" type="curve" smooth="yes"/>
      <point x="691" y="1050"/>
      <point x="771" y="940"/>
      <point x="771" y="732" type="curve" smooth="yes"/>
      <point x="771" y="297" type="line" smooth="yes"/>
      <point x="771" y="93"/>
      <point x="852" y="-22"/>
      <point x="1047" y="-22" type="curve" smooth="yes"/>
      <point x="1240" y="-22"/>
      <point x="1321" y="93"/>
      <point x="1321" y="297" type="curve" smooth="yes"/>
      <point x="1321" y="866" type="line" smooth="yes"/>
      <point x="1321" y="1089"/>
      <point x="1253" y="1199"/>
      <point x="1058" y="1199" type="curve" smooth="yes"/>
      <point x="1030" y="1199"/>
      <point x="1003" y="1196"/>
      <point x="979" y="1190" type="curve"/>
      <point x="964" y="1045" type="line"/>
      <point x="980" y="1048"/>
      <point x="998" y="1050"/>
      <point x="1019" y="1050" type="curve" smooth="yes"/>
      <point x="1123" y="1050"/>
      <point x="1155" y="987"/>
      <point x="1155" y="858" type="curve" smooth="yes"/>
      <point x="1155" y="288" type="line" smooth="yes"/>
      <point x="1155" y="181"/>
      <point x="1124" y="126"/>
      <point x="1047" y="126" type="curve" smooth="yes"/>
      <point x="968" y="126"/>
      <point x="936" y="181"/>
      <point x="936" y="288" type="curve" smooth="yes"/>
      <point x="936" y="724" type="line" smooth="yes"/>
      <point x="936" y="1031"/>
      <point x="820" y="1199"/>
    </contour>
  </outline>
</glyph>
<glyph name="Llla.tm" format="2">
  <advance width="1162"/>
  <unicode hex="0BB4"/>
  <note>
Llla.tm
</note>
  <anchor x="593" y="1243" name="top"/>
  <outline>
    <contour>
      <point x="541" y="-540" type="curve" smooth="yes"/>
      <point x="725" y="-540"/>
      <point x="764" y="-449"/>
      <point x="815" y="-296" type="curve" smooth="yes"/>
      <point x="818" y="-287" type="line" smooth="yes"/>
      <point x="826" y="-264"/>
      <point x="831" y="-254"/>
      <point x="854" y="-254" type="curve" smooth="yes"/>
      <point x="939" y="-254" type="line"/>
      <point x="957" y="-130" type="line"/>
      <point x="797" y="-130" type="line" smooth="yes"/>
      <point x="696" y="-130"/>
      <point x="671" y="-95"/>
      <point x="671" y="1" type="curve" smooth="yes"/>
      <point x="671" y="105" type="line"/>
      <point x="514" y="105" type="line"/>
      <point x="514" y="-9" type="line" smooth="yes"/>
      <point x="514" y="-155"/>
      <point x="567" y="-221"/>
      <point x="690" y="-226" type="curve"/>
      <point x="690" y="-231" type="line"/>
      <point x="679" y="-236"/>
      <point x="672" y="-252"/>
      <point x="665" y="-276" type="curve" smooth="yes"/>
      <point x="662" y="-286" type="line" smooth="yes"/>
      <point x="637" y="-369"/>
      <point x="617" y="-412"/>
      <point x="542" y="-412" type="curve" smooth="yes"/>
      <point x="465" y="-412"/>
      <point x="424" y="-363"/>
      <point x="424" y="-259" type="curve" smooth="yes"/>
      <point x="424" y="-219"/>
      <point x="424" y="-184"/>
      <point x="424" y="-151" type="curve"/>
      <point x="268" y="-151" type="line"/>
      <point x="268" y="-180"/>
      <point x="268" y="-213"/>
      <point x="268" y="-251" type="curve" smooth="yes"/>
      <point x="268" y="-437"/>
      <point x="358" y="-540"/>
    </contour>
    <component base="Ma.tm"/>
  </outline>
</glyph>
<glyph name="Va.tm" format="2">
  <advance width="1417"/>
  <unicode hex="0BB5"/>
  <note>
Va.tm
</note>
  <anchor x="835" y="1243" name="top"/>
  <outline>
    <contour>
      <point x="1140" y="1173" type="line"/>
      <point x="1140" y="143" type="line"/>
      <point x="966" y="143" type="line"/>
      <point x="966" y="0" type="line"/>
      <point x="1305" y="0" type="line"/>
      <point x="1305" y="1173" type="line"/>
    </contour>
    <component base="Va_NonExporting" xOffset="3"/>
  </outline>
</glyph>
<glyph name="Sa.tm" format="2">
  <advance width="1811"/>
  <unicode hex="0BB8"/>
  <note>
Sa.tm
</note>
  <anchor x="1062" y="1243" name="top"/>
  <outline>
    <contour>
      <point x="509" y="1199" type="curve" smooth="yes"/>
      <point x="235" y="1199"/>
      <point x="92" y="1022"/>
      <point x="92" y="690" type="curve" smooth="yes"/>
      <point x="92" y="279" type="line" smooth="yes"/>
      <point x="92" y="89"/>
      <point x="176" y="-22"/>
      <point x="354" y="-22" type="curve" smooth="yes"/>
      <point x="533" y="-22"/>
      <point x="614" y="87"/>
      <point x="614" y="274" type="curve" smooth="yes"/>
      <point x="614" y="552" type="line" smooth="yes"/>
      <point x="614" y="722"/>
      <point x="556" y="810"/>
      <point x="430" y="810" type="curve" smooth="yes"/>
      <point x="327" y="810"/>
      <point x="268" y="740"/>
      <point x="252" y="656" type="curve"/>
      <point x="244" y="656" type="line"/>
      <point x="246" y="546" type="line"/>
      <point x="260" y="616"/>
      <point x="302" y="660"/>
      <point x="358" y="660" type="curve" smooth="yes"/>
      <point x="425" y="660"/>
      <point x="454" y="612"/>
      <point x="454" y="519" type="curve" smooth="yes"/>
      <point x="454" y="268" type="line" smooth="yes"/>
      <point x="454" y="165"/>
      <point x="425" y="116"/>
      <point x="354" y="116" type="curve" smooth="yes"/>
      <point x="283" y="116"/>
      <point x="253" y="165"/>
      <point x="253" y="268" type="curve"/>
      <point x="253" y="656" type="line"/>
      <point x="247" y="656" type="line"/>
      <point x="247" y="673"/>
      <point x="247" y="686"/>
      <point x="247" y="703" type="curve" smooth="yes"/>
      <point x="247" y="932"/>
      <point x="335" y="1050"/>
      <point x="522" y="1050" type="curve" smooth="yes"/>
      <point x="707" y="1050"/>
      <point x="777" y="926"/>
      <point x="777" y="693" type="curve" smooth="yes"/>
      <point x="777" y="0" type="line"/>
      <point x="942" y="0" type="line"/>
      <point x="942" y="896" type="line" smooth="yes"/>
      <point x="942" y="1003"/>
      <point x="977" y="1051"/>
      <point x="1053" y="1051" type="curve" smooth="yes"/>
      <point x="1126" y="1051"/>
      <point x="1161" y="1004"/>
      <point x="1161" y="904" type="curve" smooth="yes"/>
      <point x="1161" y="297" type="line" smooth="yes"/>
      <point x="1161" y="93"/>
      <point x="1242" y="-22"/>
      <point x="1439" y="-22" type="curve" smooth="yes"/>
      <point x="1633" y="-22"/>
      <point x="1715" y="93"/>
      <point x="1715" y="297" type="curve" smooth="yes"/>
      <point x="1715" y="879" type="line" smooth="yes"/>
      <point x="1715" y="1093"/>
      <point x="1647" y="1199"/>
      <point x="1458" y="1199" type="curve" smooth="yes"/>
      <point x="1433" y="1199"/>
      <point x="1409" y="1197"/>
      <point x="1389" y="1192" type="curve"/>
      <point x="1374" y="1048" type="line"/>
      <point x="1385" y="1049"/>
      <point x="1398" y="1050"/>
      <point x="1413" y="1050" type="curve" smooth="yes"/>
      <point x="1517" y="1050"/>
      <point x="1549" y="993"/>
      <point x="1549" y="872" type="curve" smooth="yes"/>
      <point x="1549" y="288" type="line" smooth="yes"/>
      <point x="1549" y="181"/>
      <point x="1519" y="126"/>
      <point x="1439" y="126" type="curve" smooth="yes"/>
      <point x="1358" y="126"/>
      <point x="1327" y="181"/>
      <point x="1327" y="288" type="curve" smooth="yes"/>
      <point x="1327" y="900" type="line" smooth="yes"/>
      <point x="1327" y="1094"/>
      <point x="1257" y="1199"/>
      <point x="1082" y="1199" type="curve" smooth="yes"/>
      <point x="919" y="1199"/>
      <point x="849" y="1099"/>
      <point x="849" y="941" type="curve" smooth="yes"/>
      <point x="849" y="917" type="line"/>
      <point x="844" y="917" type="line"/>
      <point x="821" y="1090"/>
      <point x="714" y="1199"/>
    </contour>
  </outline>
</glyph>
<glyph name="MatraIDflt.tm" format="2">
  <advance width="728"/>
  <unicode hex="0BBF"/>
  <note>
MatraIDflt.tm
</note>
  <outline>
    <contour>
      <point x="309" y="1699" type="curve" smooth="yes"/>
      <point x="95" y="1699"/>
      <point x="0" y="1582"/>
      <point x="0" y="1338" type="curve" smooth="yes"/>
      <point x="0" y="1311" type="line" smooth="yes"/>
      <point x="0" y="1249"/>
      <point x="11" y="1200"/>
      <point x="41" y="1165" type="curve"/>
      <point x="194" y="1165" type="line"/>
      <point x="168" y="1202"/>
      <point x="161" y="1238"/>
      <point x="161" y="1307" type="curve" smooth="yes"/>
      <point x="161" y="1337" type="line" smooth="yes"/>
      <point x="161" y="1487"/>
      <point x="199" y="1554"/>
      <point x="307" y="1554" type="curve" smooth="yes"/>
      <point x="415" y="1554"/>
      <point x="451" y="1487"/>
      <point x="451" y="1337" type="curve" smooth="yes"/>
      <point x="451" y="0" type="line"/>
      <point x="616" y="0" type="line"/>
      <point x="616" y="1333" type="line" smooth="yes"/>
      <point x="616" y="1580"/>
      <point x="526" y="1699"/>
    </contour>
  </outline>
</glyph>
<glyph name="MatraUDflt.tm" format="2">
  <advance width="763"/>
  <unicode hex="0BC1"/>
  <note>
MatraUDflt.tm
</note>
  <outline>
    <contour>
      <point x="22" y="1031" type="line"/>
      <point x="401" y="1031" type="line" smooth="yes"/>
      <point x="517" y="1031"/>
      <point x="553" y="970"/>
      <point x="553" y="850" type="curve" smooth="yes"/>
      <point x="553" y="613" type="line" smooth="yes"/>
      <point x="553" y="523"/>
      <point x="525" y="478"/>
      <point x="462" y="478" type="curve" smooth="yes"/>
      <point x="399" y="478"/>
      <point x="368" y="523"/>
      <point x="368" y="613" type="curve" smooth="yes"/>
      <point x="368" y="874" type="line" smooth="yes"/>
      <point x="368" y="952"/>
      <point x="377" y="1002"/>
      <point x="400" y="1037" type="curve"/>
      <point x="390" y="1034" type="line"/>
      <point x="240" y="997" type="line"/>
      <point x="220" y="962"/>
      <point x="215" y="912"/>
      <point x="215" y="840" type="curve" smooth="yes"/>
      <point x="215" y="608" type="line"/>
      <point x="215" y="439"/>
      <point x="292" y="347"/>
      <point x="462" y="347" type="curve" smooth="yes"/>
      <point x="632" y="347"/>
      <point x="706" y="442"/>
      <point x="706" y="616" type="curve" smooth="yes"/>
      <point x="706" y="836" type="line" smooth="yes"/>
      <point x="706" y="1048"/>
      <point x="615" y="1173"/>
      <point x="369" y="1173" type="curve" smooth="yes"/>
      <point x="22" y="1173" type="line"/>
    </contour>
  </outline>
</glyph>
<glyph name="MatraE.tm" format="2">
  <advance width="1288"/>
  <unicode hex="0BC6"/>
  <note>
MatraE.tm
</note>
  <outline>
    <contour>
      <point x="650" y="1403" type="curve" smooth="yes"/>
      <point x="287" y="1403"/>
      <point x="96" y="1204"/>
      <point x="96" y="785" type="curve" smooth="yes"/>
      <point x="96" y="419" type="line" smooth="yes"/>
      <point x="96" y="144"/>
      <point x="218" y="-18"/>
      <point x="520" y="-18" type="curve" smooth="yes"/>
      <point x="783" y="-18"/>
      <point x="880" y="110"/>
      <point x="880" y="328" type="curve" smooth="yes"/>
      <point x="880" y="572" type="line" smooth="yes"/>
      <point x="880" y="758"/>
      <point x="803" y="860"/>
      <point x="631" y="860" type="curve" smooth="yes"/>
      <point x="461" y="860"/>
      <point x="381" y="757"/>
      <point x="381" y="571" type="curve"/>
      <point x="381" y="353" type="line" smooth="yes"/>
      <point x="381" y="237"/>
      <point x="410" y="160"/>
      <point x="488" y="117" type="curve"/>
      <point x="488" y="101" type="line"/>
      <point x="583" y="107" type="line"/>
      <point x="548" y="147"/>
      <point x="535" y="205"/>
      <point x="535" y="280" type="curve" smooth="yes"/>
      <point x="535" y="584" type="line" smooth="yes"/>
      <point x="535" y="675"/>
      <point x="564" y="719"/>
      <point x="629" y="719" type="curve" smooth="yes"/>
      <point x="694" y="719"/>
      <point x="721" y="675"/>
      <point x="721" y="584" type="curve" smooth="yes"/>
      <point x="721" y="324" type="line" smooth="yes"/>
      <point x="721" y="188"/>
      <point x="685" y="113"/>
      <point x="554" y="113" type="curve" smooth="yes"/>
      <point x="542" y="113"/>
      <point x="531" y="114"/>
      <point x="513" y="115" type="curve"/>
      <point x="488" y="119" type="line"/>
      <point x="488" y="113" type="line"/>
      <point x="323" y="122"/>
      <point x="259" y="232"/>
      <point x="259" y="411" type="curve" smooth="yes"/>
      <point x="259" y="791" type="line"/>
      <point x="259" y="1107"/>
      <point x="384" y="1254"/>
      <point x="650" y="1254" type="curve" smooth="yes"/>
      <point x="931" y="1254"/>
      <point x="1017" y="1101"/>
      <point x="1017" y="790" type="curve"/>
      <point x="1017" y="0" type="line"/>
      <point x="1182" y="0" type="line"/>
      <point x="1182" y="784" type="line"/>
      <point x="1182" y="1195"/>
      <point x="1050" y="1403"/>
    </contour>
  </outline>
</glyph>
<glyph name="MatraAi.tm" format="2">
  <advance width="1761"/>
  <unicode hex="0BC8"/>
  <note>
MatraAi.tm
</note>
  <outline>
    <contour>
      <point x="1348" y="-10" type="line"/>
      <point x="1367" y="-15"/>
      <point x="1398" y="-18"/>
      <point x="1423" y="-18" type="curve" smooth="yes"/>
      <point x="1593" y="-18"/>
      <point x="1667" y="88"/>
      <point x="1667" y="291" type="curve" smooth="yes"/>
      <point x="1667" y="734" type="line" smooth="yes"/>
      <point x="1667" y="1054"/>
      <point x="1568" y="1203"/>
      <point x="1278" y="1203" type="curve" smooth="yes"/>
      <point x="1128" y="1203"/>
      <point x="1017" y="1153"/>
      <point x="947" y="1090" type="curve"/>
      <point x="1032" y="991" type="line"/>
      <point x="1098" y="1037"/>
      <point x="1175" y="1061"/>
      <point x="1259" y="1061" type="curve" smooth="yes"/>
      <point x="1444" y="1061"/>
      <point x="1502" y="958"/>
      <point x="1502" y="727" type="curve" smooth="yes"/>
      <point x="1502" y="285" type="line" smooth="yes"/>
      <point x="1502" y="172"/>
      <point x="1467" y="120"/>
      <point x="1385" y="120" type="curve" smooth="yes"/>
      <point x="1365" y="120"/>
      <point x="1347" y="122"/>
      <point x="1331" y="127" type="curve"/>
    </contour>
    <contour>
      <point x="694" y="1205" type="curve" smooth="yes"/>
      <point x="297" y="1205"/>
      <point x="88" y="1013"/>
      <point x="88" y="638" type="curve" smooth="yes"/>
      <point x="88" y="279" type="line" smooth="yes"/>
      <point x="88" y="89"/>
      <point x="172" y="-22"/>
      <point x="350" y="-22" type="curve" smooth="yes"/>
      <point x="529" y="-22"/>
      <point x="610" y="87"/>
      <point x="610" y="274" type="curve" smooth="yes"/>
      <point x="610" y="552" type="line" smooth="yes"/>
      <point x="610" y="722"/>
      <point x="552" y="810"/>
      <point x="426" y="810" type="curve" smooth="yes"/>
      <point x="323" y="810"/>
      <point x="264" y="740"/>
      <point x="248" y="656" type="curve"/>
      <point x="240" y="656" type="line"/>
      <point x="242" y="546" type="line"/>
      <point x="256" y="616"/>
      <point x="298" y="660"/>
      <point x="354" y="660" type="curve" smooth="yes"/>
      <point x="421" y="660"/>
      <point x="450" y="612"/>
      <point x="450" y="519" type="curve" smooth="yes"/>
      <point x="450" y="268" type="line" smooth="yes"/>
      <point x="450" y="165"/>
      <point x="421" y="116"/>
      <point x="350" y="116" type="curve" smooth="yes"/>
      <point x="279" y="116"/>
      <point x="249" y="165"/>
      <point x="249" y="268" type="curve" smooth="yes"/>
      <point x="249" y="656" type="line"/>
      <point x="243" y="656" type="line"/>
      <point x="243" y="657"/>
      <point x="243" y="657"/>
      <point x="243" y="658" type="curve" smooth="yes"/>
      <point x="243" y="927"/>
      <point x="385" y="1059"/>
      <point x="694" y="1059" type="curve" smooth="yes"/>
      <point x="844" y="1059"/>
      <point x="932" y="1033"/>
      <point x="992" y="1000" type="curve"/>
      <point x="1002" y="997" type="line"/>
      <point x="1101" y="930"/>
      <point x="1127" y="826"/>
      <point x="1127" y="628" type="curve" smooth="yes"/>
      <point x="1127" y="278" type="line" smooth="yes"/>
      <point x="1127" y="170"/>
      <point x="1094" y="124"/>
      <point x="1022" y="124" type="curve" smooth="yes"/>
      <point x="947" y="124"/>
      <point x="912" y="170"/>
      <point x="912" y="277" type="curve" smooth="yes"/>
      <point x="912" y="627" type="line" smooth="yes"/>
      <point x="912" y="824"/>
      <point x="942" y="929"/>
      <point x="1047" y="996" type="curve"/>
      <point x="966" y="1090" type="line"/>
      <point x="804" y="1011"/>
      <point x="750" y="855"/>
      <point x="750" y="620" type="curve" smooth="yes"/>
      <point x="750" y="281" type="line" smooth="yes"/>
      <point x="750" y="88"/>
      <point x="835" y="-22"/>
      <point x="1022" y="-22" type="curve" smooth="yes"/>
      <point x="1207" y="-22"/>
      <point x="1290" y="85"/>
      <point x="1290" y="281" type="curve" smooth="yes"/>
      <point x="1290" y="620" type="line" smooth="yes"/>
      <point x="1290" y="854"/>
      <point x="1239" y="1006"/>
      <point x="1107" y="1084" type="curve"/>
      <point x="1106" y="1093" type="line"/>
      <point x="1026" y="1158"/>
      <point x="888" y="1205"/>
    </contour>
  </outline>
</glyph>
<glyph name="PulliDflt.tm" format="2">
  <unicode hex="0BCD"/>
  <note>
PulliDflt.tm
</note>
  <anchor x="87" y="1243" name="_top"/>
  <outline>
    <contour>
      <point x="87" y="1305" type="curve" smooth="yes"/>
      <point x="150" y="1305"/>
      <point x="174" y="1345"/>
      <point x="174" y="1424" type="curve" smooth="yes"/>
      <point x="174" y="1459" type="line" smooth="yes"/>
      <point x="174" y="1535"/>
      <point x="150" y="1576"/>
      <point x="87" y="1576" type="curve" smooth="yes"/>
      <point x="25" y="1576"/>
      <point x="-1" y="1535"/>
      <point x="-1" y="1459" type="curve" smooth="yes"/>
      <point x="-1" y="1424" type="line" smooth="yes"/>
      <point x="-1" y="1345"/>
      <point x="23" y="1305"/>
    </contour>
  </outline>
</glyph>
<glyph name="Zero.tm" format="2">
  <advance width="777"/>
  <unicode hex="0BE6"/>
  <note>
Zero.tm
</note>
  <outline>
    <contour>
      <point x="389" y="1055" type="curve" smooth="yes"/>
      <point x="490" y="1055"/>
      <point x="522" y="983"/>
      <point x="522" y="826" type="curve" smooth="yes"/>
      <point x="522" y="349" type="line" smooth="yes"/>
      <point x="522" y="195"/>
      <point x="490" y="124"/>
      <point x="389" y="124" type="curve" smooth="yes"/>
      <point x="290" y="124"/>
      <point x="255" y="195"/>
      <point x="255" y="349" type="curve" smooth="yes"/>
      <point x="255" y="826" type="line" smooth="yes"/>
      <point x="255" y="983"/>
      <point x="290" y="1055"/>
    </contour>
    <contour>
      <point x="391" y="1199" type="curve" smooth="yes"/>
      <point x="169" y="1199"/>
      <point x="90" y="1068"/>
      <point x="90" y="795" type="curve" smooth="yes"/>
      <point x="90" y="380" type="line" smooth="yes"/>
      <point x="90" y="109"/>
      <point x="169" y="-20"/>
      <point x="391" y="-20" type="curve" smooth="yes"/>
      <point x="609" y="-20"/>
      <point x="687" y="109"/>
      <point x="687" y="380" type="curve" smooth="yes"/>
      <point x="687" y="795" type="line" smooth="yes"/>
      <point x="687" y="1068"/>
      <point x="609" y="1199"/>
    </contour>
  </outline>
</glyph>
<glyph name="Four.tm" format="2">
  <advance width="1070"/>
  <unicode hex="0BEA"/>
  <note>
Four.tm
</note>
  <outline>
    <contour>
      <point x="629" y="616" type="line"/>
      <point x="976" y="616" type="line"/>
      <point x="976" y="755" type="line"/>
      <point x="629" y="755" type="line"/>
    </contour>
    <contour>
      <point x="874" y="1173" type="line"/>
      <point x="874" y="616" type="line"/>
      <point x="1022" y="616" type="line"/>
      <point x="1022" y="1173" type="line"/>
    </contour>
    <component base="KaComponent_Nonexporting" xOffset="39"/>
    <component base="KaBeak_Nonexporting" xOffset="609"/>
  </outline>
</glyph>
<glyph name="Five.tm" format="2">
  <advance width="1550"/>
  <unicode hex="0BEB"/>
  <note>
Five.tm
</note>
  <outline>
    <contour>
      <point x="901" y="1127" type="line"/>
      <point x="901" y="0" type="line"/>
      <point x="1066" y="0" type="line"/>
      <point x="1066" y="1127" type="line"/>
    </contour>
    <contour>
      <point x="1259" y="810" type="curve" smooth="yes"/>
      <point x="1149" y="810"/>
      <point x="1089" y="743"/>
      <point x="1070" y="653" type="curve"/>
      <point x="1046" y="653" type="line"/>
      <point x="1046" y="508" type="line"/>
      <point x="1059" y="508" type="line"/>
      <point x="1070" y="599"/>
      <point x="1114" y="660"/>
      <point x="1187" y="660" type="curve" smooth="yes"/>
      <point x="1273" y="660"/>
      <point x="1300" y="597"/>
      <point x="1300" y="467" type="curve" smooth="yes"/>
      <point x="1300" y="292" type="line" smooth="yes"/>
      <point x="1300" y="-91"/>
      <point x="1176" y="-274"/>
      <point x="814" y="-274" type="curve" smooth="yes"/>
      <point x="809" y="-274" type="line" smooth="yes"/>
      <point x="431" y="-274"/>
      <point x="270" y="-87"/>
      <point x="270" y="294" type="curve" smooth="yes"/>
      <point x="270" y="838" type="line" smooth="yes"/>
      <point x="270" y="1282"/>
      <point x="449" y="1482"/>
      <point x="878" y="1482" type="curve" smooth="yes"/>
      <point x="1081" y="1482"/>
      <point x="1239" y="1445"/>
      <point x="1368" y="1383" type="curve"/>
      <point x="1352" y="1534" type="line"/>
      <point x="1226" y="1595"/>
      <point x="1053" y="1630"/>
      <point x="872" y="1630" type="curve" smooth="yes"/>
      <point x="347" y="1630"/>
      <point x="106" y="1363"/>
      <point x="106" y="825" type="curve" smooth="yes"/>
      <point x="106" y="307" type="line" smooth="yes"/>
      <point x="106" y="-190"/>
      <point x="341" y="-424"/>
      <point x="810" y="-424" type="curve" smooth="yes"/>
      <point x="813" y="-424" type="line" smooth="yes"/>
      <point x="1281" y="-424"/>
      <point x="1464" y="-182"/>
      <point x="1464" y="289" type="curve" smooth="yes"/>
      <point x="1464" y="501" type="line" smooth="yes"/>
      <point x="1464" y="706"/>
      <point x="1406" y="810"/>
    </contour>
    <contour>
      <point x="1146" y="1173" type="line"/>
      <point x="506" y="1173" type="line"/>
      <point x="506" y="0" type="line"/>
      <point x="671" y="0" type="line"/>
      <point x="671" y="1030" type="line"/>
      <point x="1146" y="1030" type="line"/>
    </contour>
    <component base="RaBeak_Nonexporting" xOffset="946"/>
  </outline>
</glyph>
<glyph name="Six.tm" format="2">
  <advance width="1489"/>
  <unicode hex="0BEC"/>
  <note>
Six.tm
</note>
  <outline>
    <contour>
      <point x="629" y="616" type="line"/>
      <point x="695" y="616" type="line" smooth="yes"/>
      <point x="803" y="616"/>
      <point x="832" y="573"/>
      <point x="832" y="456" type="curve" smooth="yes"/>
      <point x="832" y="0" type="line"/>
      <point x="994" y="0" type="line"/>
      <point x="994" y="456" type="line" smooth="yes"/>
      <point x="994" y="573"/>
      <point x="1020" y="616"/>
      <point x="1119" y="616" type="curve" smooth="yes"/>
      <point x="1479" y="616" type="line"/>
      <point x="1467" y="755" type="line"/>
      <point x="1113" y="755" type="line" smooth="yes"/>
      <point x="975" y="755"/>
      <point x="927" y="697"/>
      <point x="915" y="574" type="curve"/>
      <point x="910" y="574" type="line"/>
      <point x="898" y="697"/>
      <point x="847" y="755"/>
      <point x="701" y="755" type="curve" smooth="yes"/>
      <point x="629" y="755" type="line"/>
    </contour>
    <contour>
      <point x="1178" y="640" type="line"/>
      <point x="1178" y="0" type="line"/>
      <point x="1340" y="0" type="line"/>
      <point x="1340" y="640" type="line"/>
    </contour>
    <component base="KaComponent_Nonexporting" xOffset="39"/>
    <component base="KaBeak_Nonexporting" xOffset="691"/>
  </outline>
</glyph>
<glyph name="Eight.tm" format="2">
  <advance width="1367"/>
  <unicode hex="0BEE"/>
  <note>
Eight.tm
</note>
  <outline>
    <contour>
      <point x="1090" y="1173" type="line"/>
      <point x="1090" y="-46" type="line"/>
      <point x="1255" y="-46" type="line"/>
      <point x="1255" y="1173" type="line"/>
    </contour>
    <contour>
      <point x="592" y="1209" type="curve" smooth="yes"/>
      <point x="355" y="1209"/>
      <point x="264" y="1067"/>
      <point x="264" y="808" type="curve" smooth="yes"/>
      <point x="264" y="741"/>
      <point x="264" y="675"/>
      <point x="264" y="607" type="curve"/>
      <point x="422" y="607" type="line"/>
      <point x="422" y="677"/>
      <point x="422" y="745"/>
      <point x="422" y="815" type="curve" smooth="yes"/>
      <point x="422" y="978"/>
      <point x="461" y="1066"/>
      <point x="592" y="1066" type="curve" smooth="yes"/>
      <point x="722" y="1066"/>
      <point x="761" y="978"/>
      <point x="761" y="815" type="curve" smooth="yes"/>
      <point x="761" y="428" type="line" smooth="yes"/>
      <point x="761" y="165"/>
      <point x="693" y="52"/>
      <point x="497" y="52" type="curve" smooth="yes"/>
      <point x="495" y="52" type="line" smooth="yes"/>
      <point x="308" y="52"/>
      <point x="217" y="162"/>
      <point x="217" y="375" type="curve" smooth="yes"/>
      <point x="217" y="476" type="line" smooth="yes"/>
      <point x="217" y="491"/>
      <point x="217" y="505"/>
      <point x="217" y="521" type="curve"/>
      <point x="1195" y="521" type="line"/>
      <point x="1195" y="664" type="line"/>
      <point x="56" y="664" type="line"/>
      <point x="56" y="626"/>
      <point x="56" y="592"/>
      <point x="56" y="548" type="curve" smooth="yes"/>
      <point x="56" y="421" type="line" smooth="yes"/>
      <point x="56" y="90"/>
      <point x="203" y="-90"/>
      <point x="496" y="-90" type="curve" smooth="yes"/>
      <point x="500" y="-90" type="line" smooth="yes"/>
      <point x="809" y="-90"/>
      <point x="919" y="91"/>
      <point x="919" y="434" type="curve" smooth="yes"/>
      <point x="919" y="808" type="line" smooth="yes"/>
      <point x="919" y="1067"/>
      <point x="836" y="1209"/>
    </contour>
  </outline>
</glyph>
<glyph name="Nine.tm" format="2">
  <advance width="1444"/>
  <unicode hex="0BEF"/>
  <note>
Nine.tm
</note>
  <outline>
    <contour>
      <point x="632" y="616" type="line"/>
      <point x="698" y="616" type="line" smooth="yes"/>
      <point x="804" y="616"/>
      <point x="835" y="571"/>
      <point x="835" y="456" type="curve" smooth="yes"/>
      <point x="835" y="0" type="line"/>
      <point x="998" y="0" type="line"/>
      <point x="998" y="523" type="line" smooth="yes"/>
      <point x="998" y="628"/>
      <point x="1035" y="677"/>
      <point x="1104" y="677" type="curve" smooth="yes"/>
      <point x="1175" y="677"/>
      <point x="1205" y="628"/>
      <point x="1205" y="532" type="curve" smooth="yes"/>
      <point x="1205" y="322" type="line" smooth="yes"/>
      <point x="1205" y="203"/>
      <point x="1193" y="94"/>
      <point x="1155" y="0" type="curve"/>
      <point x="1319" y="0" type="line"/>
      <point x="1354" y="87"/>
      <point x="1366" y="190"/>
      <point x="1366" y="354" type="curve" smooth="yes"/>
      <point x="1366" y="554" type="line" smooth="yes"/>
      <point x="1366" y="735"/>
      <point x="1297" y="827"/>
      <point x="1139" y="827" type="curve" smooth="yes"/>
      <point x="988" y="827"/>
      <point x="913" y="736"/>
      <point x="913" y="588" type="curve" smooth="yes"/>
      <point x="913" y="574" type="line"/>
      <point x="908" y="574" type="line"/>
      <point x="896" y="697"/>
      <point x="847" y="755"/>
      <point x="704" y="755" type="curve" smooth="yes"/>
      <point x="632" y="755" type="line"/>
    </contour>
    <component base="KaComponent_Nonexporting" xOffset="39"/>
    <component base="KaBeak_Nonexporting" xOffset="691"/>
  </outline>
</glyph>
<glyph name="Ten.tm" format="2">
  <advance width="1165"/>
  <unicode hex="0BF0"/>
  <note>
Ten.tm
</note>
  <outline>
    <contour>
      <point x="537" y="1520" type="curve" smooth="yes"/>
      <point x="389" y="1520"/>
      <point x="265" y="1520"/>
      <point x="118" y="1520" type="curve"/>
      <point x="97" y="1377" type="line"/>
      <point x="247" y="1377"/>
      <point x="374" y="1377"/>
      <point x="525" y="1377" type="curve" smooth="yes"/>
      <point x="815" y="1377"/>
      <point x="896" y="1286"/>
      <point x="896" y="965" type="curve" smooth="yes"/>
      <point x="896" y="293" type="line" smooth="yes"/>
      <point x="896" y="172"/>
      <point x="860" y="123"/>
      <point x="780" y="123" type="curve" smooth="yes"/>
      <point x="696" y="123"/>
      <point x="658" y="172"/>
      <point x="658" y="293" type="curve" smooth="yes"/>
      <point x="658" y="1173" type="line"/>
      <point x="493" y="1173" type="line"/>
      <point x="493" y="280" type="line"/>
      <point x="493" y="175"/>
      <point x="464" y="124"/>
      <point x="385" y="124" type="curve" smooth="yes"/>
      <point x="312" y="124"/>
      <point x="276" y="171"/>
      <point x="276" y="280" type="curve" smooth="yes"/>
      <point x="276" y="1173" type="line"/>
      <point x="111" y="1173" type="line"/>
      <point x="111" y="283" type="line" smooth="yes"/>
      <point x="111" y="73"/>
      <point x="196" y="-22"/>
      <point x="359" y="-22" type="curve" smooth="yes"/>
      <point x="498" y="-22"/>
      <point x="562" y="56"/>
      <point x="574" y="188" type="curve"/>
      <point x="580" y="188" type="line"/>
      <point x="592" y="56"/>
      <point x="662" y="-22"/>
      <point x="815" y="-22" type="curve" smooth="yes"/>
      <point x="986" y="-22"/>
      <point x="1061" y="77"/>
      <point x="1061" y="285" type="curve" smooth="yes"/>
      <point x="1061" y="966" type="line" smooth="yes"/>
      <point x="1061" y="1367"/>
      <point x="946" y="1520"/>
    </contour>
  </outline>
</glyph>
<glyph name="Hundred.tm" format="2">
  <advance width="1205"/>
  <unicode hex="0BF1"/>
  <note>
Hundred.tm
</note>
  <outline>
    <contour>
      <point x="895" y="1127" type="line"/>
      <point x="895" y="0" type="line"/>
      <point x="1060" y="0" type="line"/>
      <point x="1060" y="1127" type="line"/>
    </contour>
    <contour>
      <point x="1006" y="1173" type="line"/>
      <point x="541" y="1173" type="line"/>
      <point x="541" y="1018" type="line"/>
      <point x="537" y="1018" type="line"/>
      <point x="525" y="1126"/>
      <point x="466" y="1199"/>
      <point x="339" y="1199" type="curve" smooth="yes"/>
      <point x="186" y="1199"/>
      <point x="107" y="1108"/>
      <point x="107" y="907" type="curve" smooth="yes"/>
      <point x="107" y="0" type="line"/>
      <point x="272" y="0" type="line"/>
      <point x="272" y="891" type="line" smooth="yes"/>
      <point x="272" y="998"/>
      <point x="308" y="1046"/>
      <point x="382" y="1046" type="curve" smooth="yes"/>
      <point x="462" y="1046"/>
      <point x="491" y="991"/>
      <point x="491" y="881" type="curve" smooth="yes"/>
      <point x="491" y="0" type="line"/>
      <point x="656" y="0" type="line"/>
      <point x="656" y="1030" type="line"/>
      <point x="1006" y="1030" type="line"/>
    </contour>
    <component base="RaBeak_Nonexporting" xOffset="820"/>
  </outline>
</glyph>
<glyph name="YearSign.tm" format="2">
  <advance width="3340"/>
  <unicode hex="0BF5"/>
  <note>
YearSign.tm
</note>
  <outline>
    <contour>
      <point x="1954" y="1127" type="line"/>
      <point x="1954" y="0" type="line"/>
      <point x="2119" y="0" type="line"/>
      <point x="2119" y="1127" type="line"/>
    </contour>
    <contour>
      <point x="1400" y="0" type="line"/>
      <point x="1640" y="0" type="line"/>
      <point x="1640" y="143" type="line"/>
      <point x="1400" y="143" type="line"/>
    </contour>
    <contour>
      <point x="1166" y="1636" type="line" smooth="yes"/>
      <point x="377" y="1636"/>
      <point x="101" y="1337"/>
      <point x="101" y="736" type="curve" smooth="yes"/>
      <point x="101" y="384" type="line" smooth="yes"/>
      <point x="101" y="-188"/>
      <point x="371" y="-477"/>
      <point x="1138" y="-477" type="curve" smooth="yes"/>
      <point x="1587" y="-477" type="line" smooth="yes"/>
      <point x="2277" y="-477"/>
      <point x="2519" y="-215"/>
      <point x="2519" y="306" type="curve" smooth="yes"/>
      <point x="2519" y="501" type="line" smooth="yes"/>
      <point x="2519" y="706"/>
      <point x="2461" y="810"/>
      <point x="2313" y="810" type="curve" smooth="yes"/>
      <point x="2203" y="810"/>
      <point x="2142" y="743"/>
      <point x="2124" y="653" type="curve"/>
      <point x="2099" y="653" type="line"/>
      <point x="2099" y="508" type="line"/>
      <point x="2112" y="508" type="line"/>
      <point x="2123" y="599"/>
      <point x="2167" y="660"/>
      <point x="2241" y="660" type="curve" smooth="yes"/>
      <point x="2328" y="660"/>
      <point x="2354" y="597"/>
      <point x="2354" y="467" type="curve" smooth="yes"/>
      <point x="2354" y="311" type="line" smooth="yes"/>
      <point x="2354" y="-123"/>
      <point x="2179" y="-328"/>
      <point x="1593" y="-328" type="curve" smooth="yes"/>
      <point x="1132" y="-328" type="line" smooth="yes"/>
      <point x="463" y="-328"/>
      <point x="266" y="-97"/>
      <point x="266" y="391" type="curve" smooth="yes"/>
      <point x="266" y="731" type="line" smooth="yes"/>
      <point x="266" y="1245"/>
      <point x="470" y="1487"/>
      <point x="1160" y="1487" type="curve" smooth="yes"/>
      <point x="1861" y="1487" type="line" smooth="yes"/>
      <point x="2502" y="1487"/>
      <point x="2689" y="1228"/>
      <point x="2689" y="685" type="curve" smooth="yes"/>
      <point x="2689" y="297" type="line" smooth="yes"/>
      <point x="2689" y="93"/>
      <point x="2771" y="-22"/>
      <point x="2967" y="-22" type="curve" smooth="yes"/>
      <point x="3162" y="-22"/>
      <point x="3244" y="93"/>
      <point x="3244" y="297" type="curve" smooth="yes"/>
      <point x="3244" y="866" type="line" smooth="yes"/>
      <point x="3244" y="1089"/>
      <point x="3175" y="1199"/>
      <point x="2981" y="1199" type="curve" smooth="yes"/>
      <point x="2955" y="1199"/>
      <point x="2931" y="1197"/>
      <point x="2908" y="1192" type="curve"/>
      <point x="2893" y="1047" type="line"/>
      <point x="2907" y="1049"/>
      <point x="2923" y="1050"/>
      <point x="2941" y="1050" type="curve" smooth="yes"/>
      <point x="3045" y="1050"/>
      <point x="3077" y="987"/>
      <point x="3077" y="858" type="curve" smooth="yes"/>
      <point x="3077" y="288" type="line" smooth="yes"/>
      <point x="3077" y="181"/>
      <point x="3046" y="126"/>
      <point x="2967" y="126" type="curve" smooth="yes"/>
      <point x="2886" y="126"/>
      <point x="2854" y="181"/>
      <point x="2854" y="288" type="curve" smooth="yes"/>
      <point x="2854" y="690" type="line" smooth="yes"/>
      <point x="2854" y="1319"/>
      <point x="2595" y="1636"/>
      <point x="1855" y="1636" type="curve" smooth="yes"/>
    </contour>
    <contour>
      <point x="2201" y="1173" type="line"/>
      <point x="1560" y="1173" type="line"/>
      <point x="1560" y="0" type="line"/>
      <point x="1724" y="0" type="line"/>
      <point x="1724" y="1030" type="line"/>
      <point x="2201" y="1030" type="line"/>
    </contour>
    <component base="Va_NonExporting" xOffset="429"/>
    <component base="RaBeak_Nonexporting" xOffset="1988"/>
  </outline>
</glyph>
<glyph name="DebitSign.tm" format="2">
  <advance width="1261"/>
  <unicode hex="0BF6"/>
  <note>
DebitSign.tm
</note>
  <anchor x="431" y="1243" name="top"/>
  <outline>
    <contour>
      <point x="984" y="1173" type="line"/>
      <point x="984" y="-227" type="line"/>
      <point x="1149" y="-227" type="line"/>
      <point x="1149" y="1173" type="line"/>
    </contour>
    <contour>
      <point x="424" y="-588" type="curve" smooth="yes"/>
      <point x="636" y="-588"/>
      <point x="727" y="-460"/>
      <point x="746" y="-262" type="curve"/>
      <point x="751" y="-220" type="line"/>
      <point x="753" y="-165"/>
      <point x="754" y="-87"/>
      <point x="754" y="0" type="curve" smooth="yes"/>
      <point x="754" y="83" type="line"/>
      <point x="597" y="83" type="line"/>
      <point x="597" y="0" type="line" smooth="yes"/>
      <point x="597" y="-88"/>
      <point x="595" y="-165"/>
      <point x="593" y="-219" type="curve"/>
      <point x="591" y="-263" type="line"/>
      <point x="584" y="-388"/>
      <point x="532" y="-465"/>
      <point x="412" y="-465" type="curve" smooth="yes"/>
      <point x="286" y="-465"/>
      <point x="235" y="-386"/>
      <point x="227" y="-292" type="curve"/>
      <point x="684" y="-292" type="line"/>
      <point x="719" y="-302" type="line"/>
      <point x="1149" y="-302" type="line"/>
      <point x="1149" y="-168" type="line"/>
      <point x="70" y="-168" type="line"/>
      <point x="74" y="-441"/>
      <point x="180" y="-588"/>
    </contour>
    <component base="Pa.tm"/>
  </outline>
</glyph>
<glyph name="CreditSign.tm" format="2">
  <advance width="1842"/>
  <unicode hex="0BF7"/>
  <note>
CreditSign.tm
</note>
  <outline>
    <contour>
      <point x="1435" y="826" type="curve" smooth="yes"/>
      <point x="1283" y="826"/>
      <point x="1208" y="735"/>
      <point x="1208" y="588" type="curve" smooth="yes"/>
      <point x="1208" y="574" type="line"/>
      <point x="1203" y="574" type="line"/>
      <point x="1191" y="697"/>
      <point x="1142" y="755"/>
      <point x="999" y="755" type="curve" smooth="yes"/>
      <point x="915" y="755" type="line"/>
      <point x="915" y="616" type="line"/>
      <point x="994" y="616" type="line"/>
      <point x="1100" y="616"/>
      <point x="1130" y="571"/>
      <point x="1130" y="456" type="curve" smooth="yes"/>
      <point x="1130" y="0" type="line"/>
      <point x="1293" y="0" type="line"/>
      <point x="1293" y="528" type="line" smooth="yes"/>
      <point x="1293" y="633"/>
      <point x="1329" y="682"/>
      <point x="1399" y="682" type="curve" smooth="yes"/>
      <point x="1470" y="682"/>
      <point x="1500" y="633"/>
      <point x="1500" y="537" type="curve" smooth="yes"/>
      <point x="1500" y="326" type="line" smooth="yes"/>
      <point x="1500" y="182"/>
      <point x="1480" y="101"/>
      <point x="1428" y="12" type="curve"/>
      <point x="1428" y="0" type="line"/>
      <point x="1834" y="0" type="line"/>
      <point x="1850" y="145" type="line"/>
      <point x="1592" y="145" type="line"/>
      <point x="1598" y="90" type="line"/>
      <point x="1645" y="164"/>
      <point x="1661" y="225"/>
      <point x="1661" y="358" type="curve" smooth="yes"/>
      <point x="1661" y="554" type="line" smooth="yes"/>
      <point x="1661" y="734"/>
      <point x="1592" y="826"/>
    </contour>
    <component base="VowelE.tm"/>
  </outline>
</glyph>
<glyph name="AsAboveSign.tm" format="2">
  <advance width="2721"/>
  <unicode hex="0BF8"/>
  <note>
AsAboveSign.tm
</note>
  <outline>
    <contour>
      <point x="96" y="765" type="curve" smooth="yes"/>
      <point x="96" y="419" type="line" smooth="yes"/>
      <point x="96" y="144"/>
      <point x="218" y="-18"/>
      <point x="520" y="-18" type="curve" smooth="yes"/>
      <point x="783" y="-18"/>
      <point x="880" y="110"/>
      <point x="880" y="328" type="curve" smooth="yes"/>
      <point x="880" y="572" type="line" smooth="yes"/>
      <point x="880" y="758"/>
      <point x="803" y="860"/>
      <point x="631" y="860" type="curve" smooth="yes"/>
      <point x="461" y="860"/>
      <point x="381" y="757"/>
      <point x="381" y="571" type="curve"/>
      <point x="381" y="353" type="line" smooth="yes"/>
      <point x="381" y="237"/>
      <point x="410" y="160"/>
      <point x="488" y="117" type="curve"/>
      <point x="488" y="101" type="line"/>
      <point x="583" y="107" type="line"/>
      <point x="548" y="147"/>
      <point x="535" y="205"/>
      <point x="535" y="280" type="curve" smooth="yes"/>
      <point x="535" y="584" type="line" smooth="yes"/>
      <point x="535" y="675"/>
      <point x="564" y="719"/>
      <point x="629" y="719" type="curve" smooth="yes"/>
      <point x="694" y="719"/>
      <point x="721" y="675"/>
      <point x="721" y="584" type="curve" smooth="yes"/>
      <point x="721" y="324" type="line" smooth="yes"/>
      <point x="721" y="188"/>
      <point x="685" y="113"/>
      <point x="554" y="113" type="curve" smooth="yes"/>
      <point x="542" y="113"/>
      <point x="531" y="114"/>
      <point x="513" y="115" type="curve"/>
      <point x="488" y="119" type="line"/>
      <point x="488" y="113" type="line"/>
      <point x="323" y="122"/>
      <point x="259" y="232"/>
      <point x="259" y="411" type="curve" smooth="yes"/>
      <point x="259" y="771" type="line" smooth="yes"/>
      <point x="259" y="1106"/>
      <point x="391" y="1262"/>
      <point x="673" y="1262" type="curve" smooth="yes"/>
      <point x="951" y="1262"/>
      <point x="1057" y="1106"/>
      <point x="1061" y="843" type="curve"/>
      <point x="1176" y="987" type="line"/>
      <point x="1153" y="1234"/>
      <point x="989" y="1411"/>
      <point x="672" y="1411" type="curve" smooth="yes"/>
      <point x="294" y="1411"/>
      <point x="96" y="1203"/>
    </contour>
    <contour>
      <point x="1011" y="684" type="curve" smooth="yes"/>
      <point x="1011" y="279" type="line" smooth="yes"/>
      <point x="1011" y="89"/>
      <point x="1095" y="-22"/>
      <point x="1272" y="-22" type="curve" smooth="yes"/>
      <point x="1452" y="-22"/>
      <point x="1532" y="87"/>
      <point x="1532" y="274" type="curve" smooth="yes"/>
      <point x="1532" y="552" type="line" smooth="yes"/>
      <point x="1532" y="722"/>
      <point x="1475" y="810"/>
      <point x="1349" y="810" type="curve" smooth="yes"/>
      <point x="1246" y="810"/>
      <point x="1186" y="740"/>
      <point x="1170" y="656" type="curve"/>
      <point x="1162" y="656" type="line"/>
      <point x="1165" y="546" type="line"/>
      <point x="1179" y="616"/>
      <point x="1220" y="660"/>
      <point x="1277" y="660" type="curve" smooth="yes"/>
      <point x="1343" y="660"/>
      <point x="1372" y="612"/>
      <point x="1372" y="519" type="curve" smooth="yes"/>
      <point x="1372" y="268" type="line" smooth="yes"/>
      <point x="1372" y="165"/>
      <point x="1343" y="116"/>
      <point x="1272" y="116" type="curve" smooth="yes"/>
      <point x="1201" y="116"/>
      <point x="1171" y="165"/>
      <point x="1171" y="268" type="curve"/>
      <point x="1171" y="656" type="line"/>
      <point x="1166" y="656" type="line"/>
      <point x="1166" y="672"/>
      <point x="1166" y="684"/>
      <point x="1166" y="700" type="curve" smooth="yes"/>
      <point x="1166" y="931"/>
      <point x="1254" y="1050"/>
      <point x="1443" y="1050" type="curve" smooth="yes"/>
      <point x="1626" y="1050"/>
      <point x="1698" y="935"/>
      <point x="1698" y="704" type="curve" smooth="yes"/>
      <point x="1698" y="441" type="line" smooth="yes"/>
      <point x="1698" y="229"/>
      <point x="1672" y="125"/>
      <point x="1608" y="12" type="curve"/>
      <point x="1608" y="0" type="line"/>
      <point x="1961" y="0" type="line"/>
      <point x="1961" y="143" type="line"/>
      <point x="1785" y="143" type="line"/>
      <point x="1791" y="86" type="line"/>
      <point x="1841" y="172"/>
      <point x="1864" y="260"/>
      <point x="1864" y="444" type="curve" smooth="yes"/>
      <point x="1864" y="702" type="line" smooth="yes"/>
      <point x="1864" y="1025"/>
      <point x="1751" y="1199"/>
      <point x="1460" y="1199" type="curve" smooth="yes"/>
      <point x="1289" y="1199"/>
      <point x="1168" y="1127"/>
      <point x="1122" y="995" type="curve"/>
      <point x="1076" y="989" type="line"/>
      <point x="1029" y="919"/>
      <point x="1011" y="808"/>
    </contour>
    <component base="Ssa_Above_NonExporting" xOffset="1779"/>
    <component base="Ssa_Below_NonExporting" xOffset="2096"/>
  </outline>
</glyph>
<glyph name="RupeeSign.tm" format="2">
  <advance width="2196"/>
  <unicode hex="0BF9"/>
  <note>
RupeeSign.tm
</note>
  <outline>
    <contour>
      <point x="901" y="1127" type="line"/>
      <point x="901" y="1" type="line"/>
      <point x="1066" y="1" type="line"/>
      <point x="1066" y="1127" type="line"/>
    </contour>
    <contour>
      <point x="1259" y="810" type="curve" smooth="yes"/>
      <point x="1149" y="810"/>
      <point x="1089" y="743"/>
      <point x="1070" y="653" type="curve"/>
      <point x="1046" y="653" type="line"/>
      <point x="1046" y="508" type="line"/>
      <point x="1059" y="508" type="line"/>
      <point x="1070" y="599"/>
      <point x="1114" y="660"/>
      <point x="1187" y="660" type="curve" smooth="yes"/>
      <point x="1273" y="660"/>
      <point x="1300" y="597"/>
      <point x="1300" y="467" type="curve" smooth="yes"/>
      <point x="1300" y="296" type="line" smooth="yes"/>
      <point x="1300" y="-92"/>
      <point x="1176" y="-278"/>
      <point x="814" y="-278" type="curve" smooth="yes"/>
      <point x="809" y="-278" type="line" smooth="yes"/>
      <point x="431" y="-278"/>
      <point x="270" y="-88"/>
      <point x="270" y="297" type="curve"/>
      <point x="270" y="811" type="line" smooth="yes"/>
      <point x="270" y="1290"/>
      <point x="481" y="1527"/>
      <point x="918" y="1527" type="curve" smooth="yes"/>
      <point x="923" y="1527" type="line" smooth="yes"/>
      <point x="1365" y="1527"/>
      <point x="1538" y="1292"/>
      <point x="1538" y="803" type="curve" smooth="yes"/>
      <point x="1538" y="707" type="line"/>
      <point x="1692" y="707" type="line"/>
      <point x="1692" y="978" type="line" smooth="yes"/>
      <point x="1692" y="1077"/>
      <point x="1722" y="1124"/>
      <point x="1788" y="1124" type="curve" smooth="yes"/>
      <point x="1853" y="1124"/>
      <point x="1880" y="1077"/>
      <point x="1880" y="988" type="curve" smooth="yes"/>
      <point x="1880" y="832" type="line" smooth="yes"/>
      <point x="1880" y="687"/>
      <point x="1860" y="607"/>
      <point x="1809" y="517" type="curve"/>
      <point x="1809" y="506" type="line"/>
      <point x="2205" y="506" type="line"/>
      <point x="2220" y="642" type="line"/>
      <point x="1973" y="642" type="line"/>
      <point x="1978" y="587" type="line"/>
      <point x="2026" y="661"/>
      <point x="2041" y="721"/>
      <point x="2041" y="883" type="curve" smooth="yes"/>
      <point x="2041" y="1006" type="line" smooth="yes"/>
      <point x="2041" y="1179"/>
      <point x="1982" y="1268"/>
      <point x="1848" y="1268" type="curve" smooth="yes"/>
      <point x="1718" y="1268"/>
      <point x="1653" y="1185"/>
      <point x="1653" y="1051" type="curve" smooth="yes"/>
      <point x="1653" y="1046" type="line"/>
      <point x="1648" y="1046" type="line"/>
      <point x="1623" y="1447"/>
      <point x="1383" y="1676"/>
      <point x="922" y="1676" type="curve" smooth="yes"/>
      <point x="919" y="1676" type="line" smooth="yes"/>
      <point x="398" y="1676"/>
      <point x="106" y="1392"/>
      <point x="106" y="798" type="curve" smooth="yes"/>
      <point x="106" y="310" type="line" smooth="yes"/>
      <point x="106" y="-192"/>
      <point x="341" y="-427"/>
      <point x="810" y="-427" type="curve" smooth="yes"/>
      <point x="813" y="-427" type="line" smooth="yes"/>
      <point x="1281" y="-427"/>
      <point x="1464" y="-183"/>
      <point x="1464" y="293" type="curve" smooth="yes"/>
      <point x="1464" y="501" type="line" smooth="yes"/>
      <point x="1464" y="706"/>
      <point x="1406" y="810"/>
    </contour>
    <contour>
      <point x="1146" y="1173" type="line"/>
      <point x="506" y="1173" type="line"/>
      <point x="506" y="0" type="line"/>
      <point x="671" y="0" type="line"/>
      <point x="671" y="1030" type="line"/>
      <point x="1146" y="1030" type="line"/>
    </contour>
    <component base="RaBeak_Nonexporting" xOffset="946"/>
  </outline>
</glyph>
<glyph name="euro" format="2">
  <advance width="638"/>
  <unicode hex="20AC"/>
  <outline>
    <contour>
      <point x="421" y="-19" type="curve" smooth="yes"/>
      <point x="493" y="-19"/>
      <point x="552" y="3"/>
      <point x="585" y="24" type="curve"/>
      <point x="597" y="193" type="line"/>
      <point x="563" y="169"/>
      <point x="524" y="151"/>
      <point x="470" y="151" type="curve" smooth="yes"/>
      <point x="356" y="151"/>
      <point x="314" y="226"/>
      <point x="314" y="358" type="curve" smooth="yes"/>
      <point x="314" y="921" type="line" smooth="yes"/>
      <point x="314" y="1055"/>
      <point x="353" y="1132"/>
      <point x="462" y="1132" type="curve" smooth="yes"/>
      <point x="513" y="1132"/>
      <point x="550" y="1116"/>
      <point x="583" y="1095" type="curve"/>
      <point x="571" y="1256" type="line"/>
      <point x="538" y="1278"/>
      <point x="486" y="1297"/>
      <point x="417" y="1297" type="curve" smooth="yes"/>
      <point x="223" y="1297"/>
      <point x="134" y="1171"/>
      <point x="134" y="934" type="curve" smooth="yes"/>
      <point x="134" y="348" type="line" smooth="yes"/>
      <point x="134" y="109"/>
      <point x="218" y="-19"/>
    </contour>
    <contour>
      <point x="25" y="428" type="line"/>
      <point x="538" y="428" type="line"/>
      <point x="547" y="568" type="line"/>
      <point x="34" y="568" type="line"/>
    </contour>
    <contour>
      <point x="25" y="730" type="line"/>
      <point x="538" y="730" type="line"/>
      <point x="547" y="870" type="line"/>
      <point x="34" y="870" type="line"/>
    </contour>
  </outline>
</glyph>
<glyph name="CaMatraI.tm" format="2">
  <advance width="1201"/>
  <note>
CaMatraI.tm
</note>
  <outline>
    <contour>
      <point x="609" y="615" type="line"/>
      <point x="859" y="615" type="line"/>
      <point x="844" y="755" type="line"/>
      <point x="609" y="755" type="line"/>
    </contour>
    <contour>
      <point x="779" y="1699" type="curve" smooth="yes"/>
      <point x="562" y="1699"/>
      <point x="465" y="1581"/>
      <point x="465" y="1350" type="curve" smooth="yes"/>
      <point x="465" y="1311" type="line" smooth="yes"/>
      <point x="465" y="1249"/>
      <point x="475" y="1200"/>
      <point x="505" y="1165" type="curve"/>
      <point x="659" y="1165" type="line"/>
      <point x="632" y="1202"/>
      <point x="625" y="1238"/>
      <point x="625" y="1307" type="curve" smooth="yes"/>
      <point x="625" y="1340" type="line" smooth="yes"/>
      <point x="625" y="1486"/>
      <point x="665" y="1552"/>
      <point x="778" y="1552" type="curve" smooth="yes"/>
      <point x="888" y="1552"/>
      <point x="924" y="1488"/>
      <point x="924" y="1345" type="curve" smooth="yes"/>
      <point x="924" y="0" type="line"/>
      <point x="1089" y="0" type="line"/>
      <point x="1089" y="1343" type="line" smooth="yes"/>
      <point x="1089" y="1583"/>
      <point x="999" y="1699"/>
    </contour>
    <component base="KaComponent_Nonexporting" xOffset="39"/>
    <component base="KaBeak_Nonexporting" xOffset="633"/>
  </outline>
</glyph>
<glyph name="CaMatraU.tm" format="2">
  <advance width="1152"/>
  <note>
CaMatraU.tm
</note>
  <outline>
    <contour>
      <point x="612" y="615" type="line"/>
      <point x="1142" y="615" type="line"/>
      <point x="1126" y="755" type="line"/>
      <point x="612" y="755" type="line"/>
    </contour>
    <contour>
      <point x="842" y="651" type="line"/>
      <point x="842" y="0" type="line"/>
      <point x="1005" y="0" type="line"/>
      <point x="1005" y="651" type="line"/>
    </contour>
    <component base="KaComponent_Nonexporting" xOffset="39"/>
    <component base="KaBeak_Nonexporting" xOffset="700"/>
  </outline>
</glyph>
<glyph name="CaMatraUu_Simple.tm" format="2">
  <advance width="1776"/>
  <note>
CaMatraUu.tm
</note>
  <outline>
    <contour>
      <point x="983" y="615" type="line"/>
      <point x="1252" y="615" type="line"/>
      <point x="1287" y="621" type="line"/>
      <point x="1580" y="621" type="line"/>
      <point x="1566" y="755" type="line"/>
      <point x="983" y="755" type="line"/>
    </contour>
    <contour>
      <point x="1193" y="640" type="line"/>
      <point x="1193" y="0" type="line"/>
      <point x="1356" y="0" type="line"/>
      <point x="1356" y="640" type="line"/>
    </contour>
    <contour>
      <point x="106" y="1173" type="line"/>
      <point x="106" y="362" type="line" smooth="yes"/>
      <point x="106" y="-207"/>
      <point x="382" y="-468"/>
      <point x="960" y="-468" type="curve" smooth="yes"/>
      <point x="984" y="-468" type="line" smooth="yes"/>
      <point x="1490" y="-468"/>
      <point x="1718" y="-267"/>
      <point x="1718" y="164" type="curve" smooth="yes"/>
      <point x="1718" y="215" type="line" smooth="yes"/>
      <point x="1718" y="403"/>
      <point x="1665" y="498"/>
      <point x="1531" y="498" type="curve" smooth="yes"/>
      <point x="1433" y="498"/>
      <point x="1376" y="433"/>
      <point x="1360" y="351" type="curve"/>
      <point x="1336" y="351" type="line"/>
      <point x="1336" y="216" type="line"/>
      <point x="1349" y="216" type="line"/>
      <point x="1359" y="297"/>
      <point x="1396" y="350"/>
      <point x="1460" y="350" type="curve" smooth="yes"/>
      <point x="1532" y="350"/>
      <point x="1553" y="297"/>
      <point x="1553" y="187" type="curve" smooth="yes"/>
      <point x="1553" y="167" type="line" smooth="yes"/>
      <point x="1553" y="-174"/>
      <point x="1385" y="-319"/>
      <point x="984" y="-319" type="curve" smooth="yes"/>
      <point x="960" y="-319" type="line" smooth="yes"/>
      <point x="480" y="-319"/>
      <point x="271" y="-112"/>
      <point x="271" y="370" type="curve" smooth="yes"/>
      <point x="271" y="1172" type="line"/>
    </contour>
    <component base="KaComponent_Nonexporting" xOffset="402"/>
    <component base="KaBeak_Nonexporting" xOffset="1062"/>
  </outline>
</glyph>
<glyph name="DebitSign_Simple.tm" format="2">
  <advance width="1260"/>
  <note>
DebitSign.tm
</note>
  <anchor x="431" y="1243" name="top"/>
  <outline>
    <contour>
      <point x="1148" y="-177" type="line"/>
      <point x="29" y="-177" type="line"/>
      <point x="48" y="-319" type="line"/>
      <point x="1148" y="-319" type="line"/>
    </contour>
    <contour>
      <point x="983" y="1173" type="line"/>
      <point x="983" y="-219" type="line"/>
      <point x="1148" y="-219" type="line"/>
      <point x="1148" y="1173" type="line"/>
    </contour>
    <contour>
      <point x="589" y="142" type="line"/>
      <point x="589" y="-219" type="line"/>
      <point x="754" y="-219" type="line"/>
      <point x="754" y="142" type="line"/>
    </contour>
    <component base="Pa.tm"/>
  </outline>
</glyph>
<glyph name="HaMatraI.tm" format="2">
  <advance width="2582"/>
  <note>
HaMatraI.tm
</note>
  <anchor x="1014" y="1243" name="top"/>
  <outline>
    <contour>
      <point x="2129" y="1699" type="curve" smooth="yes"/>
      <point x="1901" y="1699"/>
      <point x="1785" y="1562"/>
      <point x="1785" y="1339" type="curve" smooth="yes"/>
      <point x="1785" y="1309" type="line" smooth="yes"/>
      <point x="1785" y="1251"/>
      <point x="1793" y="1206"/>
      <point x="1820" y="1172" type="curve"/>
      <point x="1978" y="1168" type="line"/>
      <point x="1952" y="1200"/>
      <point x="1946" y="1231"/>
      <point x="1946" y="1290" type="curve" smooth="yes"/>
      <point x="1946" y="1314" type="line" smooth="yes"/>
      <point x="1946" y="1473"/>
      <point x="1999" y="1551"/>
      <point x="2129" y="1551" type="curve" smooth="yes"/>
      <point x="2257" y="1551"/>
      <point x="2305" y="1475"/>
      <point x="2305" y="1302" type="curve" smooth="yes"/>
      <point x="2305" y="0" type="line"/>
      <point x="2470" y="0" type="line"/>
      <point x="2470" y="1307" type="line" smooth="yes"/>
      <point x="2470" y="1564"/>
      <point x="2368" y="1699"/>
    </contour>
    <component base="Ha.tm"/>
  </outline>
</glyph>
<glyph name="HaMatraIi.tm" format="2">
  <advance width="2197"/>
  <note>
HaMatraIi.tm
</note>
  <anchor x="1014" y="1243" name="top"/>
  <outline>
    <contour>
      <point x="2120" y="1858" type="curve" smooth="yes"/>
      <point x="1878" y="1858"/>
      <point x="1774" y="1719"/>
      <point x="1774" y="1484" type="curve" smooth="yes"/>
      <point x="1774" y="1376" type="line" smooth="yes"/>
      <point x="1774" y="1289"/>
      <point x="1785" y="1226"/>
      <point x="1828" y="1181" type="curve"/>
      <point x="1979" y="1168" type="line"/>
      <point x="1937" y="1213"/>
      <point x="1926" y="1254"/>
      <point x="1926" y="1345" type="curve" smooth="yes"/>
      <point x="1926" y="1474" type="line" smooth="yes"/>
      <point x="1926" y="1640"/>
      <point x="1981" y="1725"/>
      <point x="2109" y="1730" type="curve"/>
      <point x="2109" y="1724" type="line"/>
      <point x="2125" y="1726"/>
      <point x="2138" y="1728"/>
      <point x="2152" y="1728" type="curve" smooth="yes"/>
      <point x="2257" y="1728"/>
      <point x="2290" y="1668"/>
      <point x="2290" y="1552" type="curve" smooth="yes"/>
      <point x="2290" y="1478" type="line" smooth="yes"/>
      <point x="2290" y="1409"/>
      <point x="2268" y="1375"/>
      <point x="2220" y="1375" type="curve" smooth="yes"/>
      <point x="2170" y="1375"/>
      <point x="2148" y="1409"/>
      <point x="2148" y="1478" type="curve" smooth="yes"/>
      <point x="2148" y="1584" type="line" smooth="yes"/>
      <point x="2148" y="1656"/>
      <point x="2159" y="1702"/>
      <point x="2195" y="1734" type="curve"/>
      <point x="2109" y="1734" type="line"/>
      <point x="2109" y="1728" type="line"/>
      <point x="2042" y="1692"/>
      <point x="2016" y="1635"/>
      <point x="2016" y="1534" type="curve" smooth="yes"/>
      <point x="2016" y="1475" type="line" smooth="yes"/>
      <point x="2016" y="1339"/>
      <point x="2080" y="1263"/>
      <point x="2220" y="1263" type="curve" smooth="yes"/>
      <point x="2368" y="1263"/>
      <point x="2434" y="1343"/>
      <point x="2434" y="1488" type="curve" smooth="yes"/>
      <point x="2434" y="1539" type="line" smooth="yes"/>
      <point x="2434" y="1739"/>
      <point x="2350" y="1858"/>
    </contour>
    <component base="Ha.tm"/>
  </outline>
</glyph>
<glyph name="HaMatraIi_Simple_SimpleIi.tm" format="2">
  <advance width="2197"/>
  <note>
HaMatraIi.tm
</note>
  <anchor x="1618" y="1243" name="top"/>
  <outline>
    <contour>
      <point x="964" y="143" type="line"/>
      <point x="964" y="0" type="line"/>
      <point x="1232" y="0" type="line"/>
      <point x="1232" y="143" type="line"/>
    </contour>
    <contour>
      <point x="1214" y="-176" type="line"/>
      <point x="43" y="-176" type="line"/>
      <point x="61" y="-319" type="line"/>
      <point x="1214" y="-319" type="line"/>
    </contour>
    <component base="Va_NonExporting" xOffset="6"/>
    <component base="RraMatraIi_Simple_SimpleIi.tm" xOffset="1021"/>
  </outline>
</glyph>
<glyph name="HaMatraU_Simple.tm" format="2">
  <advance width="2808"/>
  <note>
HaMatraU.tm
</note>
  <outline>
    <contour>
      <point x="964" y="143" type="line"/>
      <point x="964" y="0" type="line"/>
      <point x="1232" y="0" type="line"/>
      <point x="1232" y="143" type="line"/>
    </contour>
    <contour>
      <point x="1383" y="1199" type="curve" smooth="yes"/>
      <point x="1215" y="1199"/>
      <point x="1126" y="1103"/>
      <point x="1126" y="892" type="curve" smooth="yes"/>
      <point x="1126" y="0" type="line"/>
      <point x="1290" y="0" type="line"/>
      <point x="1290" y="888" type="line" smooth="yes"/>
      <point x="1290" y="995"/>
      <point x="1328" y="1043"/>
      <point x="1404" y="1043" type="curve" smooth="yes"/>
      <point x="1487" y="1043"/>
      <point x="1517" y="992"/>
      <point x="1517" y="888" type="curve"/>
      <point x="1522" y="0" type="line"/>
      <point x="1687" y="0" type="line"/>
      <point x="1682" y="872" type="line" smooth="yes"/>
      <point x="1681" y="997"/>
      <point x="1725" y="1048"/>
      <point x="1812" y="1048" type="curve" smooth="yes"/>
      <point x="1893" y="1048"/>
      <point x="1934" y="997"/>
      <point x="1934" y="873" type="curve" smooth="yes"/>
      <point x="1934" y="801" type="line" smooth="yes"/>
      <point x="1934" y="692"/>
      <point x="1905" y="632"/>
      <point x="1803" y="627" type="curve" smooth="yes"/>
      <point x="1761" y="625" type="line"/>
      <point x="1761" y="486" type="line"/>
      <point x="1806" y="484" type="line" smooth="yes"/>
      <point x="1908" y="479"/>
      <point x="1945" y="433"/>
      <point x="1945" y="287" type="curve" smooth="yes"/>
      <point x="1945" y="178" type="line" smooth="yes"/>
      <point x="1945" y="-93"/>
      <point x="1873" y="-176"/>
      <point x="1620" y="-176" type="curve" smooth="yes"/>
      <point x="43" y="-176" type="line"/>
      <point x="61" y="-319" type="line"/>
      <point x="1640" y="-319" type="line" smooth="yes"/>
      <point x="2007" y="-319"/>
      <point x="2110" y="-189"/>
      <point x="2110" y="168" type="curve" smooth="yes"/>
      <point x="2110" y="283" type="line" smooth="yes"/>
      <point x="2110" y="475"/>
      <point x="2061" y="549"/>
      <point x="1935" y="560" type="curve"/>
      <point x="1935" y="565" type="line"/>
      <point x="2060" y="577"/>
      <point x="2099" y="675"/>
      <point x="2099" y="819" type="curve" smooth="yes"/>
      <point x="2099" y="892" type="line" smooth="yes"/>
      <point x="2099" y="972"/>
      <point x="2082" y="1039"/>
      <point x="2043" y="1077" type="curve"/>
      <point x="2043" y="1111" type="line"/>
      <point x="2007" y="1171"/>
      <point x="1947" y="1199"/>
      <point x="1851" y="1199" type="curve" smooth="yes"/>
      <point x="1696" y="1199"/>
      <point x="1621" y="1121"/>
      <point x="1608" y="990" type="curve"/>
      <point x="1602" y="990" type="line"/>
      <point x="1590" y="1122"/>
      <point x="1524" y="1199"/>
    </contour>
    <contour>
      <point x="2193" y="1173" type="line"/>
      <point x="1919" y="1173" type="line"/>
      <point x="1928" y="1031" type="line"/>
      <point x="2193" y="1031" type="line"/>
    </contour>
    <component base="Va_NonExporting" xOffset="6"/>
    <component base="MatraUDflt.tm" xOffset="2045"/>
  </outline>
</glyph>
<glyph name="JaMatraI_Fly.tm" format="2">
  <advance width="1367"/>
  <note>
JaMatraI.tm
</note>
  <anchor x="779" y="1243" name="top"/>
  <outline>
    <contour>
      <point x="1373" y="1542" type="line"/>
      <point x="1141" y="1542" type="line" smooth="yes"/>
      <point x="982" y="1542"/>
      <point x="920" y="1481"/>
      <point x="920" y="1368" type="curve" smooth="yes"/>
      <point x="920" y="1320"/>
      <point x="929" y="1283"/>
      <point x="965" y="1174" type="curve"/>
      <point x="1118" y="1174" type="line"/>
      <point x="1095" y="1238"/>
      <point x="1081" y="1286"/>
      <point x="1081" y="1318" type="curve" smooth="yes"/>
      <point x="1081" y="1370"/>
      <point x="1100" y="1399"/>
      <point x="1180" y="1399" type="curve" smooth="yes"/>
      <point x="1393" y="1399" type="line"/>
    </contour>
    <component base="Ja.tm"/>
  </outline>
</glyph>
<glyph name="JaMatraIi_SimpleIi.tm" format="2">
  <advance width="1367"/>
  <note>
JaMatraIi.tm
</note>
  <anchor x="779" y="1243" name="top"/>
  <outline>
    <contour>
      <point x="1177" y="1818" type="curve" smooth="yes"/>
      <point x="1016" y="1818"/>
      <point x="939" y="1721"/>
      <point x="939" y="1555" type="curve" smooth="yes"/>
      <point x="939" y="1351" type="line" smooth="yes"/>
      <point x="939" y="1268"/>
      <point x="950" y="1208"/>
      <point x="989" y="1175" type="curve"/>
      <point x="1146" y="1175" type="line"/>
      <point x="1107" y="1210"/>
      <point x="1097" y="1253"/>
      <point x="1097" y="1337" type="curve" smooth="yes"/>
      <point x="1097" y="1443" type="line"/>
      <point x="1097" y="1586" type="line" smooth="yes"/>
      <point x="1097" y="1652"/>
      <point x="1124" y="1687"/>
      <point x="1177" y="1687" type="curve" smooth="yes"/>
      <point x="1231" y="1687"/>
      <point x="1251" y="1652"/>
      <point x="1251" y="1588" type="curve" smooth="yes"/>
      <point x="1251" y="1490" type="line" smooth="yes"/>
      <point x="1251" y="1430"/>
      <point x="1231" y="1397"/>
      <point x="1180" y="1397" type="curve" smooth="yes"/>
      <point x="1140" y="1397"/>
      <point x="1107" y="1421"/>
      <point x="1094" y="1457" type="curve"/>
      <point x="1089" y="1457" type="line"/>
      <point x="1094" y="1398" type="line"/>
      <point x="1104" y="1398" type="line"/>
      <point x="1131" y="1322" type="line"/>
      <point x="1153" y="1298"/>
      <point x="1197" y="1279"/>
      <point x="1248" y="1279" type="curve" smooth="yes"/>
      <point x="1357" y="1279"/>
      <point x="1406" y="1352"/>
      <point x="1406" y="1484" type="curve" smooth="yes"/>
      <point x="1406" y="1575" type="line" smooth="yes"/>
      <point x="1406" y="1727"/>
      <point x="1341" y="1818"/>
    </contour>
    <component base="Ja.tm"/>
  </outline>
</glyph>
<glyph name="KaBeak_Nonexporting" format="2">
  <advance width="200"/>
  <outline>
    <contour>
      <point x="0" y="1037" type="line"/>
      <point x="200" y="1037" type="line"/>
      <point x="188" y="1173" type="line"/>
      <point x="0" y="1173" type="line"/>
    </contour>
  </outline>
</glyph>
<glyph name="KaMatraU.tm" format="2">
  <advance width="1456"/>
  <note>
KaMatraU.tm
</note>
  <outline>
    <contour>
      <point x="951" y="616" type="line"/>
      <point x="1048" y="616" type="line" smooth="yes"/>
      <point x="1174" y="616"/>
      <point x="1213" y="568"/>
      <point x="1213" y="410" type="curve" smooth="yes"/>
      <point x="1213" y="253" type="line" smooth="yes"/>
      <point x="1213" y="-80"/>
      <point x="1097" y="-244"/>
      <point x="774" y="-244" type="curve" smooth="yes"/>
      <point x="771" y="-244" type="line" smooth="yes"/>
      <point x="409" y="-244"/>
      <point x="273" y="-55"/>
      <point x="273" y="321" type="curve" smooth="yes"/>
      <point x="273" y="742"/>
      <point x="275" y="940"/>
      <point x="277" y="1173" type="curve"/>
      <point x="112" y="1173" type="line"/>
      <point x="110" y="964"/>
      <point x="108" y="757"/>
      <point x="108" y="315" type="curve" smooth="yes"/>
      <point x="108" y="-150"/>
      <point x="305" y="-394"/>
      <point x="771" y="-394" type="curve" smooth="yes"/>
      <point x="774" y="-394" type="line" smooth="yes"/>
      <point x="1204" y="-394"/>
      <point x="1376" y="-177"/>
      <point x="1376" y="248" type="curve" smooth="yes"/>
      <point x="1376" y="421" type="line" smooth="yes"/>
      <point x="1376" y="660"/>
      <point x="1293" y="755"/>
      <point x="1063" y="755" type="curve" smooth="yes"/>
      <point x="951" y="755" type="line"/>
    </contour>
    <component base="KaComponent_Nonexporting" xOffset="404"/>
    <component base="KaBeak_Nonexporting" xOffset="1057"/>
  </outline>
</glyph>
<glyph name="KaMatraU_Simple.tm" format="2">
  <advance width="1456"/>
  <note>
KaMatraU.tm
</note>
  <outline>
    <contour>
      <point x="951" y="615" type="line"/>
      <point x="1048" y="615" type="line" smooth="yes"/>
      <point x="1174" y="615"/>
      <point x="1213" y="567"/>
      <point x="1213" y="410" type="curve" smooth="yes"/>
      <point x="1213" y="253" type="line" smooth="yes"/>
      <point x="1213" y="-80"/>
      <point x="1097" y="-244"/>
      <point x="774" y="-244" type="curve" smooth="yes"/>
      <point x="771" y="-244" type="line" smooth="yes"/>
      <point x="409" y="-244"/>
      <point x="273" y="-55"/>
      <point x="273" y="321" type="curve" smooth="yes"/>
      <point x="273" y="1173" type="line"/>
      <point x="108" y="1173" type="line"/>
      <point x="108" y="315" type="line" smooth="yes"/>
      <point x="108" y="-150"/>
      <point x="305" y="-394"/>
      <point x="771" y="-394" type="curve" smooth="yes"/>
      <point x="774" y="-394" type="line" smooth="yes"/>
      <point x="1204" y="-394"/>
      <point x="1376" y="-177"/>
      <point x="1376" y="248" type="curve" smooth="yes"/>
      <point x="1376" y="421" type="line" smooth="yes"/>
      <point x="1376" y="660"/>
      <point x="1293" y="755"/>
      <point x="1063" y="755" type="curve" smooth="yes"/>
      <point x="951" y="755" type="line"/>
    </contour>
    <component base="KaComponent_Nonexporting" xOffset="404"/>
    <component base="KaBeak_Nonexporting" xOffset="1057"/>
  </outline>
</glyph>
<glyph name="KssaMatraI_Fly.tm" format="2">
  <advance width="2213"/>
  <note>
KshaMatraI.tm
</note>
  <anchor x="1260" y="1243" name="top"/>
  <outline>
    <contour>
      <point x="2137" y="1542" type="line"/>
      <point x="1906" y="1542" type="line" smooth="yes"/>
      <point x="1746" y="1542"/>
      <point x="1685" y="1481"/>
      <point x="1685" y="1368" type="curve" smooth="yes"/>
      <point x="1685" y="1312"/>
      <point x="1695" y="1275"/>
      <point x="1738" y="1165" type="curve"/>
      <point x="1889" y="1165" type="line"/>
      <point x="1862" y="1234"/>
      <point x="1845" y="1285"/>
      <point x="1845" y="1318" type="curve" smooth="yes"/>
      <point x="1845" y="1370"/>
      <point x="1865" y="1399"/>
      <point x="1944" y="1399" type="curve" smooth="yes"/>
      <point x="2158" y="1399" type="line"/>
    </contour>
    <component base="Kssa.tm"/>
  </outline>
</glyph>
<glyph name="KssaMatraU_Simple.tm" format="2">
  <advance width="2807"/>
  <note>
KshaMatraU.tm
</note>
  <outline>
    <contour>
      <point x="609" y="615" type="line"/>
      <point x="699" y="615" type="line" smooth="yes"/>
      <point x="804" y="615"/>
      <point x="835" y="571"/>
      <point x="835" y="456" type="curve" smooth="yes"/>
      <point x="835" y="0" type="line"/>
      <point x="998" y="0" type="line"/>
      <point x="998" y="524" type="line" smooth="yes"/>
      <point x="998" y="628"/>
      <point x="1034" y="677"/>
      <point x="1104" y="677" type="curve" smooth="yes"/>
      <point x="1174" y="677"/>
      <point x="1205" y="628"/>
      <point x="1205" y="533" type="curve" smooth="yes"/>
      <point x="1205" y="326" type="line" smooth="yes"/>
      <point x="1205" y="182"/>
      <point x="1184" y="101"/>
      <point x="1133" y="12" type="curve"/>
      <point x="1133" y="0" type="line"/>
      <point x="1629" y="0" type="line"/>
      <point x="1629" y="143" type="line"/>
      <point x="1297" y="143" type="line"/>
      <point x="1302" y="90" type="line"/>
      <point x="1350" y="164"/>
      <point x="1366" y="225"/>
      <point x="1366" y="358" type="curve" smooth="yes"/>
      <point x="1366" y="554" type="line" smooth="yes"/>
      <point x="1366" y="734"/>
      <point x="1297" y="827"/>
      <point x="1140" y="827" type="curve" smooth="yes"/>
      <point x="988" y="827"/>
      <point x="913" y="736"/>
      <point x="913" y="588" type="curve" smooth="yes"/>
      <point x="913" y="574" type="line"/>
      <point x="908" y="574" type="line"/>
      <point x="896" y="697"/>
      <point x="847" y="755"/>
      <point x="704" y="755" type="curve" smooth="yes"/>
      <point x="609" y="755" type="line"/>
    </contour>
    <contour>
      <point x="1377" y="143" type="line"/>
      <point x="1377" y="0" type="line"/>
      <point x="2179" y="0" type="line"/>
      <point x="2196" y="143" type="line"/>
      <point x="1840" y="143" type="line"/>
      <point x="1809" y="120" type="line"/>
      <point x="1776" y="143" type="line"/>
    </contour>
    <contour>
      <point x="1810" y="1199" type="curve" smooth="yes"/>
      <point x="1616" y="1199"/>
      <point x="1527" y="1080"/>
      <point x="1527" y="871" type="curve" smooth="yes"/>
      <point x="1527" y="458" type="line" smooth="yes"/>
      <point x="1527" y="263"/>
      <point x="1579" y="152"/>
      <point x="1758" y="70" type="curve"/>
      <point x="1835" y="108" type="line"/>
      <point x="1716" y="181"/>
      <point x="1694" y="261"/>
      <point x="1694" y="415" type="curve" smooth="yes"/>
      <point x="1694" y="883" type="line" smooth="yes"/>
      <point x="1694" y="998"/>
      <point x="1729" y="1050"/>
      <point x="1810" y="1050" type="curve" smooth="yes"/>
      <point x="1890" y="1050"/>
      <point x="1926" y="998"/>
      <point x="1926" y="883" type="curve" smooth="yes"/>
      <point x="1926" y="415" type="line" smooth="yes"/>
      <point x="1926" y="261"/>
      <point x="1902" y="181"/>
      <point x="1783" y="108" type="curve"/>
      <point x="1861" y="70" type="line"/>
      <point x="2040" y="152"/>
      <point x="2093" y="263"/>
      <point x="2093" y="458" type="curve" smooth="yes"/>
      <point x="2093" y="862" type="line" smooth="yes"/>
      <point x="2093" y="969"/>
      <point x="2074" y="1036"/>
      <point x="2025" y="1082" type="curve"/>
      <point x="2025" y="1112" type="line"/>
      <point x="1985" y="1170"/>
      <point x="1918" y="1199"/>
    </contour>
    <contour>
      <point x="2215" y="1173" type="line"/>
      <point x="1912" y="1173" type="line"/>
      <point x="1921" y="1031" type="line"/>
      <point x="2215" y="1031" type="line"/>
    </contour>
    <component base="KaComponent_Nonexporting" xOffset="39"/>
    <component base="KaBeak_Nonexporting" xOffset="691"/>
    <component base="MatraUDflt.tm" xOffset="2044"/>
    <component base="Ssa_Below_Simple_NonExporting" xOffset="1595"/>
  </outline>
</glyph>
<glyph name="LaMatraI.tm" format="2">
  <advance width="1806"/>
  <note>
LaMatraI.tm
</note>
  <outline>
    <contour>
      <point x="528" y="1199" type="curve" smooth="yes"/>
      <point x="243" y="1199"/>
      <point x="92" y="1021"/>
      <point x="92" y="684" type="curve" smooth="yes"/>
      <point x="92" y="279" type="line" smooth="yes"/>
      <point x="92" y="89"/>
      <point x="176" y="-22"/>
      <point x="354" y="-22" type="curve" smooth="yes"/>
      <point x="533" y="-22"/>
      <point x="614" y="87"/>
      <point x="614" y="274" type="curve" smooth="yes"/>
      <point x="614" y="552" type="line" smooth="yes"/>
      <point x="614" y="722"/>
      <point x="556" y="810"/>
      <point x="430" y="810" type="curve" smooth="yes"/>
      <point x="327" y="810"/>
      <point x="268" y="740"/>
      <point x="252" y="656" type="curve"/>
      <point x="244" y="656" type="line"/>
      <point x="246" y="546" type="line"/>
      <point x="260" y="616"/>
      <point x="302" y="660"/>
      <point x="358" y="660" type="curve" smooth="yes"/>
      <point x="425" y="660"/>
      <point x="454" y="612"/>
      <point x="454" y="519" type="curve" smooth="yes"/>
      <point x="454" y="268" type="line" smooth="yes"/>
      <point x="454" y="165"/>
      <point x="425" y="116"/>
      <point x="354" y="116" type="curve" smooth="yes"/>
      <point x="283" y="116"/>
      <point x="253" y="165"/>
      <point x="253" y="268" type="curve"/>
      <point x="253" y="656" type="line"/>
      <point x="247" y="656" type="line"/>
      <point x="247" y="672"/>
      <point x="247" y="685"/>
      <point x="247" y="701" type="curve" smooth="yes"/>
      <point x="247" y="931"/>
      <point x="337" y="1050"/>
      <point x="523" y="1050" type="curve" smooth="yes"/>
      <point x="692" y="1050"/>
      <point x="771" y="940"/>
      <point x="771" y="732" type="curve" smooth="yes"/>
      <point x="771" y="297" type="line" smooth="yes"/>
      <point x="771" y="93"/>
      <point x="852" y="-22"/>
      <point x="1047" y="-22" type="curve" smooth="yes"/>
      <point x="1240" y="-22"/>
      <point x="1321" y="93"/>
      <point x="1321" y="297" type="curve" smooth="yes"/>
      <point x="1321" y="879" type="line" smooth="yes"/>
      <point x="1321" y="1072"/>
      <point x="1256" y="1194"/>
      <point x="1091" y="1194" type="curve" smooth="yes"/>
      <point x="1064" y="1194"/>
      <point x="1040" y="1191"/>
      <point x="1022" y="1184" type="curve"/>
      <point x="1124" y="1157" type="line"/>
      <point x="1124" y="1194"/>
      <point x="1124" y="1228"/>
      <point x="1124" y="1266" type="curve" smooth="yes"/>
      <point x="1124" y="1459"/>
      <point x="1182" y="1551"/>
      <point x="1330" y="1551" type="curve" smooth="yes"/>
      <point x="1476" y="1551"/>
      <point x="1529" y="1457"/>
      <point x="1529" y="1253" type="curve" smooth="yes"/>
      <point x="1529" y="0" type="line"/>
      <point x="1694" y="0" type="line"/>
      <point x="1694" y="1245" type="line" smooth="yes"/>
      <point x="1694" y="1544"/>
      <point x="1583" y="1699"/>
      <point x="1330" y="1699" type="curve" smooth="yes"/>
      <point x="1082" y="1699"/>
      <point x="965" y="1548"/>
      <point x="965" y="1257" type="curve" smooth="yes"/>
      <point x="965" y="1188"/>
      <point x="965" y="1118"/>
      <point x="965" y="1049" type="curve"/>
      <point x="976" y="1051"/>
      <point x="997" y="1054"/>
      <point x="1017" y="1054" type="curve" smooth="yes"/>
      <point x="1123" y="1054"/>
      <point x="1155" y="990"/>
      <point x="1155" y="860" type="curve" smooth="yes"/>
      <point x="1155" y="288" type="line" smooth="yes"/>
      <point x="1155" y="181"/>
      <point x="1124" y="126"/>
      <point x="1047" y="126" type="curve" smooth="yes"/>
      <point x="968" y="126"/>
      <point x="936" y="181"/>
      <point x="936" y="288" type="curve" smooth="yes"/>
      <point x="936" y="724" type="line" smooth="yes"/>
      <point x="936" y="1031"/>
      <point x="820" y="1199"/>
    </contour>
  </outline>
</glyph>
<glyph name="LaMatraIi.tm" format="2">
  <advance width="1417"/>
  <note>
LaMatraIi.tm
</note>
  <outline>
    <contour>
      <point x="1117" y="1474" type="line" smooth="yes"/>
      <point x="1117" y="1640"/>
      <point x="1172" y="1725"/>
      <point x="1300" y="1730" type="curve"/>
      <point x="1300" y="1724" type="line"/>
      <point x="1316" y="1726"/>
      <point x="1329" y="1728"/>
      <point x="1343" y="1728" type="curve" smooth="yes"/>
      <point x="1448" y="1728"/>
      <point x="1481" y="1668"/>
      <point x="1481" y="1552" type="curve" smooth="yes"/>
      <point x="1481" y="1478" type="line" smooth="yes"/>
      <point x="1481" y="1409"/>
      <point x="1459" y="1375"/>
      <point x="1411" y="1375" type="curve" smooth="yes"/>
      <point x="1361" y="1375"/>
      <point x="1339" y="1409"/>
      <point x="1339" y="1478" type="curve" smooth="yes"/>
      <point x="1339" y="1584" type="line" smooth="yes"/>
      <point x="1339" y="1656"/>
      <point x="1350" y="1702"/>
      <point x="1386" y="1734" type="curve"/>
      <point x="1300" y="1734" type="line"/>
      <point x="1300" y="1728" type="line"/>
      <point x="1233" y="1692"/>
      <point x="1207" y="1635"/>
      <point x="1207" y="1534" type="curve" smooth="yes"/>
      <point x="1207" y="1475" type="line" smooth="yes"/>
      <point x="1207" y="1339"/>
      <point x="1271" y="1263"/>
      <point x="1411" y="1263" type="curve" smooth="yes"/>
      <point x="1559" y="1263"/>
      <point x="1625" y="1343"/>
      <point x="1625" y="1488" type="curve" smooth="yes"/>
      <point x="1625" y="1539" type="line" smooth="yes"/>
      <point x="1625" y="1739"/>
      <point x="1541" y="1858"/>
      <point x="1311" y="1858" type="curve" smooth="yes"/>
      <point x="1069" y="1858"/>
      <point x="965" y="1719"/>
      <point x="965" y="1484" type="curve" smooth="yes"/>
      <point x="965" y="1257" type="line" smooth="yes"/>
      <point x="965" y="1202"/>
      <point x="965" y="1119"/>
      <point x="965" y="1049" type="curve"/>
      <point x="976" y="1051"/>
      <point x="996" y="1054"/>
      <point x="1017" y="1054" type="curve" smooth="yes"/>
      <point x="1123" y="1054"/>
      <point x="1155" y="990"/>
      <point x="1155" y="861" type="curve" smooth="yes"/>
      <point x="1155" y="288" type="line" smooth="yes"/>
      <point x="1155" y="181"/>
      <point x="1124" y="126"/>
      <point x="1047" y="126" type="curve" smooth="yes"/>
      <point x="968" y="126"/>
      <point x="936" y="181"/>
      <point x="936" y="288" type="curve" smooth="yes"/>
      <point x="936" y="724" type="line" smooth="yes"/>
      <point x="936" y="1038"/>
      <point x="820" y="1199"/>
      <point x="528" y="1199" type="curve" smooth="yes"/>
      <point x="243" y="1199"/>
      <point x="92" y="1021"/>
      <point x="92" y="684" type="curve" smooth="yes"/>
      <point x="92" y="279" type="line" smooth="yes"/>
      <point x="92" y="89"/>
      <point x="176" y="-22"/>
      <point x="354" y="-22" type="curve" smooth="yes"/>
      <point x="533" y="-22"/>
      <point x="614" y="87"/>
      <point x="614" y="274" type="curve" smooth="yes"/>
      <point x="614" y="552" type="line" smooth="yes"/>
      <point x="614" y="722"/>
      <point x="556" y="810"/>
      <point x="430" y="810" type="curve" smooth="yes"/>
      <point x="327" y="810"/>
      <point x="268" y="740"/>
      <point x="252" y="656" type="curve"/>
      <point x="244" y="656" type="line"/>
      <point x="246" y="546" type="line"/>
      <point x="260" y="616"/>
      <point x="302" y="660"/>
      <point x="358" y="660" type="curve" smooth="yes"/>
      <point x="425" y="660"/>
      <point x="454" y="612"/>
      <point x="454" y="519" type="curve" smooth="yes"/>
      <point x="454" y="268" type="line" smooth="yes"/>
      <point x="454" y="165"/>
      <point x="425" y="116"/>
      <point x="354" y="116" type="curve" smooth="yes"/>
      <point x="283" y="116"/>
      <point x="253" y="165"/>
      <point x="253" y="268" type="curve"/>
      <point x="253" y="656" type="line"/>
      <point x="247" y="656" type="line"/>
      <point x="247" y="672"/>
      <point x="247" y="685"/>
      <point x="247" y="701" type="curve" smooth="yes"/>
      <point x="247" y="931"/>
      <point x="337" y="1050"/>
      <point x="523" y="1050" type="curve" smooth="yes"/>
      <point x="692" y="1050"/>
      <point x="771" y="940"/>
      <point x="771" y="732" type="curve" smooth="yes"/>
      <point x="771" y="297" type="line" smooth="yes"/>
      <point x="771" y="93"/>
      <point x="852" y="-22"/>
      <point x="1047" y="-22" type="curve" smooth="yes"/>
      <point x="1240" y="-22"/>
      <point x="1321" y="93"/>
      <point x="1321" y="297" type="curve" smooth="yes"/>
      <point x="1321" y="879" type="line" smooth="yes"/>
      <point x="1321" y="1073"/>
      <point x="1256" y="1194"/>
      <point x="1091" y="1194" type="curve" smooth="yes"/>
      <point x="1064" y="1194"/>
      <point x="1040" y="1190"/>
      <point x="1022" y="1178" type="curve"/>
      <point x="1117" y="1169" type="line"/>
      <point x="1117" y="1206"/>
      <point x="1117" y="1232"/>
      <point x="1117" y="1266" type="curve" smooth="yes"/>
    </contour>
  </outline>
</glyph>
<glyph name="LlaMatraI.tm" format="2">
  <advance width="1881"/>
  <note>
LlaMatraI.tm
</note>
  <outline>
    <contour>
      <point x="1183" y="1135" type="line"/>
      <point x="1183" y="0" type="line"/>
      <point x="1348" y="0" type="line"/>
      <point x="1348" y="1135" type="line"/>
    </contour>
    <contour>
      <point x="508" y="1199" type="curve" smooth="yes"/>
      <point x="234" y="1199"/>
      <point x="92" y="1023"/>
      <point x="92" y="693" type="curve" smooth="yes"/>
      <point x="92" y="279" type="line" smooth="yes"/>
      <point x="92" y="89"/>
      <point x="176" y="-22"/>
      <point x="354" y="-22" type="curve" smooth="yes"/>
      <point x="533" y="-22"/>
      <point x="614" y="87"/>
      <point x="614" y="274" type="curve" smooth="yes"/>
      <point x="614" y="552" type="line" smooth="yes"/>
      <point x="614" y="722"/>
      <point x="556" y="810"/>
      <point x="430" y="810" type="curve" smooth="yes"/>
      <point x="327" y="810"/>
      <point x="268" y="740"/>
      <point x="252" y="656" type="curve"/>
      <point x="244" y="656" type="line"/>
      <point x="246" y="546" type="line"/>
      <point x="260" y="616"/>
      <point x="302" y="660"/>
      <point x="358" y="660" type="curve" smooth="yes"/>
      <point x="425" y="660"/>
      <point x="454" y="612"/>
      <point x="454" y="519" type="curve" smooth="yes"/>
      <point x="454" y="268" type="line" smooth="yes"/>
      <point x="454" y="165"/>
      <point x="425" y="116"/>
      <point x="354" y="116" type="curve" smooth="yes"/>
      <point x="283" y="116"/>
      <point x="253" y="165"/>
      <point x="253" y="268" type="curve"/>
      <point x="253" y="656" type="line"/>
      <point x="247" y="656" type="line"/>
      <point x="247" y="675"/>
      <point x="247" y="690"/>
      <point x="247" y="709" type="curve" smooth="yes"/>
      <point x="247" y="934"/>
      <point x="334" y="1050"/>
      <point x="521" y="1050" type="curve" smooth="yes"/>
      <point x="708" y="1050"/>
      <point x="778" y="924"/>
      <point x="778" y="693" type="curve" smooth="yes"/>
      <point x="778" y="0" type="line"/>
      <point x="943" y="0" type="line"/>
      <point x="943" y="1030" type="line"/>
      <point x="1325" y="1030" type="line"/>
      <point x="1325" y="1173" type="line"/>
      <point x="835" y="1173" type="line"/>
      <point x="836" y="954" type="line"/>
      <point x="831" y="954" type="line"/>
      <point x="802" y="1107"/>
      <point x="702" y="1199"/>
    </contour>
    <component base="MatraIDflt.tm" xOffset="1153"/>
    <component base="RaBeak_Nonexporting" xOffset="1097"/>
  </outline>
</glyph>
<glyph name="LlaMatraU.tm" format="2">
  <advance width="2216"/>
  <note>
LlaMatraU.tm
</note>
  <outline>
    <contour>
      <point x="1930" y="810" type="curve" smooth="yes"/>
      <point x="1821" y="810"/>
      <point x="1758" y="747"/>
      <point x="1739" y="653" type="curve"/>
      <point x="1715" y="653" type="line"/>
      <point x="1715" y="508" type="line"/>
      <point x="1727" y="508" type="line"/>
      <point x="1738" y="599"/>
      <point x="1782" y="660"/>
      <point x="1856" y="660" type="curve" smooth="yes"/>
      <point x="1942" y="660"/>
      <point x="1967" y="597"/>
      <point x="1967" y="466" type="curve" smooth="yes"/>
      <point x="1967" y="363" type="line" smooth="yes"/>
      <point x="1967" y="-127"/>
      <point x="1783" y="-328"/>
      <point x="1220" y="-328" type="curve" smooth="yes"/>
      <point x="1141" y="-328" type="line" smooth="yes"/>
      <point x="510" y="-328"/>
      <point x="271" y="-77"/>
      <point x="271" y="496" type="curve" smooth="yes"/>
      <point x="271" y="770"/>
      <point x="274" y="991"/>
      <point x="277" y="1173" type="curve"/>
      <point x="112" y="1173" type="line"/>
      <point x="109" y="1005"/>
      <point x="106" y="778"/>
      <point x="106" y="491" type="curve" smooth="yes"/>
      <point x="106" y="-172"/>
      <point x="420" y="-478"/>
      <point x="1146" y="-478" type="curve" smooth="yes"/>
      <point x="1214" y="-478" type="line" smooth="yes"/>
      <point x="1877" y="-478"/>
      <point x="2132" y="-225"/>
      <point x="2132" y="357" type="curve" smooth="yes"/>
      <point x="2132" y="490" type="line" smooth="yes"/>
      <point x="2132" y="703"/>
      <point x="2073" y="810"/>
    </contour>
    <contour>
      <point x="1570" y="1135" type="line"/>
      <point x="1570" y="0" type="line"/>
      <point x="1735" y="0" type="line"/>
      <point x="1735" y="1135" type="line"/>
    </contour>
    <contour>
      <point x="905" y="1199" type="curve" smooth="yes"/>
      <point x="631" y="1199"/>
      <point x="489" y="1023"/>
      <point x="489" y="693" type="curve" smooth="yes"/>
      <point x="489" y="279" type="line" smooth="yes"/>
      <point x="489" y="89"/>
      <point x="573" y="-22"/>
      <point x="750" y="-22" type="curve" smooth="yes"/>
      <point x="930" y="-22"/>
      <point x="1010" y="87"/>
      <point x="1010" y="274" type="curve" smooth="yes"/>
      <point x="1010" y="552" type="line" smooth="yes"/>
      <point x="1010" y="722"/>
      <point x="953" y="810"/>
      <point x="827" y="810" type="curve" smooth="yes"/>
      <point x="724" y="810"/>
      <point x="664" y="740"/>
      <point x="648" y="656" type="curve"/>
      <point x="640" y="656" type="line"/>
      <point x="643" y="546" type="line"/>
      <point x="657" y="616"/>
      <point x="698" y="660"/>
      <point x="755" y="660" type="curve" smooth="yes"/>
      <point x="821" y="660"/>
      <point x="850" y="612"/>
      <point x="850" y="519" type="curve" smooth="yes"/>
      <point x="850" y="268" type="line" smooth="yes"/>
      <point x="850" y="165"/>
      <point x="821" y="116"/>
      <point x="750" y="116" type="curve" smooth="yes"/>
      <point x="679" y="116"/>
      <point x="649" y="165"/>
      <point x="649" y="268" type="curve"/>
      <point x="649" y="656" type="line"/>
      <point x="644" y="656" type="line"/>
      <point x="644" y="675"/>
      <point x="644" y="690"/>
      <point x="644" y="709" type="curve" smooth="yes"/>
      <point x="644" y="934"/>
      <point x="730" y="1050"/>
      <point x="918" y="1050" type="curve" smooth="yes"/>
      <point x="1105" y="1050"/>
      <point x="1175" y="925"/>
      <point x="1175" y="696" type="curve" smooth="yes"/>
      <point x="1175" y="0" type="line"/>
      <point x="1340" y="0" type="line"/>
      <point x="1340" y="1030" type="line"/>
      <point x="1815" y="1030" type="line"/>
      <point x="1815" y="1173" type="line"/>
      <point x="1236" y="1173" type="line"/>
      <point x="1232" y="973" type="line"/>
      <point x="1227" y="973" type="line"/>
      <point x="1191" y="1113"/>
      <point x="1092" y="1199"/>
    </contour>
    <component base="RaBeak_Nonexporting" xOffset="1624"/>
  </outline>
</glyph>
<glyph name="LllaMatraI_Simple.tm" format="2">
  <advance width="1547"/>
  <note>
LllaMatraI.tm
</note>
  <anchor x="593" y="1243" name="top"/>
  <outline>
    <contour>
      <point x="512" y="85" type="line"/>
      <point x="512" y="-10" type="line" smooth="yes"/>
      <point x="512" y="-137"/>
      <point x="494" y="-178"/>
      <point x="383" y="-178" type="curve" smooth="yes"/>
      <point x="19" y="-178" type="line"/>
      <point x="38" y="-319" type="line"/>
      <point x="394" y="-319" type="line" smooth="yes"/>
      <point x="526" y="-319"/>
      <point x="577" y="-277"/>
      <point x="589" y="-152" type="curve"/>
      <point x="594" y="-152" type="line"/>
      <point x="608" y="-277"/>
      <point x="660" y="-319"/>
      <point x="761" y="-319" type="curve" smooth="yes"/>
      <point x="957" y="-319" type="line"/>
      <point x="975" y="-181" type="line"/>
      <point x="801" y="-181" type="line" smooth="yes"/>
      <point x="700" y="-181"/>
      <point x="673" y="-139"/>
      <point x="673" y="-10" type="curve" smooth="yes"/>
      <point x="673" y="85" type="line"/>
    </contour>
    <component base="MaMatraI.tm"/>
  </outline>
</glyph>
<glyph name="LllaMatraU_Simple.tm" format="2">
  <advance width="1546"/>
  <note>
LllaMatraU.tm
</note>
  <anchor x="977" y="1243" name="top"/>
  <outline>
    <contour>
      <point x="110" y="1173" type="line"/>
      <point x="110" y="123" type="line" smooth="yes"/>
      <point x="110" y="-308"/>
      <point x="304" y="-513"/>
      <point x="699" y="-513" type="curve" smooth="yes"/>
      <point x="947" y="-513"/>
      <point x="1093" y="-428"/>
      <point x="1207" y="-294" type="curve" smooth="yes"/>
      <point x="1217" y="-283" type="line" smooth="yes"/>
      <point x="1236" y="-261"/>
      <point x="1246" y="-254"/>
      <point x="1273" y="-254" type="curve" smooth="yes"/>
      <point x="1331" y="-254" type="line"/>
      <point x="1349" y="-130" type="line"/>
      <point x="1181" y="-130" type="line" smooth="yes"/>
      <point x="1080" y="-130"/>
      <point x="1055" y="-95"/>
      <point x="1055" y="1" type="curve" smooth="yes"/>
      <point x="1055" y="105" type="line"/>
      <point x="898" y="105" type="line"/>
      <point x="898" y="-9" type="line" smooth="yes"/>
      <point x="898" y="-152"/>
      <point x="948" y="-214"/>
      <point x="1050" y="-222" type="curve"/>
      <point x="1050" y="-227" type="line"/>
      <point x="1037" y="-229"/>
      <point x="1027" y="-235"/>
      <point x="1010" y="-250" type="curve" smooth="yes"/>
      <point x="1002" y="-258" type="line" smooth="yes"/>
      <point x="941" y="-319"/>
      <point x="860" y="-367"/>
      <point x="702" y="-367" type="curve" smooth="yes"/>
      <point x="401" y="-367"/>
      <point x="275" y="-207"/>
      <point x="275" y="114" type="curve" smooth="yes"/>
      <point x="275" y="1173" type="line"/>
    </contour>
    <component base="Ma.tm" xOffset="384"/>
  </outline>
</glyph>
<glyph name="MaMatraI.tm" format="2">
  <advance width="1547"/>
  <note>
MaMatraI.tm
</note>
  <anchor x="593" y="1243" name="top"/>
  <outline>
    <contour>
      <point x="1087" y="1699" type="curve" smooth="yes"/>
      <point x="851" y="1699"/>
      <point x="736" y="1559"/>
      <point x="736" y="1322" type="curve" smooth="yes"/>
      <point x="736" y="1269" type="line" smooth="yes"/>
      <point x="736" y="1218"/>
      <point x="744" y="1179"/>
      <point x="769" y="1150" type="curve"/>
      <point x="933" y="1130" type="line"/>
      <point x="905" y="1161"/>
      <point x="897" y="1189"/>
      <point x="897" y="1250" type="curve" smooth="yes"/>
      <point x="897" y="1301" type="line" smooth="yes"/>
      <point x="897" y="1470"/>
      <point x="953" y="1552"/>
      <point x="1087" y="1552" type="curve" smooth="yes"/>
      <point x="1220" y="1552"/>
      <point x="1270" y="1472"/>
      <point x="1270" y="1289" type="curve" smooth="yes"/>
      <point x="1270" y="0" type="line"/>
      <point x="1435" y="0" type="line"/>
      <point x="1435" y="1303" type="line" smooth="yes"/>
      <point x="1435" y="1559"/>
      <point x="1333" y="1699"/>
    </contour>
    <component base="Ma.tm"/>
  </outline>
</glyph>
<glyph name="MaMatraI_Fly.tm" format="2">
  <advance width="1162"/>
  <note>
MaMatraI.tm
</note>
  <anchor x="593" y="1243" name="top"/>
  <outline>
    <contour>
      <point x="1124" y="1542" type="line"/>
      <point x="893" y="1542" type="line" smooth="yes"/>
      <point x="733" y="1542"/>
      <point x="672" y="1481"/>
      <point x="672" y="1368" type="curve" smooth="yes"/>
      <point x="672" y="1310"/>
      <point x="683" y="1268"/>
      <point x="727" y="1154" type="curve"/>
      <point x="879" y="1154" type="line"/>
      <point x="851" y="1224"/>
      <point x="833" y="1282"/>
      <point x="833" y="1318" type="curve" smooth="yes"/>
      <point x="833" y="1370"/>
      <point x="852" y="1399"/>
      <point x="931" y="1399" type="curve" smooth="yes"/>
      <point x="1145" y="1399" type="line"/>
    </contour>
    <component base="Ma.tm"/>
  </outline>
</glyph>
<glyph name="MaMatraIi.tm" format="2">
  <advance width="1162"/>
  <note>
MaMatraIi.tm
</note>
  <anchor x="593" y="1243" name="top"/>
  <outline>
    <contour>
      <point x="1055" y="1858" type="curve" smooth="yes"/>
      <point x="813" y="1858"/>
      <point x="709" y="1719"/>
      <point x="709" y="1484" type="curve" smooth="yes"/>
      <point x="709" y="1347" type="line" smooth="yes"/>
      <point x="709" y="1260"/>
      <point x="720" y="1196"/>
      <point x="762" y="1152" type="curve"/>
      <point x="912" y="1142" type="line"/>
      <point x="871" y="1187"/>
      <point x="861" y="1232"/>
      <point x="861" y="1319" type="curve" smooth="yes"/>
      <point x="861" y="1474" type="line" smooth="yes"/>
      <point x="861" y="1640"/>
      <point x="916" y="1725"/>
      <point x="1044" y="1730" type="curve"/>
      <point x="1044" y="1724" type="line"/>
      <point x="1060" y="1726"/>
      <point x="1073" y="1728"/>
      <point x="1087" y="1728" type="curve" smooth="yes"/>
      <point x="1192" y="1728"/>
      <point x="1225" y="1668"/>
      <point x="1225" y="1552" type="curve" smooth="yes"/>
      <point x="1225" y="1478" type="line" smooth="yes"/>
      <point x="1225" y="1409"/>
      <point x="1203" y="1375"/>
      <point x="1155" y="1375" type="curve" smooth="yes"/>
      <point x="1105" y="1375"/>
      <point x="1083" y="1409"/>
      <point x="1083" y="1478" type="curve" smooth="yes"/>
      <point x="1083" y="1584" type="line" smooth="yes"/>
      <point x="1083" y="1656"/>
      <point x="1094" y="1702"/>
      <point x="1130" y="1734" type="curve"/>
      <point x="1044" y="1734" type="line"/>
      <point x="1044" y="1728" type="line"/>
      <point x="977" y="1692"/>
      <point x="951" y="1635"/>
      <point x="951" y="1534" type="curve" smooth="yes"/>
      <point x="951" y="1475" type="line" smooth="yes"/>
      <point x="951" y="1339"/>
      <point x="1015" y="1263"/>
      <point x="1155" y="1263" type="curve" smooth="yes"/>
      <point x="1303" y="1263"/>
      <point x="1369" y="1343"/>
      <point x="1369" y="1488" type="curve" smooth="yes"/>
      <point x="1369" y="1539" type="line" smooth="yes"/>
      <point x="1369" y="1739"/>
      <point x="1285" y="1858"/>
    </contour>
    <component base="Ma.tm"/>
  </outline>
</glyph>
<glyph name="MaMatraIi_SimpleIi.tm" format="2">
  <advance width="1162"/>
  <note>
MaMatraIi.tm
</note>
  <anchor x="593" y="1243" name="top"/>
  <outline>
    <contour>
      <point x="947" y="1818" type="curve" smooth="yes"/>
      <point x="786" y="1818"/>
      <point x="709" y="1721"/>
      <point x="709" y="1555" type="curve" smooth="yes"/>
      <point x="709" y="1314" type="line" smooth="yes"/>
      <point x="709" y="1233"/>
      <point x="720" y="1182"/>
      <point x="763" y="1150" type="curve"/>
      <point x="917" y="1140" type="line"/>
      <point x="877" y="1177"/>
      <point x="867" y="1215"/>
      <point x="867" y="1301" type="curve" smooth="yes"/>
      <point x="867" y="1443" type="line"/>
      <point x="867" y="1586" type="line" smooth="yes"/>
      <point x="867" y="1652"/>
      <point x="893" y="1687"/>
      <point x="947" y="1687" type="curve" smooth="yes"/>
      <point x="1000" y="1687"/>
      <point x="1021" y="1652"/>
      <point x="1021" y="1588" type="curve" smooth="yes"/>
      <point x="1021" y="1490" type="line" smooth="yes"/>
      <point x="1021" y="1430"/>
      <point x="1001" y="1397"/>
      <point x="949" y="1397" type="curve" smooth="yes"/>
      <point x="910" y="1397"/>
      <point x="877" y="1421"/>
      <point x="864" y="1457" type="curve"/>
      <point x="858" y="1457" type="line"/>
      <point x="863" y="1398" type="line"/>
      <point x="874" y="1398" type="line"/>
      <point x="901" y="1322" type="line"/>
      <point x="923" y="1298"/>
      <point x="966" y="1279"/>
      <point x="1018" y="1279" type="curve" smooth="yes"/>
      <point x="1127" y="1279"/>
      <point x="1176" y="1352"/>
      <point x="1176" y="1484" type="curve" smooth="yes"/>
      <point x="1176" y="1575" type="line" smooth="yes"/>
      <point x="1176" y="1727"/>
      <point x="1110" y="1818"/>
    </contour>
    <component base="Ma.tm"/>
  </outline>
</glyph>
<glyph name="MaMatraU.tm" format="2">
  <advance width="1549"/>
  <note>
MaMatraU.tm
</note>
  <anchor x="980" y="1243" name="top"/>
  <outline>
    <contour>
      <point x="112" y="1173" type="line"/>
      <point x="112" y="927"/>
      <point x="112" y="683"/>
      <point x="112" y="101" type="curve" smooth="yes"/>
      <point x="112" y="-258"/>
      <point x="277" y="-429"/>
      <point x="606" y="-429" type="curve" smooth="yes"/>
      <point x="606" y="-429" type="line" smooth="yes"/>
      <point x="934" y="-429"/>
      <point x="1061" y="-256"/>
      <point x="1061" y="65" type="curve"/>
      <point x="1061" y="127" type="line"/>
      <point x="896" y="127" type="line"/>
      <point x="896" y="68" type="line"/>
      <point x="896" y="-168"/>
      <point x="821" y="-284"/>
      <point x="606" y="-284" type="curve" smooth="yes"/>
      <point x="606" y="-284" type="line" smooth="yes"/>
      <point x="376" y="-284"/>
      <point x="277" y="-160"/>
      <point x="277" y="88" type="curve" smooth="yes"/>
      <point x="277" y="665"/>
      <point x="277" y="900"/>
      <point x="277" y="1173" type="curve"/>
    </contour>
    <component base="Ma.tm" xOffset="387"/>
  </outline>
</glyph>
<glyph name="MatraAiComponent_Nonexporting" format="2">
  <advance width="1001"/>
  <outline>
    <contour>
      <point x="472" y="1534" type="curve" smooth="yes"/>
      <point x="182" y="1534"/>
      <point x="81" y="1402"/>
      <point x="81" y="1177" type="curve" smooth="yes"/>
      <point x="81" y="1023" type="line" smooth="yes"/>
      <point x="81" y="857"/>
      <point x="156" y="766"/>
      <point x="322" y="766" type="curve" smooth="yes"/>
      <point x="480" y="766"/>
      <point x="555" y="854"/>
      <point x="555" y="1016" type="curve" smooth="yes"/>
      <point x="555" y="1178" type="line" smooth="yes"/>
      <point x="555" y="1297"/>
      <point x="532" y="1373"/>
      <point x="460" y="1404" type="curve"/>
      <point x="460" y="1417" type="line"/>
      <point x="377" y="1410" type="line"/>
      <point x="402" y="1371"/>
      <point x="410" y="1313"/>
      <point x="410" y="1223" type="curve" smooth="yes"/>
      <point x="410" y="1024" type="line" smooth="yes"/>
      <point x="410" y="939"/>
      <point x="382" y="898"/>
      <point x="322" y="898" type="curve" smooth="yes"/>
      <point x="264" y="898"/>
      <point x="236" y="939"/>
      <point x="236" y="1024" type="curve" smooth="yes"/>
      <point x="236" y="1190" type="line" smooth="yes"/>
      <point x="236" y="1330"/>
      <point x="279" y="1400"/>
      <point x="409" y="1404" type="curve" smooth="yes"/>
      <point x="426" y="1404"/>
      <point x="442" y="1404"/>
      <point x="460" y="1402" type="curve"/>
      <point x="460" y="1408" type="line"/>
      <point x="637" y="1407"/>
      <point x="701" y="1327"/>
      <point x="701" y="1113" type="curve" smooth="yes"/>
      <point x="701" y="954" type="line" smooth="yes"/>
      <point x="701" y="785"/>
      <point x="654" y="705"/>
      <point x="484" y="643" type="curve" smooth="yes"/>
      <point x="369" y="601" type="line" smooth="yes"/>
      <point x="167" y="527"/>
      <point x="81" y="457"/>
      <point x="81" y="288" type="curve" smooth="yes"/>
      <point x="81" y="259" type="line" smooth="yes"/>
      <point x="81" y="75"/>
      <point x="194" y="-28"/>
      <point x="444" y="-28" type="curve" smooth="yes"/>
      <point x="642" y="-28"/>
      <point x="830" y="34"/>
      <point x="1001" y="112" type="curve"/>
      <point x="1001" y="271" type="line"/>
      <point x="818" y="186"/>
      <point x="628" y="118"/>
      <point x="444" y="118" type="curve" smooth="yes"/>
      <point x="297" y="118"/>
      <point x="241" y="170"/>
      <point x="241" y="265" type="curve" smooth="yes"/>
      <point x="241" y="285" type="line" smooth="yes"/>
      <point x="241" y="386"/>
      <point x="302" y="424"/>
      <point x="428" y="472" type="curve" smooth="yes"/>
      <point x="548" y="518" type="line" smooth="yes"/>
      <point x="800" y="615"/>
      <point x="866" y="723"/>
      <point x="866" y="971" type="curve" smooth="yes"/>
      <point x="866" y="1120" type="line" smooth="yes"/>
      <point x="866" y="1386"/>
      <point x="765" y="1534"/>
    </contour>
  </outline>
</glyph>
<glyph name="MatraEe_Fused.tm" format="2">
  <advance width="948"/>
  <note>
MatraEe.tm
</note>
  <outline>
    <contour>
      <point x="520" y="1434" type="curve" smooth="yes"/>
      <point x="219" y="1434"/>
      <point x="100" y="1265"/>
      <point x="100" y="979" type="curve" smooth="yes"/>
      <point x="100" y="437" type="line"/>
      <point x="100" y="151"/>
      <point x="219" y="-18"/>
      <point x="520" y="-18" type="curve" smooth="yes"/>
      <point x="776" y="-18"/>
      <point x="865" y="116"/>
      <point x="865" y="343" type="curve" smooth="yes"/>
      <point x="865" y="487" type="line" smooth="yes"/>
      <point x="865" y="635"/>
      <point x="795" y="721"/>
      <point x="650" y="721" type="curve"/>
      <point x="621" y="721" type="line"/>
      <point x="477" y="721"/>
      <point x="404" y="634"/>
      <point x="404" y="486" type="curve"/>
      <point x="404" y="318" type="line" smooth="yes"/>
      <point x="404" y="217"/>
      <point x="430" y="156"/>
      <point x="501" y="115" type="curve"/>
      <point x="501" y="104" type="line"/>
      <point x="596" y="105" type="line"/>
      <point x="561" y="142"/>
      <point x="548" y="193"/>
      <point x="548" y="261" type="curve" smooth="yes"/>
      <point x="548" y="498" type="line" smooth="yes"/>
      <point x="548" y="580"/>
      <point x="575" y="621"/>
      <point x="631" y="621" type="curve" smooth="yes"/>
      <point x="687" y="621"/>
      <point x="712" y="580"/>
      <point x="712" y="498" type="curve" smooth="yes"/>
      <point x="712" y="314" type="line" smooth="yes"/>
      <point x="712" y="183"/>
      <point x="679" y="112"/>
      <point x="558" y="112" type="curve" smooth="yes"/>
      <point x="537" y="112"/>
      <point x="523" y="113"/>
      <point x="501" y="115" type="curve"/>
      <point x="501" y="111" type="line"/>
      <point x="329" y="118"/>
      <point x="263" y="231"/>
      <point x="263" y="420" type="curve"/>
      <point x="263" y="996" type="line" smooth="yes"/>
      <point x="263" y="1185"/>
      <point x="329" y="1298"/>
      <point x="501" y="1305" type="curve"/>
      <point x="501" y="1299" type="line"/>
      <point x="521" y="1302"/>
      <point x="537" y="1304"/>
      <point x="558" y="1304" type="curve" smooth="yes"/>
      <point x="679" y="1304"/>
      <point x="712" y="1233"/>
      <point x="712" y="1102" type="curve" smooth="yes"/>
      <point x="712" y="918" type="line" smooth="yes"/>
      <point x="712" y="836"/>
      <point x="687" y="795"/>
      <point x="631" y="795" type="curve" smooth="yes"/>
      <point x="575" y="795"/>
      <point x="548" y="836"/>
      <point x="548" y="918" type="curve" smooth="yes"/>
      <point x="548" y="1155" type="line" smooth="yes"/>
      <point x="548" y="1223"/>
      <point x="561" y="1274"/>
      <point x="596" y="1311" type="curve"/>
      <point x="501" y="1312" type="line"/>
      <point x="501" y="1301" type="line"/>
      <point x="430" y="1260"/>
      <point x="404" y="1199"/>
      <point x="404" y="1098" type="curve" smooth="yes"/>
      <point x="404" y="930" type="line"/>
      <point x="404" y="781"/>
      <point x="477" y="694"/>
      <point x="621" y="694" type="curve"/>
      <point x="650" y="694" type="line"/>
      <point x="795" y="694"/>
      <point x="865" y="780"/>
      <point x="865" y="929" type="curve" smooth="yes"/>
      <point x="865" y="1073" type="line" smooth="yes"/>
      <point x="865" y="1300"/>
      <point x="776" y="1434"/>
    </contour>
  </outline>
</glyph>
<glyph name="MatraIiDflt_SimpleIi.tm" format="2">
  <note>
MatraIiDflt.tm
</note>
  <outline>
    <contour>
      <point x="238" y="1818" type="curve" smooth="yes"/>
      <point x="77" y="1818"/>
      <point x="0" y="1721"/>
      <point x="0" y="1555" type="curve" smooth="yes"/>
      <point x="0" y="1351" type="line" smooth="yes"/>
      <point x="0" y="1258"/>
      <point x="11" y="1199"/>
      <point x="49" y="1165" type="curve"/>
      <point x="207" y="1165" type="line"/>
      <point x="169" y="1203"/>
      <point x="158" y="1243"/>
      <point x="158" y="1337" type="curve" smooth="yes"/>
      <point x="158" y="1443" type="line"/>
      <point x="158" y="1586" type="line" smooth="yes"/>
      <point x="158" y="1652"/>
      <point x="185" y="1687"/>
      <point x="238" y="1687" type="curve" smooth="yes"/>
      <point x="292" y="1687"/>
      <point x="312" y="1652"/>
      <point x="312" y="1588" type="curve" smooth="yes"/>
      <point x="312" y="1490" type="line" smooth="yes"/>
      <point x="312" y="1430"/>
      <point x="292" y="1397"/>
      <point x="241" y="1397" type="curve" smooth="yes"/>
      <point x="201" y="1397"/>
      <point x="168" y="1421"/>
      <point x="155" y="1457" type="curve"/>
      <point x="150" y="1457" type="line"/>
      <point x="155" y="1398" type="line"/>
      <point x="165" y="1398" type="line"/>
      <point x="192" y="1322" type="line"/>
      <point x="214" y="1298"/>
      <point x="258" y="1279"/>
      <point x="309" y="1279" type="curve" smooth="yes"/>
      <point x="418" y="1279"/>
      <point x="467" y="1352"/>
      <point x="467" y="1484" type="curve" smooth="yes"/>
      <point x="467" y="1575" type="line" smooth="yes"/>
      <point x="467" y="1727"/>
      <point x="402" y="1818"/>
    </contour>
  </outline>
</glyph>
<glyph name="NaMatraU_Simple.tm" format="2">
  <advance width="1555"/>
  <note>
NaMatraU.tm
</note>
  <outline>
    <contour>
      <point x="511" y="1130" type="line"/>
      <point x="511" y="0" type="line"/>
      <point x="676" y="0" type="line"/>
      <point x="676" y="1130" type="line"/>
    </contour>
    <contour>
      <point x="869" y="810" type="curve" smooth="yes"/>
      <point x="760" y="810"/>
      <point x="699" y="743"/>
      <point x="681" y="653" type="curve"/>
      <point x="656" y="653" type="line"/>
      <point x="656" y="508" type="line"/>
      <point x="669" y="508" type="line"/>
      <point x="680" y="599"/>
      <point x="724" y="660"/>
      <point x="798" y="660" type="curve" smooth="yes"/>
      <point x="883" y="660"/>
      <point x="910" y="597"/>
      <point x="910" y="467" type="curve" smooth="yes"/>
      <point x="910" y="205" type="line" smooth="yes"/>
      <point x="910" y="-38"/>
      <point x="847" y="-167"/>
      <point x="622" y="-176" type="curve"/>
      <point x="19" y="-176" type="line"/>
      <point x="38" y="-319" type="line"/>
      <point x="1443" y="-319" type="line"/>
      <point x="1443" y="-176" type="line"/>
      <point x="888" y="-176" type="line"/>
      <point x="888" y="-171" type="line"/>
      <point x="1022" y="-141"/>
      <point x="1074" y="-20"/>
      <point x="1074" y="206" type="curve" smooth="yes"/>
      <point x="1074" y="499" type="line" smooth="yes"/>
      <point x="1074" y="705"/>
      <point x="1018" y="810"/>
    </contour>
    <contour>
      <point x="1278" y="1173" type="line"/>
      <point x="1278" y="-225" type="line"/>
      <point x="1443" y="-225" type="line"/>
      <point x="1443" y="1173" type="line"/>
    </contour>
    <contour>
      <point x="772" y="1173" type="line"/>
      <point x="112" y="1173" type="line"/>
      <point x="112" y="0" type="line"/>
      <point x="277" y="0" type="line"/>
      <point x="277" y="1030" type="line"/>
      <point x="772" y="1030" type="line"/>
    </contour>
    <component base="RaBeak_Nonexporting" xOffset="568"/>
  </outline>
</glyph>
<glyph name="NgaMatraI_SimpleFly.tm" format="2">
  <advance width="1502"/>
  <note>
NgaMatraI.tm
</note>
  <outline>
    <contour>
      <point x="1472" y="1542" type="line"/>
      <point x="1231" y="1542" type="line" smooth="yes"/>
      <point x="1075" y="1542"/>
      <point x="1014" y="1483"/>
      <point x="1014" y="1373" type="curve" smooth="yes"/>
      <point x="1014" y="1319"/>
      <point x="1031" y="1253"/>
      <point x="1049" y="1192" type="curve" smooth="yes"/>
      <point x="1088" y="1065"/>
      <point x="1112" y="1036"/>
      <point x="1253" y="1036" type="curve" smooth="yes"/>
      <point x="1291" y="1036" type="line"/>
      <point x="1319" y="1173" type="line"/>
      <point x="1278" y="1173" type="line" smooth="yes"/>
      <point x="1225" y="1173"/>
      <point x="1217" y="1178"/>
      <point x="1201" y="1224" type="curve" smooth="yes"/>
      <point x="1189" y="1257"/>
      <point x="1180" y="1300"/>
      <point x="1180" y="1323" type="curve" smooth="yes"/>
      <point x="1180" y="1372"/>
      <point x="1198" y="1399"/>
      <point x="1274" y="1399" type="curve" smooth="yes"/>
      <point x="1492" y="1399" type="line"/>
    </contour>
    <contour>
      <point x="517" y="1130" type="line"/>
      <point x="517" y="0" type="line"/>
      <point x="682" y="0" type="line"/>
      <point x="682" y="1130" type="line"/>
    </contour>
    <contour>
      <point x="866" y="810" type="curve" smooth="yes"/>
      <point x="760" y="810"/>
      <point x="703" y="743"/>
      <point x="686" y="660" type="curve"/>
      <point x="674" y="651" type="line"/>
      <point x="674" y="533" type="line"/>
      <point x="678" y="543" type="line"/>
      <point x="691" y="619"/>
      <point x="734" y="664"/>
      <point x="794" y="664" type="curve" smooth="yes"/>
      <point x="865" y="664"/>
      <point x="895" y="615"/>
      <point x="895" y="517" type="curve" smooth="yes"/>
      <point x="895" y="326" type="line" smooth="yes"/>
      <point x="895" y="182"/>
      <point x="874" y="101"/>
      <point x="823" y="12" type="curve"/>
      <point x="823" y="0" type="line"/>
      <point x="1330" y="0" type="line"/>
      <point x="1330" y="141" type="line"/>
      <point x="984" y="141" type="line"/>
      <point x="990" y="90" type="line"/>
      <point x="1038" y="164"/>
      <point x="1054" y="225"/>
      <point x="1054" y="358" type="curve" smooth="yes"/>
      <point x="1054" y="550" type="line" smooth="yes"/>
      <point x="1054" y="723"/>
      <point x="997" y="810"/>
    </contour>
    <contour>
      <point x="1224" y="1173" type="line"/>
      <point x="1224" y="0" type="line"/>
      <point x="1389" y="0" type="line"/>
      <point x="1389" y="1173" type="line"/>
    </contour>
    <contour>
      <point x="777" y="1173" type="line"/>
      <point x="112" y="1173" type="line"/>
      <point x="112" y="0" type="line"/>
      <point x="277" y="0" type="line"/>
      <point x="277" y="1030" type="line"/>
      <point x="777" y="1030" type="line"/>
    </contour>
    <component base="RaBeak_Nonexporting" xOffset="569"/>
  </outline>
</glyph>
<glyph name="NgaMatraIi.tm" format="2">
  <advance width="1583"/>
  <note>
NgaMatraIi.tm
</note>
  <outline>
    <contour>
      <point x="517" y="1130" type="line"/>
      <point x="517" y="0" type="line"/>
      <point x="682" y="0" type="line"/>
      <point x="682" y="1130" type="line"/>
    </contour>
    <contour>
      <point x="866" y="810" type="curve" smooth="yes"/>
      <point x="760" y="810"/>
      <point x="703" y="743"/>
      <point x="686" y="660" type="curve"/>
      <point x="674" y="660" type="line"/>
      <point x="674" y="533" type="line"/>
      <point x="678" y="533" type="line"/>
      <point x="691" y="610"/>
      <point x="734" y="656"/>
      <point x="794" y="656" type="curve" smooth="yes"/>
      <point x="865" y="656"/>
      <point x="895" y="606"/>
      <point x="895" y="507" type="curve" smooth="yes"/>
      <point x="895" y="326" type="line" smooth="yes"/>
      <point x="895" y="182"/>
      <point x="874" y="101"/>
      <point x="823" y="12" type="curve"/>
      <point x="823" y="0" type="line"/>
      <point x="1330" y="0" type="line"/>
      <point x="1330" y="141" type="line"/>
      <point x="984" y="141" type="line"/>
      <point x="990" y="90" type="line"/>
      <point x="1038" y="164"/>
      <point x="1054" y="225"/>
      <point x="1054" y="358" type="curve" smooth="yes"/>
      <point x="1054" y="550" type="line" smooth="yes"/>
      <point x="1054" y="723"/>
      <point x="997" y="810"/>
    </contour>
    <contour>
      <point x="1305" y="1173" type="line"/>
      <point x="1305" y="0" type="line"/>
      <point x="1470" y="0" type="line"/>
      <point x="1470" y="1173" type="line"/>
    </contour>
    <contour>
      <point x="784" y="1173" type="line"/>
      <point x="112" y="1173" type="line"/>
      <point x="112" y="0" type="line"/>
      <point x="277" y="0" type="line"/>
      <point x="277" y="1030" type="line"/>
      <point x="784" y="1030" type="line"/>
    </contour>
    <contour>
      <point x="1394" y="1858" type="curve" smooth="yes"/>
      <point x="1118" y="1858"/>
      <point x="1003" y="1704"/>
      <point x="1003" y="1433" type="curve" smooth="yes"/>
      <point x="1003" y="1149" type="line" smooth="yes"/>
      <point x="1003" y="905"/>
      <point x="1079" y="771"/>
      <point x="1311" y="738" type="curve"/>
      <point x="1311" y="897" type="line"/>
      <point x="1198" y="919"/>
      <point x="1167" y="1007"/>
      <point x="1167" y="1137" type="curve" smooth="yes"/>
      <point x="1167" y="1429" type="line" smooth="yes"/>
      <point x="1167" y="1630"/>
      <point x="1234" y="1727"/>
      <point x="1396" y="1730" type="curve"/>
      <point x="1396" y="1724" type="line"/>
      <point x="1412" y="1726"/>
      <point x="1425" y="1728"/>
      <point x="1439" y="1728" type="curve" smooth="yes"/>
      <point x="1544" y="1728"/>
      <point x="1577" y="1668"/>
      <point x="1577" y="1552" type="curve" smooth="yes"/>
      <point x="1577" y="1478" type="line" smooth="yes"/>
      <point x="1577" y="1409"/>
      <point x="1555" y="1375"/>
      <point x="1507" y="1375" type="curve" smooth="yes"/>
      <point x="1457" y="1375"/>
      <point x="1435" y="1409"/>
      <point x="1435" y="1478" type="curve" smooth="yes"/>
      <point x="1435" y="1584" type="line" smooth="yes"/>
      <point x="1435" y="1656"/>
      <point x="1446" y="1702"/>
      <point x="1482" y="1734" type="curve"/>
      <point x="1396" y="1734" type="line"/>
      <point x="1396" y="1728" type="line"/>
      <point x="1329" y="1692"/>
      <point x="1303" y="1635"/>
      <point x="1303" y="1534" type="curve" smooth="yes"/>
      <point x="1303" y="1475" type="line" smooth="yes"/>
      <point x="1303" y="1339"/>
      <point x="1367" y="1263"/>
      <point x="1507" y="1263" type="curve" smooth="yes"/>
      <point x="1655" y="1263"/>
      <point x="1721" y="1343"/>
      <point x="1721" y="1488" type="curve" smooth="yes"/>
      <point x="1721" y="1539" type="line" smooth="yes"/>
      <point x="1721" y="1739"/>
      <point x="1636" y="1858"/>
    </contour>
    <component base="RaBeak_Nonexporting" xOffset="508"/>
  </outline>
</glyph>
<glyph name="NgaMatraIi_SimpleIi.tm" format="2">
  <advance width="1506"/>
  <note>
NgaMatraIi.tm
</note>
  <outline>
    <contour>
      <point x="517" y="1130" type="line"/>
      <point x="517" y="0" type="line"/>
      <point x="682" y="0" type="line"/>
      <point x="682" y="1130" type="line"/>
    </contour>
    <contour>
      <point x="1229" y="1173" type="line"/>
      <point x="1229" y="0" type="line"/>
      <point x="1394" y="0" type="line"/>
      <point x="1394" y="1173" type="line"/>
    </contour>
    <contour>
      <point x="1218" y="1818" type="curve" smooth="yes"/>
      <point x="1057" y="1818"/>
      <point x="980" y="1721"/>
      <point x="980" y="1555" type="curve"/>
      <point x="980" y="1352" type="line"/>
      <point x="980" y="1143"/>
      <point x="1037" y="1029"/>
      <point x="1218" y="1029" type="curve"/>
      <point x="1264" y="1029" type="line"/>
      <point x="1264" y="1173" type="line"/>
      <point x="1253" y="1173" type="line"/>
      <point x="1168" y="1173"/>
      <point x="1138" y="1220"/>
      <point x="1138" y="1334" type="curve"/>
      <point x="1138" y="1443" type="line"/>
      <point x="1138" y="1586" type="line" smooth="yes"/>
      <point x="1138" y="1652"/>
      <point x="1165" y="1687"/>
      <point x="1218" y="1687" type="curve" smooth="yes"/>
      <point x="1272" y="1687"/>
      <point x="1292" y="1652"/>
      <point x="1292" y="1588" type="curve" smooth="yes"/>
      <point x="1292" y="1489" type="line" smooth="yes"/>
      <point x="1292" y="1430"/>
      <point x="1272" y="1397"/>
      <point x="1221" y="1397" type="curve" smooth="yes"/>
      <point x="1181" y="1397"/>
      <point x="1148" y="1421"/>
      <point x="1135" y="1457" type="curve"/>
      <point x="1130" y="1457" type="line"/>
      <point x="1135" y="1398" type="line"/>
      <point x="1145" y="1398" type="line"/>
      <point x="1172" y="1322" type="line"/>
      <point x="1194" y="1298"/>
      <point x="1238" y="1279"/>
      <point x="1289" y="1279" type="curve" smooth="yes"/>
      <point x="1398" y="1279"/>
      <point x="1447" y="1352"/>
      <point x="1447" y="1483" type="curve" smooth="yes"/>
      <point x="1447" y="1574" type="line" smooth="yes"/>
      <point x="1447" y="1727"/>
      <point x="1382" y="1818"/>
    </contour>
    <contour>
      <point x="805" y="1173" type="line"/>
      <point x="112" y="1173" type="line"/>
      <point x="112" y="0" type="line"/>
      <point x="277" y="0" type="line"/>
      <point x="277" y="1030" type="line"/>
      <point x="805" y="1030" type="line"/>
    </contour>
    <contour>
      <point x="866" y="810" type="curve" smooth="yes"/>
      <point x="760" y="810"/>
      <point x="703" y="743"/>
      <point x="686" y="660" type="curve"/>
      <point x="674" y="660" type="line"/>
      <point x="674" y="533" type="line"/>
      <point x="678" y="533" type="line"/>
      <point x="691" y="610"/>
      <point x="734" y="656"/>
      <point x="794" y="656" type="curve" smooth="yes"/>
      <point x="865" y="656"/>
      <point x="895" y="606"/>
      <point x="895" y="507" type="curve" smooth="yes"/>
      <point x="895" y="326" type="line" smooth="yes"/>
      <point x="895" y="182"/>
      <point x="874" y="101"/>
      <point x="823" y="12" type="curve"/>
      <point x="823" y="0" type="line"/>
      <point x="1332" y="0" type="line"/>
      <point x="1332" y="141" type="line"/>
      <point x="984" y="141" type="line"/>
      <point x="990" y="90" type="line"/>
      <point x="1038" y="164"/>
      <point x="1054" y="225"/>
      <point x="1054" y="358" type="curve" smooth="yes"/>
      <point x="1054" y="550" type="line" smooth="yes"/>
      <point x="1054" y="723"/>
      <point x="997" y="810"/>
    </contour>
    <component base="RaBeak_Nonexporting" xOffset="504"/>
  </outline>
</glyph>
<glyph name="NgaMatraUu.tm" format="2">
  <advance width="1743"/>
  <note>
NgaMatraUu.tm
</note>
  <anchor x="824" y="1243" name="top"/>
  <outline>
    <contour>
      <point x="1224" y="260" type="line"/>
      <point x="1224" y="-254" type="line"/>
      <point x="1389" y="-254" type="line"/>
      <point x="1389" y="260" type="line"/>
    </contour>
    <contour>
      <point x="1563" y="245" type="curve" smooth="yes"/>
      <point x="1463" y="245"/>
      <point x="1410" y="182"/>
      <point x="1393" y="106" type="curve"/>
      <point x="1369" y="106" type="line"/>
      <point x="1369" y="-35" type="line"/>
      <point x="1380" y="-35" type="line"/>
      <point x="1390" y="42"/>
      <point x="1427" y="97"/>
      <point x="1492" y="97" type="curve" smooth="yes"/>
      <point x="1560" y="97"/>
      <point x="1582" y="49"/>
      <point x="1582" y="-51" type="curve" smooth="yes"/>
      <point x="1582" y="-73" type="line" smooth="yes"/>
      <point x="1582" y="-382"/>
      <point x="1352" y="-494"/>
      <point x="898" y="-494" type="curve" smooth="yes"/>
      <point x="504" y="-494"/>
      <point x="233" y="-406"/>
      <point x="233" y="-290" type="curve" smooth="yes"/>
      <point x="233" y="-232"/>
      <point x="283" y="-210"/>
      <point x="369" y="-210" type="curve" smooth="yes"/>
      <point x="501" y="-210"/>
      <point x="631" y="-242"/>
      <point x="749" y="-286" type="curve"/>
      <point x="734" y="-149" type="line"/>
      <point x="641" y="-114"/>
      <point x="512" y="-79"/>
      <point x="359" y="-79" type="curve" smooth="yes"/>
      <point x="178" y="-79"/>
      <point x="72" y="-135"/>
      <point x="72" y="-273" type="curve" smooth="yes"/>
      <point x="72" y="-494"/>
      <point x="386" y="-631"/>
      <point x="898" y="-631" type="curve" smooth="yes"/>
      <point x="1482" y="-631"/>
      <point x="1746" y="-452"/>
      <point x="1746" y="-69" type="curve" smooth="yes"/>
      <point x="1746" y="-20" type="line" smooth="yes"/>
      <point x="1746" y="157"/>
      <point x="1695" y="245"/>
    </contour>
    <component base="Nga.tm"/>
  </outline>
</glyph>
<glyph name="NnaMatraI.tm" format="2">
  <advance width="2864"/>
  <note>
NnaMatraI.tm
</note>
  <outline>
    <contour>
      <point x="1373" y="1205" type="curve" smooth="yes"/>
      <point x="1182" y="1205"/>
      <point x="1047" y="1162"/>
      <point x="954" y="1098" type="curve"/>
      <point x="1060" y="1000" type="line"/>
      <point x="1131" y="1038"/>
      <point x="1225" y="1064"/>
      <point x="1373" y="1064" type="curve" smooth="yes"/>
      <point x="1528" y="1064"/>
      <point x="1620" y="1035"/>
      <point x="1685" y="1000" type="curve"/>
      <point x="1694" y="994" type="line"/>
      <point x="1795" y="927"/>
      <point x="1820" y="824"/>
      <point x="1820" y="628" type="curve" smooth="yes"/>
      <point x="1820" y="278" type="line" smooth="yes"/>
      <point x="1820" y="170"/>
      <point x="1787" y="124"/>
      <point x="1715" y="124" type="curve" smooth="yes"/>
      <point x="1640" y="124"/>
      <point x="1605" y="170"/>
      <point x="1605" y="277" type="curve" smooth="yes"/>
      <point x="1605" y="627" type="line" smooth="yes"/>
      <point x="1605" y="823"/>
      <point x="1634" y="927"/>
      <point x="1740" y="994" type="curve"/>
      <point x="1667" y="1086" type="line"/>
      <point x="1497" y="1007"/>
      <point x="1442" y="853"/>
      <point x="1442" y="620" type="curve" smooth="yes"/>
      <point x="1442" y="281" type="line" smooth="yes"/>
      <point x="1442" y="88"/>
      <point x="1528" y="-22"/>
      <point x="1715" y="-22" type="curve" smooth="yes"/>
      <point x="1899" y="-22"/>
      <point x="1983" y="85"/>
      <point x="1983" y="281" type="curve" smooth="yes"/>
      <point x="1983" y="620" type="line" smooth="yes"/>
      <point x="1983" y="854"/>
      <point x="1933" y="1003"/>
      <point x="1789" y="1084" type="curve"/>
      <point x="1788" y="1096" type="line"/>
      <point x="1707" y="1158"/>
      <point x="1568" y="1205"/>
    </contour>
    <contour>
      <point x="2166" y="1059" type="line"/>
      <point x="2166" y="0" type="line"/>
      <point x="2331" y="0" type="line"/>
      <point x="2331" y="1056" type="line"/>
    </contour>
    <contour>
      <point x="2288" y="1173" type="line"/>
      <point x="1949" y="1173" type="line" smooth="yes"/>
      <point x="1876" y="1173"/>
      <point x="1805" y="1165"/>
      <point x="1766" y="1157" type="curve"/>
      <point x="1742" y="1017" type="line"/>
      <point x="1801" y="1028"/>
      <point x="1869" y="1034"/>
      <point x="1947" y="1034" type="curve" smooth="yes"/>
      <point x="2288" y="1034" type="line"/>
    </contour>
    <contour>
      <point x="694" y="1205" type="curve" smooth="yes"/>
      <point x="297" y="1205"/>
      <point x="88" y="1013"/>
      <point x="88" y="638" type="curve" smooth="yes"/>
      <point x="88" y="279" type="line" smooth="yes"/>
      <point x="88" y="89"/>
      <point x="172" y="-22"/>
      <point x="350" y="-22" type="curve" smooth="yes"/>
      <point x="529" y="-22"/>
      <point x="610" y="87"/>
      <point x="610" y="274" type="curve" smooth="yes"/>
      <point x="610" y="552" type="line" smooth="yes"/>
      <point x="610" y="722"/>
      <point x="552" y="810"/>
      <point x="426" y="810" type="curve" smooth="yes"/>
      <point x="323" y="810"/>
      <point x="264" y="740"/>
      <point x="248" y="656" type="curve"/>
      <point x="240" y="656" type="line"/>
      <point x="242" y="546" type="line"/>
      <point x="256" y="616"/>
      <point x="298" y="660"/>
      <point x="354" y="660" type="curve" smooth="yes"/>
      <point x="421" y="660"/>
      <point x="450" y="612"/>
      <point x="450" y="519" type="curve" smooth="yes"/>
      <point x="450" y="268" type="line" smooth="yes"/>
      <point x="450" y="165"/>
      <point x="421" y="116"/>
      <point x="350" y="116" type="curve" smooth="yes"/>
      <point x="279" y="116"/>
      <point x="249" y="165"/>
      <point x="249" y="268" type="curve" smooth="yes"/>
      <point x="249" y="656" type="line"/>
      <point x="243" y="656" type="line"/>
      <point x="243" y="657"/>
      <point x="243" y="657"/>
      <point x="243" y="658" type="curve" smooth="yes"/>
      <point x="243" y="927"/>
      <point x="385" y="1059"/>
      <point x="694" y="1059" type="curve" smooth="yes"/>
      <point x="843" y="1059"/>
      <point x="931" y="1033"/>
      <point x="992" y="998" type="curve"/>
      <point x="1002" y="995" type="line"/>
      <point x="1102" y="928"/>
      <point x="1127" y="825"/>
      <point x="1127" y="628" type="curve" smooth="yes"/>
      <point x="1127" y="278" type="line" smooth="yes"/>
      <point x="1127" y="170"/>
      <point x="1094" y="124"/>
      <point x="1022" y="124" type="curve" smooth="yes"/>
      <point x="947" y="124"/>
      <point x="912" y="170"/>
      <point x="912" y="277" type="curve" smooth="yes"/>
      <point x="912" y="627" type="line" smooth="yes"/>
      <point x="912" y="824"/>
      <point x="941" y="928"/>
      <point x="1047" y="995" type="curve"/>
      <point x="974" y="1088" type="line"/>
      <point x="804" y="1009"/>
      <point x="750" y="854"/>
      <point x="750" y="620" type="curve" smooth="yes"/>
      <point x="750" y="281" type="line" smooth="yes"/>
      <point x="750" y="88"/>
      <point x="835" y="-22"/>
      <point x="1022" y="-22" type="curve" smooth="yes"/>
      <point x="1207" y="-22"/>
      <point x="1290" y="85"/>
      <point x="1290" y="281" type="curve" smooth="yes"/>
      <point x="1290" y="620" type="line" smooth="yes"/>
      <point x="1290" y="855"/>
      <point x="1241" y="1004"/>
      <point x="1097" y="1086" type="curve"/>
      <point x="1096" y="1098" type="line"/>
      <point x="1018" y="1160"/>
      <point x="882" y="1205"/>
    </contour>
    <component base="MatraIDflt.tm" xOffset="2136"/>
    <component base="RaBeak_Nonexporting" xOffset="2080"/>
  </outline>
</glyph>
<glyph name="NnaMatraU_Simple.tm" format="2">
  <advance width="2891"/>
  <note>
NnaMatraU.tm
</note>
  <outline>
    <contour>
      <point x="1377" y="1205" type="curve" smooth="yes"/>
      <point x="1184" y="1205"/>
      <point x="1048" y="1162"/>
      <point x="954" y="1098" type="curve"/>
      <point x="1060" y="1000" type="line"/>
      <point x="1131" y="1038"/>
      <point x="1226" y="1064"/>
      <point x="1377" y="1064" type="curve" smooth="yes"/>
      <point x="1533" y="1064"/>
      <point x="1623" y="1038"/>
      <point x="1685" y="1005" type="curve"/>
      <point x="1695" y="998" type="line"/>
      <point x="1794" y="934"/>
      <point x="1820" y="828"/>
      <point x="1820" y="631" type="curve" smooth="yes"/>
      <point x="1820" y="278" type="line" smooth="yes"/>
      <point x="1820" y="170"/>
      <point x="1787" y="124"/>
      <point x="1715" y="124" type="curve" smooth="yes"/>
      <point x="1640" y="124"/>
      <point x="1605" y="170"/>
      <point x="1605" y="277" type="curve" smooth="yes"/>
      <point x="1605" y="630" type="line" smooth="yes"/>
      <point x="1605" y="828"/>
      <point x="1635" y="933"/>
      <point x="1740" y="998" type="curve"/>
      <point x="1668" y="1091" type="line"/>
      <point x="1499" y="1014"/>
      <point x="1442" y="859"/>
      <point x="1442" y="624" type="curve" smooth="yes"/>
      <point x="1442" y="281" type="line" smooth="yes"/>
      <point x="1442" y="88"/>
      <point x="1528" y="-22"/>
      <point x="1715" y="-22" type="curve" smooth="yes"/>
      <point x="1899" y="-22"/>
      <point x="1983" y="85"/>
      <point x="1983" y="281" type="curve" smooth="yes"/>
      <point x="1983" y="624" type="line" smooth="yes"/>
      <point x="1983" y="859"/>
      <point x="1932" y="1010"/>
      <point x="1789" y="1089" type="curve"/>
      <point x="1788" y="1101" type="line"/>
      <point x="1706" y="1162"/>
      <point x="1571" y="1205"/>
    </contour>
    <contour>
      <point x="2019" y="1205" type="curve" smooth="yes"/>
      <point x="1849" y="1205"/>
      <point x="1721" y="1156"/>
      <point x="1641" y="1092" type="curve"/>
      <point x="1749" y="1003" type="line"/>
      <point x="1824" y="1044"/>
      <point x="1914" y="1066"/>
      <point x="2010" y="1066" type="curve" smooth="yes"/>
      <point x="2163" y="1066"/>
      <point x="2231" y="1001"/>
      <point x="2231" y="850" type="curve" smooth="yes"/>
      <point x="2231" y="802" type="line" smooth="yes"/>
      <point x="2231" y="693"/>
      <point x="2203" y="637"/>
      <point x="2101" y="630" type="curve" smooth="yes"/>
      <point x="2053" y="628" type="line"/>
      <point x="2053" y="491" type="line"/>
      <point x="2097" y="489" type="line" smooth="yes"/>
      <point x="2205" y="483"/>
      <point x="2242" y="440"/>
      <point x="2242" y="298" type="curve" smooth="yes"/>
      <point x="2242" y="203" type="line" smooth="yes"/>
      <point x="2242" y="-40"/>
      <point x="2186" y="-169"/>
      <point x="1945" y="-177" type="curve"/>
      <point x="35" y="-177" type="line"/>
      <point x="54" y="-319" type="line"/>
      <point x="2779" y="-319" type="line"/>
      <point x="2779" y="-179" type="line"/>
      <point x="2213" y="-179" type="line"/>
      <point x="2213" y="-173" type="line"/>
      <point x="2360" y="-143"/>
      <point x="2405" y="-23"/>
      <point x="2405" y="204" type="curve" smooth="yes"/>
      <point x="2405" y="304" type="line" smooth="yes"/>
      <point x="2405" y="485"/>
      <point x="2357" y="553"/>
      <point x="2230" y="563" type="curve"/>
      <point x="2230" y="569" type="line"/>
      <point x="2356" y="581"/>
      <point x="2394" y="676"/>
      <point x="2394" y="819" type="curve" smooth="yes"/>
      <point x="2394" y="868" type="line" smooth="yes"/>
      <point x="2394" y="1099"/>
      <point x="2283" y="1205"/>
    </contour>
    <contour>
      <point x="2614" y="1173" type="line"/>
      <point x="2614" y="-227" type="line"/>
      <point x="2779" y="-227" type="line"/>
      <point x="2779" y="1173" type="line"/>
    </contour>
    <contour>
      <point x="694" y="1205" type="curve" smooth="yes"/>
      <point x="297" y="1205"/>
      <point x="88" y="1013"/>
      <point x="88" y="638" type="curve" smooth="yes"/>
      <point x="88" y="279" type="line" smooth="yes"/>
      <point x="88" y="89"/>
      <point x="172" y="-22"/>
      <point x="350" y="-22" type="curve" smooth="yes"/>
      <point x="529" y="-22"/>
      <point x="610" y="87"/>
      <point x="610" y="274" type="curve" smooth="yes"/>
      <point x="610" y="552" type="line" smooth="yes"/>
      <point x="610" y="722"/>
      <point x="552" y="810"/>
      <point x="426" y="810" type="curve" smooth="yes"/>
      <point x="323" y="810"/>
      <point x="264" y="740"/>
      <point x="248" y="656" type="curve"/>
      <point x="240" y="656" type="line"/>
      <point x="242" y="546" type="line"/>
      <point x="256" y="616"/>
      <point x="298" y="660"/>
      <point x="354" y="660" type="curve" smooth="yes"/>
      <point x="421" y="660"/>
      <point x="450" y="612"/>
      <point x="450" y="519" type="curve" smooth="yes"/>
      <point x="450" y="268" type="line" smooth="yes"/>
      <point x="450" y="165"/>
      <point x="421" y="116"/>
      <point x="350" y="116" type="curve" smooth="yes"/>
      <point x="279" y="116"/>
      <point x="249" y="165"/>
      <point x="249" y="268" type="curve" smooth="yes"/>
      <point x="249" y="656" type="line"/>
      <point x="243" y="656" type="line"/>
      <point x="243" y="657"/>
      <point x="243" y="657"/>
      <point x="243" y="658" type="curve" smooth="yes"/>
      <point x="243" y="927"/>
      <point x="385" y="1059"/>
      <point x="694" y="1059" type="curve" smooth="yes"/>
      <point x="843" y="1059"/>
      <point x="931" y="1033"/>
      <point x="992" y="998" type="curve"/>
      <point x="1002" y="995" type="line"/>
      <point x="1102" y="928"/>
      <point x="1127" y="825"/>
      <point x="1127" y="628" type="curve" smooth="yes"/>
      <point x="1127" y="278" type="line" smooth="yes"/>
      <point x="1127" y="170"/>
      <point x="1094" y="124"/>
      <point x="1022" y="124" type="curve" smooth="yes"/>
      <point x="947" y="124"/>
      <point x="912" y="170"/>
      <point x="912" y="277" type="curve" smooth="yes"/>
      <point x="912" y="627" type="line" smooth="yes"/>
      <point x="912" y="824"/>
      <point x="941" y="928"/>
      <point x="1047" y="995" type="curve"/>
      <point x="974" y="1088" type="line"/>
      <point x="804" y="1009"/>
      <point x="750" y="854"/>
      <point x="750" y="620" type="curve" smooth="yes"/>
      <point x="750" y="281" type="line" smooth="yes"/>
      <point x="750" y="88"/>
      <point x="835" y="-22"/>
      <point x="1022" y="-22" type="curve" smooth="yes"/>
      <point x="1207" y="-22"/>
      <point x="1290" y="85"/>
      <point x="1290" y="281" type="curve" smooth="yes"/>
      <point x="1290" y="620" type="line" smooth="yes"/>
      <point x="1290" y="855"/>
      <point x="1241" y="1004"/>
      <point x="1097" y="1086" type="curve"/>
      <point x="1096" y="1098" type="line"/>
      <point x="1018" y="1160"/>
      <point x="882" y="1205"/>
    </contour>
  </outline>
</glyph>
<glyph name="NnnaMatraAa.tm" format="2">
  <advance width="2189"/>
  <outline>
    <contour>
      <point x="1717" y="1205" type="curve" smooth="yes"/>
      <point x="1547" y="1205"/>
      <point x="1420" y="1156"/>
      <point x="1339" y="1092" type="curve"/>
      <point x="1447" y="1003" type="line"/>
      <point x="1522" y="1044"/>
      <point x="1612" y="1066"/>
      <point x="1708" y="1066" type="curve" smooth="yes"/>
      <point x="1861" y="1066"/>
      <point x="1929" y="1001"/>
      <point x="1929" y="850" type="curve" smooth="yes"/>
      <point x="1929" y="807" type="line" smooth="yes"/>
      <point x="1929" y="699"/>
      <point x="1900" y="642"/>
      <point x="1799" y="636" type="curve" smooth="yes"/>
      <point x="1750" y="633" type="line"/>
      <point x="1750" y="496" type="line"/>
      <point x="1801" y="493" type="line" smooth="yes"/>
      <point x="1902" y="487"/>
      <point x="1938" y="451"/>
      <point x="1938" y="321" type="curve" smooth="yes"/>
      <point x="1938" y="251" type="line" smooth="yes"/>
      <point x="1938" y="-155"/>
      <point x="1751" y="-328"/>
      <point x="1219" y="-328" type="curve" smooth="yes"/>
      <point x="1147" y="-328" type="line" smooth="yes"/>
      <point x="508" y="-328"/>
      <point x="270" y="-77"/>
      <point x="270" y="496" type="curve" smooth="yes"/>
      <point x="270" y="751"/>
      <point x="275" y="987"/>
      <point x="279" y="1173" type="curve"/>
      <point x="115" y="1173" type="line"/>
      <point x="110" y="1000"/>
      <point x="105" y="759"/>
      <point x="105" y="491" type="curve" smooth="yes"/>
      <point x="105" y="-172"/>
      <point x="420" y="-478"/>
      <point x="1152" y="-478" type="curve" smooth="yes"/>
      <point x="1213" y="-478" type="line" smooth="yes"/>
      <point x="1843" y="-478"/>
      <point x="2101" y="-260"/>
      <point x="2101" y="242" type="curve" smooth="yes"/>
      <point x="2101" y="319" type="line" smooth="yes"/>
      <point x="2101" y="494"/>
      <point x="2053" y="558"/>
      <point x="1928" y="569" type="curve"/>
      <point x="1928" y="574" type="line"/>
      <point x="2054" y="586"/>
      <point x="2092" y="681"/>
      <point x="2092" y="824" type="curve" smooth="yes"/>
      <point x="2092" y="868" type="line" smooth="yes"/>
      <point x="2092" y="1099"/>
      <point x="1981" y="1205"/>
    </contour>
    <contour>
      <point x="1084" y="1205" type="curve" smooth="yes"/>
      <point x="688" y="1205"/>
      <point x="479" y="1013"/>
      <point x="479" y="638" type="curve" smooth="yes"/>
      <point x="479" y="279" type="line" smooth="yes"/>
      <point x="479" y="89"/>
      <point x="563" y="-22"/>
      <point x="740" y="-22" type="curve" smooth="yes"/>
      <point x="920" y="-22"/>
      <point x="1000" y="87"/>
      <point x="1000" y="274" type="curve" smooth="yes"/>
      <point x="1000" y="552" type="line" smooth="yes"/>
      <point x="1000" y="722"/>
      <point x="943" y="810"/>
      <point x="817" y="810" type="curve" smooth="yes"/>
      <point x="714" y="810"/>
      <point x="654" y="740"/>
      <point x="638" y="656" type="curve"/>
      <point x="630" y="656" type="line"/>
      <point x="633" y="546" type="line"/>
      <point x="647" y="616"/>
      <point x="688" y="660"/>
      <point x="745" y="660" type="curve" smooth="yes"/>
      <point x="811" y="660"/>
      <point x="840" y="612"/>
      <point x="840" y="519" type="curve" smooth="yes"/>
      <point x="840" y="268" type="line" smooth="yes"/>
      <point x="840" y="165"/>
      <point x="811" y="116"/>
      <point x="740" y="116" type="curve" smooth="yes"/>
      <point x="669" y="116"/>
      <point x="639" y="165"/>
      <point x="639" y="268" type="curve" smooth="yes"/>
      <point x="639" y="656" type="line"/>
      <point x="634" y="656" type="line"/>
      <point x="634" y="657"/>
      <point x="634" y="657"/>
      <point x="634" y="658" type="curve" smooth="yes"/>
      <point x="634" y="927"/>
      <point x="775" y="1059"/>
      <point x="1084" y="1059" type="curve" smooth="yes"/>
      <point x="1235" y="1059"/>
      <point x="1323" y="1033"/>
      <point x="1383" y="1001" type="curve"/>
      <point x="1393" y="998" type="line"/>
      <point x="1492" y="934"/>
      <point x="1518" y="828"/>
      <point x="1518" y="631" type="curve" smooth="yes"/>
      <point x="1518" y="278" type="line" smooth="yes"/>
      <point x="1518" y="170"/>
      <point x="1485" y="124"/>
      <point x="1413" y="124" type="curve" smooth="yes"/>
      <point x="1338" y="124"/>
      <point x="1303" y="170"/>
      <point x="1303" y="277" type="curve" smooth="yes"/>
      <point x="1303" y="630" type="line" smooth="yes"/>
      <point x="1303" y="828"/>
      <point x="1333" y="933"/>
      <point x="1438" y="998" type="curve"/>
      <point x="1357" y="1091" type="line"/>
      <point x="1195" y="1014"/>
      <point x="1141" y="859"/>
      <point x="1141" y="624" type="curve" smooth="yes"/>
      <point x="1141" y="281" type="line" smooth="yes"/>
      <point x="1141" y="88"/>
      <point x="1226" y="-22"/>
      <point x="1413" y="-22" type="curve" smooth="yes"/>
      <point x="1598" y="-22"/>
      <point x="1681" y="85"/>
      <point x="1681" y="281" type="curve" smooth="yes"/>
      <point x="1681" y="624" type="line" smooth="yes"/>
      <point x="1681" y="857"/>
      <point x="1630" y="1010"/>
      <point x="1498" y="1085" type="curve"/>
      <point x="1497" y="1094" type="line"/>
      <point x="1417" y="1158"/>
      <point x="1279" y="1205"/>
    </contour>
  </outline>
</glyph>
<glyph name="NnnaMatraU.tm" format="2">
  <advance width="2197"/>
  <note>
NnnaMatraU.tm
</note>
  <outline>
    <contour>
      <point x="1326" y="1205" type="curve" smooth="yes"/>
      <point x="1156" y="1205"/>
      <point x="1029" y="1156"/>
      <point x="948" y="1092" type="curve"/>
      <point x="1056" y="1003" type="line"/>
      <point x="1131" y="1044"/>
      <point x="1221" y="1066"/>
      <point x="1317" y="1066" type="curve" smooth="yes"/>
      <point x="1470" y="1066"/>
      <point x="1538" y="1001"/>
      <point x="1538" y="850" type="curve" smooth="yes"/>
      <point x="1538" y="802" type="line"/>
      <point x="1538" y="693"/>
      <point x="1510" y="637"/>
      <point x="1408" y="630" type="curve" smooth="yes"/>
      <point x="1360" y="628" type="line"/>
      <point x="1360" y="491" type="line"/>
      <point x="1404" y="489" type="line" smooth="yes"/>
      <point x="1511" y="483"/>
      <point x="1546" y="440"/>
      <point x="1546" y="297" type="curve" smooth="yes"/>
      <point x="1546" y="194" type="line" smooth="yes"/>
      <point x="1546" y="14"/>
      <point x="1529" y="-142"/>
      <point x="1509" y="-218" type="curve"/>
      <point x="1503" y="-260" type="line"/>
      <point x="1449" y="-422"/>
      <point x="1255" y="-548"/>
      <point x="872" y="-548" type="curve" smooth="yes"/>
      <point x="480" y="-548"/>
      <point x="293" y="-431"/>
      <point x="238" y="-300" type="curve"/>
      <point x="2085" y="-300" type="line"/>
      <point x="2085" y="-167" type="line"/>
      <point x="51" y="-167" type="line"/>
      <point x="82" y="-503"/>
      <point x="356" y="-684"/>
      <point x="872" y="-684" type="curve" smooth="yes"/>
      <point x="1352" y="-684"/>
      <point x="1593" y="-517"/>
      <point x="1668" y="-276" type="curve"/>
      <point x="1671" y="-238" type="line"/>
      <point x="1692" y="-152"/>
      <point x="1708" y="-17"/>
      <point x="1708" y="194" type="curve" smooth="yes"/>
      <point x="1708" y="304" type="line" smooth="yes"/>
      <point x="1708" y="485"/>
      <point x="1662" y="553"/>
      <point x="1537" y="563" type="curve"/>
      <point x="1537" y="569" type="line"/>
      <point x="1663" y="581"/>
      <point x="1701" y="676"/>
      <point x="1701" y="819" type="curve" smooth="yes"/>
      <point x="1701" y="868" type="line"/>
      <point x="1701" y="1099"/>
      <point x="1590" y="1205"/>
    </contour>
    <contour>
      <point x="1920" y="1173" type="line"/>
      <point x="1920" y="-225" type="line"/>
      <point x="2085" y="-225" type="line"/>
      <point x="2085" y="1173" type="line"/>
    </contour>
    <contour>
      <point x="694" y="1205" type="curve" smooth="yes"/>
      <point x="297" y="1205"/>
      <point x="88" y="1013"/>
      <point x="88" y="638" type="curve" smooth="yes"/>
      <point x="88" y="279" type="line" smooth="yes"/>
      <point x="88" y="89"/>
      <point x="172" y="-22"/>
      <point x="350" y="-22" type="curve" smooth="yes"/>
      <point x="529" y="-22"/>
      <point x="610" y="87"/>
      <point x="610" y="274" type="curve" smooth="yes"/>
      <point x="610" y="552" type="line" smooth="yes"/>
      <point x="610" y="722"/>
      <point x="552" y="810"/>
      <point x="426" y="810" type="curve" smooth="yes"/>
      <point x="323" y="810"/>
      <point x="264" y="740"/>
      <point x="248" y="656" type="curve"/>
      <point x="240" y="656" type="line"/>
      <point x="242" y="546" type="line"/>
      <point x="256" y="616"/>
      <point x="298" y="660"/>
      <point x="354" y="660" type="curve" smooth="yes"/>
      <point x="421" y="660"/>
      <point x="450" y="612"/>
      <point x="450" y="519" type="curve" smooth="yes"/>
      <point x="450" y="268" type="line" smooth="yes"/>
      <point x="450" y="165"/>
      <point x="421" y="116"/>
      <point x="350" y="116" type="curve" smooth="yes"/>
      <point x="279" y="116"/>
      <point x="249" y="165"/>
      <point x="249" y="268" type="curve" smooth="yes"/>
      <point x="249" y="656" type="line"/>
      <point x="243" y="656" type="line"/>
      <point x="243" y="657"/>
      <point x="243" y="657"/>
      <point x="243" y="658" type="curve" smooth="yes"/>
      <point x="243" y="927"/>
      <point x="385" y="1059"/>
      <point x="694" y="1059" type="curve" smooth="yes"/>
      <point x="844" y="1059"/>
      <point x="932" y="1033"/>
      <point x="992" y="1001" type="curve"/>
      <point x="1002" y="998" type="line"/>
      <point x="1101" y="934"/>
      <point x="1127" y="828"/>
      <point x="1127" y="631" type="curve" smooth="yes"/>
      <point x="1127" y="278" type="line" smooth="yes"/>
      <point x="1127" y="170"/>
      <point x="1094" y="124"/>
      <point x="1022" y="124" type="curve" smooth="yes"/>
      <point x="947" y="124"/>
      <point x="912" y="170"/>
      <point x="912" y="277" type="curve" smooth="yes"/>
      <point x="912" y="630" type="line" smooth="yes"/>
      <point x="912" y="828"/>
      <point x="942" y="933"/>
      <point x="1047" y="998" type="curve"/>
      <point x="966" y="1091" type="line"/>
      <point x="804" y="1014"/>
      <point x="750" y="859"/>
      <point x="750" y="624" type="curve" smooth="yes"/>
      <point x="750" y="281" type="line" smooth="yes"/>
      <point x="750" y="88"/>
      <point x="835" y="-22"/>
      <point x="1022" y="-22" type="curve" smooth="yes"/>
      <point x="1207" y="-22"/>
      <point x="1290" y="85"/>
      <point x="1290" y="281" type="curve" smooth="yes"/>
      <point x="1290" y="624" type="line" smooth="yes"/>
      <point x="1290" y="857"/>
      <point x="1239" y="1010"/>
      <point x="1107" y="1085" type="curve"/>
      <point x="1106" y="1094" type="line"/>
      <point x="1026" y="1158"/>
      <point x="888" y="1205"/>
    </contour>
  </outline>
</glyph>
<glyph name="NnnaMatraU_Simple.tm" format="2">
  <advance width="2198"/>
  <note>
NnnaMatraU.tm
</note>
  <outline>
    <contour>
      <point x="1326" y="1205" type="curve" smooth="yes"/>
      <point x="1156" y="1205"/>
      <point x="1029" y="1156"/>
      <point x="948" y="1092" type="curve"/>
      <point x="1056" y="1003" type="line"/>
      <point x="1131" y="1044"/>
      <point x="1221" y="1066"/>
      <point x="1317" y="1066" type="curve" smooth="yes"/>
      <point x="1470" y="1066"/>
      <point x="1538" y="1001"/>
      <point x="1538" y="850" type="curve" smooth="yes"/>
      <point x="1538" y="802" type="line"/>
      <point x="1538" y="693"/>
      <point x="1510" y="637"/>
      <point x="1408" y="630" type="curve" smooth="yes"/>
      <point x="1360" y="628" type="line"/>
      <point x="1360" y="491" type="line"/>
      <point x="1404" y="489" type="line" smooth="yes"/>
      <point x="1512" y="483"/>
      <point x="1549" y="440"/>
      <point x="1549" y="297" type="curve" smooth="yes"/>
      <point x="1549" y="203" type="line" smooth="yes"/>
      <point x="1549" y="-40"/>
      <point x="1493" y="-169"/>
      <point x="1252" y="-177" type="curve"/>
      <point x="35" y="-177" type="line"/>
      <point x="54" y="-319" type="line"/>
      <point x="2086" y="-319" type="line"/>
      <point x="2086" y="-179" type="line"/>
      <point x="1520" y="-179" type="line"/>
      <point x="1520" y="-173" type="line"/>
      <point x="1667" y="-143"/>
      <point x="1712" y="-22"/>
      <point x="1712" y="204" type="curve" smooth="yes"/>
      <point x="1712" y="304" type="line" smooth="yes"/>
      <point x="1712" y="485"/>
      <point x="1664" y="553"/>
      <point x="1537" y="563" type="curve"/>
      <point x="1537" y="569" type="line"/>
      <point x="1663" y="581"/>
      <point x="1701" y="676"/>
      <point x="1701" y="819" type="curve" smooth="yes"/>
      <point x="1701" y="868" type="line"/>
      <point x="1701" y="1099"/>
      <point x="1590" y="1205"/>
    </contour>
    <contour>
      <point x="1921" y="1173" type="line"/>
      <point x="1921" y="-227" type="line"/>
      <point x="2086" y="-227" type="line"/>
      <point x="2086" y="1173" type="line"/>
    </contour>
    <contour>
      <point x="694" y="1205" type="curve" smooth="yes"/>
      <point x="297" y="1205"/>
      <point x="88" y="1013"/>
      <point x="88" y="638" type="curve" smooth="yes"/>
      <point x="88" y="279" type="line" smooth="yes"/>
      <point x="88" y="89"/>
      <point x="172" y="-22"/>
      <point x="350" y="-22" type="curve" smooth="yes"/>
      <point x="529" y="-22"/>
      <point x="610" y="87"/>
      <point x="610" y="274" type="curve" smooth="yes"/>
      <point x="610" y="552" type="line" smooth="yes"/>
      <point x="610" y="722"/>
      <point x="552" y="810"/>
      <point x="426" y="810" type="curve" smooth="yes"/>
      <point x="323" y="810"/>
      <point x="264" y="740"/>
      <point x="248" y="656" type="curve"/>
      <point x="240" y="656" type="line"/>
      <point x="242" y="546" type="line"/>
      <point x="256" y="616"/>
      <point x="298" y="660"/>
      <point x="354" y="660" type="curve" smooth="yes"/>
      <point x="421" y="660"/>
      <point x="450" y="612"/>
      <point x="450" y="519" type="curve" smooth="yes"/>
      <point x="450" y="268" type="line" smooth="yes"/>
      <point x="450" y="165"/>
      <point x="421" y="116"/>
      <point x="350" y="116" type="curve" smooth="yes"/>
      <point x="279" y="116"/>
      <point x="249" y="165"/>
      <point x="249" y="268" type="curve" smooth="yes"/>
      <point x="249" y="656" type="line"/>
      <point x="243" y="656" type="line"/>
      <point x="243" y="657"/>
      <point x="243" y="657"/>
      <point x="243" y="658" type="curve" smooth="yes"/>
      <point x="243" y="927"/>
      <point x="385" y="1059"/>
      <point x="694" y="1059" type="curve" smooth="yes"/>
      <point x="843" y="1059"/>
      <point x="930" y="1032"/>
      <point x="992" y="996" type="curve"/>
      <point x="1001" y="994" type="line"/>
      <point x="1102" y="927"/>
      <point x="1127" y="824"/>
      <point x="1127" y="628" type="curve" smooth="yes"/>
      <point x="1127" y="278" type="line" smooth="yes"/>
      <point x="1127" y="170"/>
      <point x="1094" y="124"/>
      <point x="1022" y="124" type="curve" smooth="yes"/>
      <point x="947" y="124"/>
      <point x="912" y="170"/>
      <point x="912" y="277" type="curve" smooth="yes"/>
      <point x="912" y="627" type="line" smooth="yes"/>
      <point x="912" y="823"/>
      <point x="941" y="927"/>
      <point x="1047" y="994" type="curve"/>
      <point x="974" y="1086" type="line"/>
      <point x="804" y="1007"/>
      <point x="750" y="853"/>
      <point x="750" y="620" type="curve" smooth="yes"/>
      <point x="750" y="281" type="line" smooth="yes"/>
      <point x="750" y="88"/>
      <point x="835" y="-22"/>
      <point x="1022" y="-22" type="curve" smooth="yes"/>
      <point x="1207" y="-22"/>
      <point x="1290" y="85"/>
      <point x="1290" y="281" type="curve" smooth="yes"/>
      <point x="1290" y="620" type="line" smooth="yes"/>
      <point x="1290" y="854"/>
      <point x="1241" y="1003"/>
      <point x="1096" y="1084" type="curve"/>
      <point x="1095" y="1096" type="line"/>
      <point x="1017" y="1159"/>
      <point x="882" y="1205"/>
    </contour>
  </outline>
</glyph>
<glyph name="NoTail_NonExporting" format="2">
  <advance width="434"/>
  <outline>
    <contour>
      <point x="415" y="-177" type="line"/>
      <point x="0" y="-177" type="line"/>
      <point x="19" y="-319" type="line"/>
      <point x="415" y="-319" type="line"/>
    </contour>
  </outline>
</glyph>
<glyph name="PaMatraI.tm" format="2">
  <advance width="1364"/>
  <note>
PaMatraI.tm
</note>
  <outline>
    <contour>
      <point x="698" y="1173" type="line"/>
      <point x="698" y="146" type="line"/>
      <point x="387" y="146" type="line"/>
      <point x="387" y="0" type="line"/>
      <point x="863" y="0" type="line"/>
      <point x="863" y="1173" type="line"/>
    </contour>
    <contour>
      <point x="279" y="1173" type="line"/>
      <point x="112" y="1173" type="line"/>
      <point x="112" y="0" type="line"/>
      <point x="580" y="0" type="line"/>
      <point x="580" y="146" type="line"/>
      <point x="279" y="146" type="line"/>
    </contour>
    <contour>
      <point x="828" y="1699" type="curve" smooth="yes"/>
      <point x="539" y="1699"/>
      <point x="398" y="1529"/>
      <point x="398" y="1225" type="curve" smooth="yes"/>
      <point x="398" y="1149" type="line" smooth="yes"/>
      <point x="398" y="908"/>
      <point x="483" y="772"/>
      <point x="704" y="742" type="curve"/>
      <point x="705" y="897" type="line"/>
      <point x="591" y="919"/>
      <point x="560" y="1007"/>
      <point x="560" y="1137" type="curve" smooth="yes"/>
      <point x="560" y="1220" type="line" smooth="yes"/>
      <point x="560" y="1437"/>
      <point x="635" y="1551"/>
      <point x="828" y="1551" type="curve" smooth="yes"/>
      <point x="1019" y="1551"/>
      <point x="1087" y="1439"/>
      <point x="1087" y="1210" type="curve" smooth="yes"/>
      <point x="1087" y="0" type="line"/>
      <point x="1252" y="0" type="line"/>
      <point x="1252" y="1201" type="line" smooth="yes"/>
      <point x="1252" y="1522"/>
      <point x="1118" y="1699"/>
    </contour>
  </outline>
</glyph>
<glyph name="PaMatraI_Fly.tm" format="2">
  <advance width="958"/>
  <outline>
    <contour>
      <point x="679" y="1173" type="line"/>
      <point x="679" y="146" type="line"/>
      <point x="470" y="146" type="line"/>
      <point x="470" y="0" type="line"/>
      <point x="846" y="0" type="line"/>
      <point x="846" y="1173" type="line"/>
    </contour>
    <contour>
      <point x="279" y="1173" type="line"/>
      <point x="112" y="1173" type="line"/>
      <point x="112" y="0" type="line"/>
      <point x="607" y="0" type="line"/>
      <point x="607" y="146" type="line"/>
      <point x="279" y="146" type="line"/>
    </contour>
    <contour>
      <point x="902" y="1542" type="line"/>
      <point x="613" y="1542" type="line" smooth="yes"/>
      <point x="440" y="1542"/>
      <point x="372" y="1471"/>
      <point x="372" y="1340" type="curve" smooth="yes"/>
      <point x="372" y="1256"/>
      <point x="403" y="1118"/>
      <point x="420" y="1059" type="curve" smooth="yes"/>
      <point x="458" y="933"/>
      <point x="497" y="904"/>
      <point x="625" y="904" type="curve" smooth="yes"/>
      <point x="686" y="904" type="line"/>
      <point x="686" y="1041" type="line"/>
      <point x="650" y="1041" type="line" smooth="yes"/>
      <point x="596" y="1041"/>
      <point x="581" y="1056"/>
      <point x="566" y="1119" type="curve" smooth="yes"/>
      <point x="556" y="1165"/>
      <point x="537" y="1263"/>
      <point x="537" y="1316" type="curve" smooth="yes"/>
      <point x="537" y="1369"/>
      <point x="558" y="1399"/>
      <point x="638" y="1399" type="curve" smooth="yes"/>
      <point x="922" y="1399" type="line"/>
    </contour>
  </outline>
</glyph>
